{
.appVersion = "1286";
classes = (
{
automatic = 1;
code = "A Aacute Abreve Abreveacute Abrevedotbelow Abrevegrave Abrevehookabove Abrevetilde Acaron Acircumflex Acircumflexacute Acircumflexdotbelow Acircumflexgrave Acircumflexhookabove Acircumflextilde Adieresis Adotbelow Agrave Ahookabove Amacron Aogonek Aring Aringacute Atilde AE AEacute B C Cacute Ccaron Ccedilla Cdotaccent D Eth Dcaron Dcroat E Eacute Ecaron Ecircumflex Ecircumflexacute Ecircumflexdotbelow Ecircumflexgrave Ecircumflexhookabove Ecircumflextilde Edieresis Edotaccent Edotbelow Egrave Ehookabove Emacron Eogonek Etilde F G Gbreve Gcommaaccent Gdotaccent H Hbar I IJ Iacute Icaron Icircumflex Idieresis Idotaccent Idotbelow Igrave Ihookabove Imacron Iogonek Itilde J K Kcommaaccent L Lacute Lcaron Lcommaaccent Ldot Lslash M N Nacute Ncaron Ncommaaccent Eng Ntilde O Oacute Ocaron Ocircumflex Ocircumflexacute Ocircumflexdotbelow Ocircumflexgrave Ocircumflexhookabove Ocircumflextilde Odieresis Odotbelow Ograve Ohookabove Ohorn Ohornacute Ohorndotbelow Ohorngrave Ohornhookabove Ohorntilde Ohungarumlaut Omacron Oslash Oslashacute Otilde OE P Thorn Q R Racute Rcaron Rcommaaccent S Sacute Scaron Scedilla Scommaaccent Germandbls T Tbar Tcaron Tcedilla Tcommaaccent U Uacute Ubreve Ucaron Ucircumflex Udieresis Udieresisacute Udieresiscaron Udieresisgrave Udieresismacron Udotbelow Ugrave Uhookabove Uhorn Uhornacute Uhorndotbelow Uhorngrave Uhornhookabove Uhorntilde Uhungarumlaut Umacron Uogonek Uring Utilde V W Wacute Wcircumflex Wdieresis Wgrave X Y Yacute Ycircumflex Ydieresis Ydotbelow Ygrave Yhookabove Ytilde Z Zacute Zcaron Zdotaccent B.ss02 D.ss02 Eth.ss02 Dcaron.ss02 Dcroat.ss02 IJ.ss02 J.ss02 I.ss03 Iacute.ss03 Icaron.ss03 Icircumflex.ss03 Idieresis.ss03 Idotaccent.ss03 Idotbelow.ss03 Igrave.ss03 Ihookabove.ss03 Imacron.ss03 Iogonek.ss03 Itilde.ss03";
name = Uppercase;
}
);
copyright = "Copyright 2020 The Space Grotesk Project Authors (https://github.com/floriankarsten/space-grotesk)";

glyphs = (
{
glyphname = A;
lastChange = "2020-05-15 12:35:45 +0000";
layers = (
{
anchors = (
{
name = bottom;
position = "{315, 0}";
},
{
name = ogonek;
position = "{549, 0}";
},
{
name = top;
position = "{315, 700}";
}
);
layerId = "5117E3E8-E17C-4812-BAF5-9E7064564A59";
paths = (
{
closed = 1;
nodes = (
"16 0 LINE",
"152 0 LINE",
"190 154 LINE",
"440 154 LINE",
"478 0 LINE",
"614 0 LINE",
"430 700 LINE",
"200 700 LINE"
);
},
{
closed = 1;
nodes = (
"306 617 LINE",
"324 617 LINE",
"409 276 LINE",
"221 276 LINE"
);
}
);
width = 630;
},
{
anchors = (
{
name = bottom;
position = "{312, 0}";
},
{
name = ogonek;
position = "{565, 0}";
},
{
name = top;
position = "{312, 700}";
}
);
layerId = "CEFBB1E5-951F-4065-926E-8B9137F837F5";
paths = (
{
closed = 1;
nodes = (
"27 0 LINE",
"95 0 LINE",
"154 186 LINE",
"471 186 LINE",
"530 0 LINE",
"598 0 LINE",
"369 700 LINE",
"256 700 LINE"
);
},
{
closed = 1;
nodes = (
"307 663 LINE",
"318 663 LINE",
"453 243 LINE",
"172 243 LINE"
);
}
);
width = 625;
}
);
leftKerningGroup = A;
note = A;
rightKerningGroup = A;
unicode = 0041;
},
{
glyphname = AE;
lastChange = "2020-05-15 12:35:45 +0000";
layers = (
{
anchors = (
{
name = top;
position = "{404, 700}";
}
);
layerId = "5117E3E8-E17C-4812-BAF5-9E7064564A59";
paths = (
{
closed = 1;
nodes = (
"354 276 LINE",
"237 276 LINE",
"336 603 LINE",
"354 603 LINE",
"354 700 LINE",
"237 700 LINE",
"16 0 LINE",
"152 0 LINE",
"200 156 LINE",
"354 156 LINE"
);
},
{
closed = 1;
nodes = (
"354 0 LINE",
"722 0 LINE",
"722 120 LINE",
"486 120 LINE",
"486 291 LINE",
"688 291 LINE",
"688 411 LINE",
"486 411 LINE",
"486 580 LINE",
"716 580 LINE",
"716 700 LINE",
"354 700 LINE"
);
}
);
width = 754;
},
{
anchors = (
{
name = top;
position = "{399, 700}";
}
);
layerId = "CEFBB1E5-951F-4065-926E-8B9137F837F5";
paths = (
{
closed = 1;
nodes = (
"363 243 LINE",
"189 243 LINE",
"352 662 LINE",
"363 662 LINE",
"363 700 LINE",
"303 700 LINE",
"27 0 LINE",
"96 0 LINE",
"168 186 LINE",
"363 186 LINE"
);
},
{
closed = 1;
nodes = (
"363 0 LINE",
"713 0 LINE",
"713 57 LINE",
"427 57 LINE",
"427 323 LINE",
"681 323 LINE",
"681 380 LINE",
"427 380 LINE",
"427 643 LINE",
"709 643 LINE",
"709 700 LINE",
"363 700 LINE"
);
}
);
width = 766;
}
);
leftKerningGroup = A;
leftMetricsKey = A;
note = AE;
rightKerningGroup = E;
rightMetricsKey = E;
unicode = 00C6;
},
{
glyphname = B;
lastChange = "2020-05-15 12:35:45 +0000";
layers = (
{
layerId = "5117E3E8-E17C-4812-BAF5-9E7064564A59";
paths = (
{
closed = 1;
nodes = (
"410 0 LINE SMOOTH",
"529 0 OFFCURVE",
"616 68 OFFCURVE",
"616 185 CURVE SMOOTH",
"616 195 LINE SMOOTH",
"616 295 OFFCURVE",
"549 334 OFFCURVE",
"505 346 CURVE",
"505 364 LINE",
"548 377 OFFCURVE",
"612 416 OFFCURVE",
"612 513 CURVE SMOOTH",
"612 523 LINE SMOOTH",
"612 632 OFFCURVE",
"528 700 OFFCURVE",
"406 700 CURVE SMOOTH",
"46 700 LINE",
"46 584 LINE",
"138 584 LINE",
"138 116 LINE",
"46 116 LINE",
"46 0 LINE"
);
},
{
closed = 1;
nodes = (
"270 292 LINE",
"394 292 LINE SMOOTH",
"452 292 OFFCURVE",
"490 263 OFFCURVE",
"490 211 CURVE SMOOTH",
"490 201 LINE SMOOTH",
"490 149 OFFCURVE",
"451 120 OFFCURVE",
"394 120 CURVE SMOOTH",
"270 120 LINE"
);
},
{
closed = 1;
nodes = (
"270 580 LINE",
"392 580 LINE SMOOTH",
"448 580 OFFCURVE",
"486 551 OFFCURVE",
"486 501 CURVE SMOOTH",
"486 491 LINE SMOOTH",
"486 441 OFFCURVE",
"447 412 OFFCURVE",
"392 412 CURVE SMOOTH",
"270 412 LINE"
);
}
);
width = 658;
},
{
layerId = "CEFBB1E5-951F-4065-926E-8B9137F837F5";
paths = (
{
closed = 1;
nodes = (
"391 0 LINE SMOOTH",
"510 0 OFFCURVE",
"600 68 OFFCURVE",
"600 182 CURVE SMOOTH",
"600 192 LINE SMOOTH",
"600 290 OFFCURVE",
"535 334 OFFCURVE",
"483 348 CURVE",
"483 359 LINE",
"534 374 OFFCURVE",
"600 419 OFFCURVE",
"600 517 CURVE SMOOTH",
"600 525 LINE SMOOTH",
"600 629 OFFCURVE",
"514 700 OFFCURVE",
"394 700 CURVE SMOOTH",
"48 700 LINE",
"48 644 LINE",
"147 644 LINE",
"147 57 LINE",
"48 57 LINE",
"48 0 LINE"
);
},
{
closed = 1;
nodes = (
"211 324 LINE",
"385 324 LINE SMOOTH",
"485 324 OFFCURVE",
"537 274 OFFCURVE",
"537 194 CURVE SMOOTH",
"537 186 LINE SMOOTH",
"537 107 OFFCURVE",
"485 57 OFFCURVE",
"385 57 CURVE SMOOTH",
"211 57 LINE"
);
},
{
closed = 1;
nodes = (
"211 643 LINE",
"389 643 LINE SMOOTH",
"481 643 OFFCURVE",
"537 592 OFFCURVE",
"537 517 CURVE SMOOTH",
"537 507 LINE SMOOTH",
"537 431 OFFCURVE",
"481 381 OFFCURVE",
"389 381 CURVE SMOOTH",
"211 381 LINE"
);
}
);
width = 658;
}
);
leftKerningGroup = Serif;
leftMetricsKey = I.ss03;
note = B.alt;
rightKerningGroup = B;
unicode = 0042;
},
{
glyphname = C;
lastChange = "2020-05-15 12:35:45 +0000";
layers = (
{
anchors = (
{
name = bottom;
position = "{332, 0}";
},
{
name = top;
position = "{332, 700}";
}
);
layerId = "5117E3E8-E17C-4812-BAF5-9E7064564A59";
paths = (
{
closed = 1;
nodes = (
"50 86 OFFCURVE",
"158 -14 OFFCURVE",
"332 -14 CURVE SMOOTH",
"506 -14 OFFCURVE",
"604 86 OFFCURVE",
"604 238 CURVE SMOOTH",
"604 268 LINE",
"472 268 LINE",
"472 236 LINE SMOOTH",
"472 166 OFFCURVE",
"426 104 OFFCURVE",
"332 104 CURVE SMOOTH",
"238 104 OFFCURVE",
"182 166 OFFCURVE",
"182 264 CURVE SMOOTH",
"182 436 LINE SMOOTH",
"182 534 OFFCURVE",
"238 596 OFFCURVE",
"332 596 CURVE SMOOTH",
"426 596 OFFCURVE",
"472 534 OFFCURVE",
"472 464 CURVE SMOOTH",
"472 440 LINE",
"604 440 LINE",
"604 462 LINE SMOOTH",
"604 614 OFFCURVE",
"506 714 OFFCURVE",
"332 714 CURVE SMOOTH",
"158 714 OFFCURVE",
"50 614 OFFCURVE",
"50 434 CURVE SMOOTH",
"50 266 LINE SMOOTH"
);
}
);
width = 646;
},
{
anchors = (
{
name = bottom;
position = "{331, 0}";
},
{
name = top;
position = "{334, 700}";
}
);
layerId = "CEFBB1E5-951F-4065-926E-8B9137F837F5";
paths = (
{
closed = 1;
nodes = (
"64 94 OFFCURVE",
"165 -14 OFFCURVE",
"334 -14 CURVE SMOOTH",
"489 -14 OFFCURVE",
"585 80 OFFCURVE",
"585 234 CURVE SMOOTH",
"585 258 LINE",
"521 258 LINE",
"521 233 LINE SMOOTH",
"521 114 OFFCURVE",
"462 43 OFFCURVE",
"334 43 CURVE SMOOTH",
"205 43 OFFCURVE",
"128 130 OFFCURVE",
"128 279 CURVE SMOOTH",
"128 421 LINE SMOOTH",
"128 570 OFFCURVE",
"203 657 OFFCURVE",
"334 657 CURVE SMOOTH",
"454 657 OFFCURVE",
"521 583 OFFCURVE",
"521 464 CURVE SMOOTH",
"521 444 LINE",
"585 444 LINE",
"585 464 LINE SMOOTH",
"585 618 OFFCURVE",
"496 714 OFFCURVE",
"334 714 CURVE SMOOTH",
"168 714 OFFCURVE",
"64 606 OFFCURVE",
"64 419 CURVE SMOOTH",
"64 281 LINE SMOOTH"
);
}
);
width = 641;
}
);
leftKerningGroup = O;
leftMetricsKey = O;
note = C;
rightKerningGroup = O;
rightMetricsKey = "=O-8";
unicode = 0043;
},
{
glyphname = D;
lastChange = "2020-05-15 12:35:45 +0000";
layers = (
{
anchors = (
{
name = stroke;
position = "{138, 496}";
},
{
name = top;
position = "{320, 700}";
}
);
layerId = "5117E3E8-E17C-4812-BAF5-9E7064564A59";
paths = (
{
closed = 1;
nodes = (
"46 584 LINE",
"138 584 LINE",
"138 116 LINE",
"46 116 LINE",
"46 0 LINE",
"334 0 LINE SMOOTH",
"522 0 OFFCURVE",
"622 96 OFFCURVE",
"622 284 CURVE SMOOTH",
"622 416 LINE SMOOTH",
"622 604 OFFCURVE",
"522 700 OFFCURVE",
"334 700 CURVE SMOOTH",
"46 700 LINE"
);
},
{
closed = 1;
nodes = (
"336 580 LINE SMOOTH",
"442 580 OFFCURVE",
"490 522 OFFCURVE",
"490 420 CURVE SMOOTH",
"490 280 LINE SMOOTH",
"490 178 OFFCURVE",
"442 120 OFFCURVE",
"336 120 CURVE SMOOTH",
"270 120 LINE",
"270 580 LINE"
);
}
);
width = 666;
},
{
anchors = (
{
name = stroke;
position = "{147, 486}";
},
{
name = top;
position = "{316, 700}";
}
);
layerId = "CEFBB1E5-951F-4065-926E-8B9137F837F5";
paths = (
{
closed = 1;
nodes = (
"48 644 LINE",
"147 644 LINE",
"147 57 LINE",
"48 57 LINE",
"48 0 LINE",
"313 0 LINE SMOOTH",
"496 0 OFFCURVE",
"603 91 OFFCURVE",
"603 287 CURVE SMOOTH",
"603 413 LINE SMOOTH",
"603 609 OFFCURVE",
"496 700 OFFCURVE",
"313 700 CURVE SMOOTH",
"48 700 LINE"
);
},
{
closed = 1;
nodes = (
"313 643 LINE SMOOTH",
"459 643 OFFCURVE",
"539 575 OFFCURVE",
"539 417 CURVE SMOOTH",
"539 284 LINE SMOOTH",
"539 126 OFFCURVE",
"462 57 OFFCURVE",
"313 57 CURVE SMOOTH",
"211 57 LINE",
"211 643 LINE"
);
}
);
width = 661;
}
);
leftKerningGroup = Serif;
leftMetricsKey = I.ss03;
note = D.alt;
rightKerningGroup = O;
rightMetricsKey = "=O-6";
unicode = 0044;
},
{
glyphname = E;
lastChange = "2020-05-15 12:35:45 +0000";
layers = (
{
anchors = (
{
name = bottom;
position = "{294, 0}";
},
{
name = ogonek;
position = "{426, 0}";
},
{
name = top;
position = "{296, 700}";
}
);
layerId = "5117E3E8-E17C-4812-BAF5-9E7064564A59";
paths = (
{
closed = 1;
nodes = (
"66 0 LINE",
"522 0 LINE",
"522 120 LINE",
"198 120 LINE",
"198 293 LINE",
"488 293 LINE",
"488 413 LINE",
"198 413 LINE",
"198 580 LINE",
"516 580 LINE",
"516 700 LINE",
"66 700 LINE"
);
}
);
width = 554;
},
{
anchors = (
{
name = bottom;
position = "{298, 0}";
},
{
name = ogonek;
position = "{438, 0}";
},
{
name = top;
position = "{303, 700}";
}
);
layerId = "CEFBB1E5-951F-4065-926E-8B9137F837F5";
paths = (
{
closed = 1;
nodes = (
"85 0 LINE",
"512 0 LINE",
"512 57 LINE",
"149 57 LINE",
"149 323 LINE",
"479 323 LINE",
"479 380 LINE",
"149 380 LINE",
"149 643 LINE",
"507 643 LINE",
"507 700 LINE",
"85 700 LINE"
);
}
);
width = 565;
}
);
leftKerningGroup = H;
leftMetricsKey = I;
note = E;
rightKerningGroup = E;
unicode = 0045;
},
{
glyphname = F;
lastChange = "2020-05-15 12:35:45 +0000";
layers = (
{
layerId = "5117E3E8-E17C-4812-BAF5-9E7064564A59";
paths = (
{
closed = 1;
nodes = (
"66 0 LINE",
"198 0 LINE",
"198 291 LINE",
"482 291 LINE",
"482 411 LINE",
"198 411 LINE",
"198 580 LINE",
"506 580 LINE",
"506 700 LINE",
"66 700 LINE"
);
}
);
width = 534;
},
{
layerId = "CEFBB1E5-951F-4065-926E-8B9137F837F5";
paths = (
{
closed = 1;
nodes = (
"85 0 LINE",
"149 0 LINE",
"149 323 LINE",
"472 323 LINE",
"472 380 LINE",
"149 380 LINE",
"149 643 LINE",
"501 643 LINE",
"501 700 LINE",
"85 700 LINE"
);
}
);
width = 541;
}
);
leftKerningGroup = H;
leftMetricsKey = I;
note = F;
rightKerningGroup = F;
unicode = 0046;
},
{
glyphname = G;
lastChange = "2020-05-15 12:35:45 +0000";
layers = (
{
anchors = (
{
name = bottom;
position = "{336, 0}";
},
{
name = top;
position = "{335, 700}";
}
);
layerId = "5117E3E8-E17C-4812-BAF5-9E7064564A59";
paths = (
{
closed = 1;
nodes = (
"50 86 OFFCURVE",
"164 -14 OFFCURVE",
"306 -14 CURVE SMOOTH",
"416 -14 OFFCURVE",
"449 34 OFFCURVE",
"462 67 CURVE",
"480 67 LINE",
"480 0 LINE",
"604 0 LINE",
"604 354 LINE",
"304 354 LINE",
"304 242 LINE",
"478 242 LINE",
"478 232 LINE SMOOTH",
"478 152 OFFCURVE",
"430 100 OFFCURVE",
"336 100 CURVE SMOOTH",
"242 100 OFFCURVE",
"182 162 OFFCURVE",
"182 260 CURVE SMOOTH",
"182 436 LINE SMOOTH",
"182 534 OFFCURVE",
"242 596 OFFCURVE",
"336 596 CURVE SMOOTH",
"430 596 OFFCURVE",
"472 540 OFFCURVE",
"472 468 CURVE SMOOTH",
"472 452 LINE",
"604 452 LINE",
"604 466 LINE SMOOTH",
"604 614 OFFCURVE",
"510 714 OFFCURVE",
"336 714 CURVE SMOOTH",
"162 714 OFFCURVE",
"50 614 OFFCURVE",
"50 434 CURVE SMOOTH",
"50 256 LINE SMOOTH"
);
}
);
width = 662;
},
{
anchors = (
{
name = bottom;
position = "{337, 0}";
},
{
name = top;
position = "{335, 700}";
}
);
layerId = "CEFBB1E5-951F-4065-926E-8B9137F837F5";
paths = (
{
closed = 1;
nodes = (
"64 94 OFFCURVE",
"168 -14 OFFCURVE",
"330 -14 CURVE SMOOTH",
"438 -14 OFFCURVE",
"485 30 OFFCURVE",
"511 77 CURVE",
"522 77 LINE",
"522 0 LINE",
"581 0 LINE",
"581 323 LINE",
"290 323 LINE",
"290 267 LINE",
"518 267 LINE",
"518 233 LINE SMOOTH",
"518 113 OFFCURVE",
"457 42 OFFCURVE",
"335 42 CURVE SMOOTH",
"204 42 OFFCURVE",
"128 130 OFFCURVE",
"128 278 CURVE SMOOTH",
"128 421 LINE SMOOTH",
"128 570 OFFCURVE",
"204 657 OFFCURVE",
"336 657 CURVE SMOOTH",
"457 657 OFFCURVE",
"518 584 OFFCURVE",
"518 468 CURVE SMOOTH",
"518 455 LINE",
"581 455 LINE",
"581 468 LINE SMOOTH",
"581 618 OFFCURVE",
"500 714 OFFCURVE",
"335 714 CURVE SMOOTH",
"168 714 OFFCURVE",
"64 606 OFFCURVE",
"64 419 CURVE SMOOTH",
"64 279 LINE SMOOTH"
);
}
);
width = 659;
}
);
leftKerningGroup = O;
leftMetricsKey = O;
note = G;
rightKerningGroup = G;
unicode = 0047;
},
{
glyphname = H;
lastChange = "2020-05-15 12:35:45 +0000";
layers = (
{
anchors = (
{
name = stroke;
position = "{328, 496}";
}
);
layerId = "5117E3E8-E17C-4812-BAF5-9E7064564A59";
paths = (
{
closed = 1;
nodes = (
"66 0 LINE",
"198 0 LINE",
"198 291 LINE",
"458 291 LINE",
"458 0 LINE",
"590 0 LINE",
"590 700 LINE",
"458 700 LINE",
"458 411 LINE",
"198 411 LINE",
"198 700 LINE",
"66 700 LINE"
);
}
);
width = 656;
},
{
anchors = (
{
name = stroke;
position = "{327, 496}";
}
);
layerId = "CEFBB1E5-951F-4065-926E-8B9137F837F5";
paths = (
{
closed = 1;
nodes = (
"85 0 LINE",
"149 0 LINE",
"149 323 LINE",
"505 323 LINE",
"505 0 LINE",
"569 0 LINE",
"569 700 LINE",
"505 700 LINE",
"505 380 LINE",
"149 380 LINE",
"149 700 LINE",
"85 700 LINE"
);
}
);
width = 654;
}
);
leftKerningGroup = H;
leftMetricsKey = I;
note = H;
rightKerningGroup = H;
rightMetricsKey = I;
unicode = 0048;
},
{
glyphname = I;
lastChange = "2020-05-15 15:18:49 +0000";
layers = (
{
anchors = (
{
name = bottom;
position = "{132, 0}";
},
{
name = ogonek;
position = "{132, 0}";
},
{
name = top;
position = "{132, 700}";
}
);
layerId = "5117E3E8-E17C-4812-BAF5-9E7064564A59";
paths = (
{
closed = 1;
nodes = (
"66 0 LINE",
"198 0 LINE",
"198 700 LINE",
"66 700 LINE"
);
}
);
width = 264;
},
{
anchors = (
{
name = bottom;
position = "{117, 0}";
},
{
name = ogonek;
position = "{117, 0}";
},
{
name = top;
position = "{117, 700}";
}
);
layerId = "CEFBB1E5-951F-4065-926E-8B9137F837F5";
paths = (
{
closed = 1;
nodes = (
"85 0 LINE",
"149 0 LINE",
"149 700 LINE",
"85 700 LINE"
);
}
);
width = 234;
}
);
leftKerningGroup = H;
note = I;
rightKerningGroup = H;
unicode = 0049;
},
{
glyphname = IJ;
lastChange = "2020-05-15 12:35:45 +0000";
layers = (
{
layerId = "5117E3E8-E17C-4812-BAF5-9E7064564A59";
paths = (
{
closed = 1;
nodes = (
"36 580 LINE",
"116 580 LINE",
"116 342 LINE",
"248 342 LINE",
"248 580 LINE",
"328 580 LINE",
"328 700 LINE",
"36 700 LINE"
);
},
{
closed = 1;
nodes = (
"396 580 LINE",
"476 580 LINE",
"476 210 LINE SMOOTH",
"476 146 OFFCURVE",
"436 110 OFFCURVE",
"365 110 CURVE SMOOTH",
"290 110 OFFCURVE",
"248 147 OFFCURVE",
"248 210 CURVE SMOOTH",
"248 260 LINE",
"116 260 LINE",
"116 210 LINE SMOOTH",
"116 69 OFFCURVE",
"213 -14 OFFCURVE",
"369 -14 CURVE SMOOTH",
"518 -14 OFFCURVE",
"608 65 OFFCURVE",
"608 210 CURVE SMOOTH",
"608 580 LINE",
"688 580 LINE",
"688 700 LINE",
"396 700 LINE"
);
}
);
width = 730;
},
{
layerId = "CEFBB1E5-951F-4065-926E-8B9137F837F5";
paths = (
{
closed = 1;
nodes = (
"47 643 LINE",
"135 643 LINE",
"135 343 LINE",
"199 343 LINE",
"199 643 LINE",
"288 643 LINE",
"288 700 LINE",
"47 700 LINE"
);
},
{
closed = 1;
nodes = (
"410 643 LINE",
"516 643 LINE",
"516 210 LINE SMOOTH",
"516 113 OFFCURVE",
"479 44 OFFCURVE",
"364 44 CURVE SMOOTH",
"252 44 OFFCURVE",
"199 112 OFFCURVE",
"199 210 CURVE SMOOTH",
"199 231 LINE",
"135 231 LINE",
"135 210 LINE SMOOTH",
"135 64 OFFCURVE",
"222 -14 OFFCURVE",
"363 -14 CURVE SMOOTH",
"508 -14 OFFCURVE",
"580 65 OFFCURVE",
"580 210 CURVE SMOOTH",
"580 643 LINE",
"669 643 LINE",
"669 700 LINE",
"410 700 LINE"
);
}
);
width = 718;
}
);
leftKerningGroup = JSerif;
note = IJ;
rightKerningGroup = JSerif;
rightMetricsKey = J;
unicode = 0132;
},
{
glyphname = J;
lastChange = "2020-05-15 12:35:45 +0000";
layers = (
{
layerId = "5117E3E8-E17C-4812-BAF5-9E7064564A59";
paths = (
{
closed = 1;
nodes = (
"228 584 LINE",
"356 584 LINE",
"356 210 LINE SMOOTH",
"356 146 OFFCURVE",
"322 110 OFFCURVE",
"263 110 CURVE SMOOTH",
"200 110 OFFCURVE",
"164 147 OFFCURVE",
"164 210 CURVE SMOOTH",
"164 276 LINE",
"32 276 LINE",
"32 210 LINE SMOOTH",
"32 69 OFFCURVE",
"123 -14 OFFCURVE",
"267 -14 CURVE SMOOTH",
"404 -14 OFFCURVE",
"488 65 OFFCURVE",
"488 210 CURVE SMOOTH",
"488 584 LINE",
"568 584 LINE",
"568 700 LINE",
"228 700 LINE"
);
}
);
width = 610;
},
{
layerId = "CEFBB1E5-951F-4065-926E-8B9137F837F5";
paths = (
{
closed = 1;
nodes = (
"279 644 LINE",
"403 644 LINE",
"403 210 LINE SMOOTH",
"403 113 OFFCURVE",
"368 44 OFFCURVE",
"262 44 CURVE SMOOTH",
"158 44 OFFCURVE",
"108 112 OFFCURVE",
"108 210 CURVE SMOOTH",
"108 259 LINE",
"44 259 LINE",
"44 210 LINE SMOOTH",
"44 64 OFFCURVE",
"127 -14 OFFCURVE",
"261 -14 CURVE SMOOTH",
"398 -14 OFFCURVE",
"467 65 OFFCURVE",
"467 210 CURVE SMOOTH",
"467 644 LINE",
"538 644 LINE",
"538 700 LINE",
"279 700 LINE"
);
}
);
width = 587;
}
);
leftKerningGroup = J;
note = J;
rightKerningGroup = JSerif;
unicode = 004A;
},
{
glyphname = K;
lastChange = "2020-05-15 12:35:45 +0000";
layers = (
{
anchors = (
{
name = bottom;
position = "{311, 0}";
}
);
layerId = "5117E3E8-E17C-4812-BAF5-9E7064564A59";
paths = (
{
closed = 1;
nodes = (
"198 0 LINE",
"198 284 LINE",
"216 284 LINE",
"448 0 LINE",
"622 0 LINE",
"320 355 LINE",
"612 700 LINE",
"443 700 LINE",
"216 422 LINE",
"198 422 LINE",
"198 700 LINE",
"66 700 LINE",
"66 0 LINE"
);
}
);
width = 626;
},
{
anchors = (
{
name = bottom;
position = "{311, 0}";
}
);
layerId = "CEFBB1E5-951F-4065-926E-8B9137F837F5";
paths = (
{
closed = 1;
nodes = (
"149 0 LINE",
"149 323 LINE",
"160 323 LINE",
"498 0 LINE",
"587 0 LINE",
"210 353 LINE",
"574 700 LINE",
"485 700 LINE",
"160 384 LINE",
"149 384 LINE",
"149 700 LINE",
"85 700 LINE",
"85 0 LINE"
);
}
);
width = 602;
}
);
leftKerningGroup = H;
leftMetricsKey = I;
note = K;
rightKerningGroup = K;
unicode = 004B;
},
{
glyphname = L;
lastChange = "2020-05-15 12:35:45 +0000";
layers = (
{
anchors = (
{
name = bottom;
position = "{292, 0}";
},
{
name = caron;
position = "{198, 700}";
},
{
name = sidecaron;
position = "{198, 700}";
},
{
name = top;
position = "{132, 700}";
}
);
layerId = "5117E3E8-E17C-4812-BAF5-9E7064564A59";
paths = (
{
closed = 1;
nodes = (
"66 0 LINE",
"518 0 LINE",
"518 120 LINE",
"198 120 LINE",
"198 700 LINE",
"66 700 LINE"
);
}
);
width = 542;
},
{
anchors = (
{
name = bottom;
position = "{310, 0}";
},
{
name = caron;
position = "{148, 700}";
},
{
name = sidecaron;
position = "{149, 700}";
},
{
name = top;
position = "{116, 700}";
}
);
layerId = "CEFBB1E5-951F-4065-926E-8B9137F837F5";
paths = (
{
closed = 1;
nodes = (
"85 0 LINE",
"518 0 LINE",
"518 57 LINE",
"149 57 LINE",
"149 700 LINE",
"85 700 LINE"
);
}
);
width = 546;
}
);
leftKerningGroup = H;
leftMetricsKey = I;
note = L;
rightKerningGroup = L;
unicode = 004C;
},
{
glyphname = Lslash;
lastChange = "2020-05-15 12:35:45 +0000";
layers = (
{
layerId = "5117E3E8-E17C-4812-BAF5-9E7064564A59";
paths = (
{
closed = 1;
nodes = (
"136 0 LINE",
"588 0 LINE",
"588 120 LINE",
"268 120 LINE",
"268 700 LINE",
"136 700 LINE"
);
},
{
closed = 1;
nodes = (
"48 221 LINE",
"396 393 LINE",
"356 474 LINE",
"8 302 LINE"
);
}
);
width = 612;
},
{
layerId = "CEFBB1E5-951F-4065-926E-8B9137F837F5";
paths = (
{
closed = 1;
nodes = (
"134 0 LINE",
"567 0 LINE",
"567 57 LINE",
"198 57 LINE",
"198 700 LINE",
"134 700 LINE"
);
},
{
closed = 1;
nodes = (
"44 248 LINE",
"312 393 LINE",
"289 437 LINE",
"20 292 LINE"
);
}
);
width = 595;
}
);
note = Lslash;
rightKerningGroup = L;
rightMetricsKey = L;
unicode = 0141;
},
{
glyphname = M;
lastChange = "2020-05-15 12:35:45 +0000";
layers = (
{
layerId = "5117E3E8-E17C-4812-BAF5-9E7064564A59";
paths = (
{
closed = 1;
nodes = (
"66 0 LINE",
"194 0 LINE",
"194 603 LINE",
"212 603 LINE",
"332 0 LINE",
"550 0 LINE",
"670 603 LINE",
"688 603 LINE",
"688 0 LINE",
"816 0 LINE",
"816 700 LINE",
"571 700 LINE",
"450 90 LINE",
"432 90 LINE",
"311 700 LINE",
"66 700 LINE"
);
}
);
width = 882;
},
{
layerId = "CEFBB1E5-951F-4065-926E-8B9137F837F5";
paths = (
{
closed = 1;
nodes = (
"85 0 LINE",
"149 0 LINE",
"149 662 LINE",
"160 662 LINE",
"372 0 LINE",
"487 0 LINE",
"700 662 LINE",
"711 662 LINE",
"711 0 LINE",
"774 0 LINE",
"774 700 LINE",
"648 700 LINE",
"435 38 LINE",
"424 38 LINE",
"211 700 LINE",
"85 700 LINE"
);
}
);
width = 859;
}
);
leftKerningGroup = H;
leftMetricsKey = I;
note = M;
rightKerningGroup = H;
rightMetricsKey = I;
unicode = 004D;
},
{
glyphname = N;
lastChange = "2020-05-15 12:35:45 +0000";
layers = (
{
anchors = (
{
name = bottom;
position = "{336, 0}";
},
{
name = top;
position = "{334, 700}";
}
);
layerId = "5117E3E8-E17C-4812-BAF5-9E7064564A59";
paths = (
{
closed = 1;
nodes = (
"66 0 LINE",
"198 0 LINE",
"198 610 LINE",
"216 610 LINE",
"353 0 LINE",
"604 0 LINE",
"604 700 LINE",
"472 700 LINE",
"472 90 LINE",
"454 90 LINE",
"317 700 LINE",
"66 700 LINE"
);
}
);
width = 670;
},
{
anchors = (
{
name = bottom;
position = "{333, 0}";
},
{
name = top;
position = "{334, 700}";
}
);
layerId = "CEFBB1E5-951F-4065-926E-8B9137F837F5";
paths = (
{
closed = 1;
nodes = (
"85 0 LINE",
"149 0 LINE",
"149 663 LINE",
"160 663 LINE",
"448 0 LINE",
"574 0 LINE",
"574 700 LINE",
"511 700 LINE",
"511 38 LINE",
"500 38 LINE",
"211 700 LINE",
"85 700 LINE"
);
}
);
width = 659;
}
);
leftKerningGroup = H;
leftMetricsKey = I;
note = N;
rightKerningGroup = H;
rightMetricsKey = I;
unicode = 004E;
},
{
glyphname = Eng;
lastChange = "2020-05-15 12:35:45 +0000";
layers = (
{
layerId = "5117E3E8-E17C-4812-BAF5-9E7064564A59";
paths = (
{
closed = 1;
nodes = (
"66 0 LINE",
"198 0 LINE",
"198 610 LINE",
"216 610 LINE",
"353 0 LINE",
"604 0 LINE",
"604 700 LINE",
"472 700 LINE",
"472 90 LINE",
"454 90 LINE",
"317 700 LINE",
"66 700 LINE"
);
},
{
closed = 1;
nodes = (
"476 0 LINE",
"476 -66 LINE SMOOTH",
"476 -86 OFFCURVE",
"466 -96 OFFCURVE",
"448 -96 CURVE SMOOTH",
"354 -96 LINE",
"354 -200 LINE",
"494 -200 LINE SMOOTH",
"560 -200 OFFCURVE",
"604 -157 OFFCURVE",
"604 -88 CURVE SMOOTH",
"604 0 LINE"
);
}
);
width = 670;
},
{
layerId = "CEFBB1E5-951F-4065-926E-8B9137F837F5";
paths = (
{
closed = 1;
nodes = (
"85 0 LINE",
"149 0 LINE",
"149 663 LINE",
"160 663 LINE",
"445 0 LINE",
"571 0 LINE",
"571 700 LINE",
"507 700 LINE",
"507 38 LINE",
"496 38 LINE",
"211 700 LINE",
"85 700 LINE"
);
},
{
closed = 1;
nodes = (
"509 0 LINE",
"509 -117 LINE SMOOTH",
"509 -137 OFFCURVE",
"499 -147 OFFCURVE",
"481 -147 CURVE SMOOTH",
"372 -147 LINE",
"372 -200 LINE",
"501 -200 LINE SMOOTH",
"544 -200 OFFCURVE",
"571 -174 OFFCURVE",
"571 -128 CURVE SMOOTH",
"571 0 LINE"
);
}
);
width = 656;
}
);
leftKerningGroup = H;
leftMetricsKey = N;
note = Eng;
rightKerningGroup = H;
rightMetricsKey = N;
unicode = 014A;
},
{
glyphname = O;
lastChange = "2020-05-15 12:35:45 +0000";
layers = (
{
anchors = (
{
name = bottom;
position = "{338, 0}";
},
{
name = horn;
position = "{450, 700}";
},
{
name = top;
position = "{338, 700}";
}
);
layerId = "5117E3E8-E17C-4812-BAF5-9E7064564A59";
paths = (
{
closed = 1;
nodes = (
"50 266 LINE SMOOTH",
"50 86 OFFCURVE",
"162 -14 OFFCURVE",
"338 -14 CURVE SMOOTH",
"514 -14 OFFCURVE",
"626 86 OFFCURVE",
"626 266 CURVE SMOOTH",
"626 434 LINE SMOOTH",
"626 614 OFFCURVE",
"514 714 OFFCURVE",
"338 714 CURVE SMOOTH",
"162 714 OFFCURVE",
"50 614 OFFCURVE",
"50 434 CURVE SMOOTH"
);
},
{
closed = 1;
nodes = (
"182 534 OFFCURVE",
"240 596 OFFCURVE",
"338 596 CURVE SMOOTH",
"436 596 OFFCURVE",
"494 534 OFFCURVE",
"494 438 CURVE SMOOTH",
"494 262 LINE SMOOTH",
"494 166 OFFCURVE",
"436 104 OFFCURVE",
"338 104 CURVE SMOOTH",
"240 104 OFFCURVE",
"182 166 OFFCURVE",
"182 262 CURVE SMOOTH",
"182 438 LINE SMOOTH"
);
}
);
width = 676;
},
{
anchors = (
{
name = bottom;
position = "{335, 0}";
},
{
name = horn;
position = "{440, 700}";
},
{
name = top;
position = "{333, 700}";
}
);
layerId = "CEFBB1E5-951F-4065-926E-8B9137F837F5";
paths = (
{
closed = 1;
nodes = (
"64 271 LINE SMOOTH",
"64 84 OFFCURVE",
"169 -14 OFFCURVE",
"333 -14 CURVE SMOOTH",
"497 -14 OFFCURVE",
"602 84 OFFCURVE",
"602 271 CURVE SMOOTH",
"602 429 LINE SMOOTH",
"602 616 OFFCURVE",
"497 714 OFFCURVE",
"333 714 CURVE SMOOTH",
"169 714 OFFCURVE",
"64 616 OFFCURVE",
"64 429 CURVE SMOOTH"
);
},
{
closed = 1;
nodes = (
"128 573 OFFCURVE",
"203 657 OFFCURVE",
"333 657 CURVE SMOOTH",
"462 657 OFFCURVE",
"538 573 OFFCURVE",
"538 433 CURVE SMOOTH",
"538 267 LINE SMOOTH",
"538 128 OFFCURVE",
"462 43 OFFCURVE",
"333 43 CURVE SMOOTH",
"203 43 OFFCURVE",
"128 128 OFFCURVE",
"128 267 CURVE SMOOTH",
"128 433 LINE SMOOTH"
);
}
);
width = 666;
}
);
leftKerningGroup = O;
note = O;
rightKerningGroup = O;
unicode = 004F;
},
{
glyphname = OE;
lastChange = "2020-05-15 12:35:45 +0000";
layers = (
{
layerId = "5117E3E8-E17C-4812-BAF5-9E7064564A59";
paths = (
{
closed = 1;
nodes = (
"370 118 LINE",
"227 118 OFFCURVE",
"182 184 OFFCURVE",
"182 296 CURVE SMOOTH",
"182 404 LINE SMOOTH",
"182 509 OFFCURVE",
"236 582 OFFCURVE",
"370 582 CURVE",
"370 700 LINE",
"169 700 OFFCURVE",
"50 588 OFFCURVE",
"50 394 CURVE SMOOTH",
"50 306 LINE SMOOTH",
"50 106 OFFCURVE",
"169 0 OFFCURVE",
"370 0 CURVE"
);
},
{
closed = 1;
nodes = (
"370 0 LINE",
"738 0 LINE",
"738 120 LINE",
"502 120 LINE",
"502 291 LINE",
"704 291 LINE",
"704 411 LINE",
"502 411 LINE",
"502 580 LINE",
"732 580 LINE",
"732 700 LINE",
"370 700 LINE"
);
}
);
width = 770;
},
{
layerId = "CEFBB1E5-951F-4065-926E-8B9137F837F5";
paths = (
{
closed = 1;
nodes = (
"382 55 LINE",
"211 55 OFFCURVE",
"128 150 OFFCURVE",
"128 308 CURVE SMOOTH",
"128 392 LINE SMOOTH",
"128 549 OFFCURVE",
"212 645 OFFCURVE",
"382 645 CURVE",
"382 700 LINE",
"181 700 OFFCURVE",
"64 592 OFFCURVE",
"64 385 CURVE SMOOTH",
"64 315 LINE SMOOTH",
"64 108 OFFCURVE",
"181 0 OFFCURVE",
"382 0 CURVE"
);
},
{
closed = 1;
nodes = (
"382 0 LINE",
"733 0 LINE",
"733 57 LINE",
"446 57 LINE",
"446 323 LINE",
"701 323 LINE",
"701 380 LINE",
"446 380 LINE",
"446 643 LINE",
"729 643 LINE",
"729 700 LINE",
"382 700 LINE"
);
}
);
width = 786;
}
);
leftKerningGroup = O;
leftMetricsKey = O;
note = OE;
rightKerningGroup = E;
rightMetricsKey = E;
unicode = 0152;
},
{
glyphname = P;
lastChange = "2020-05-15 12:35:45 +0000";
layers = (
{
layerId = "5117E3E8-E17C-4812-BAF5-9E7064564A59";
paths = (
{
closed = 1;
nodes = (
"66 0 LINE",
"198 0 LINE",
"198 256 LINE",
"354 256 LINE SMOOTH",
"482 256 OFFCURVE",
"578 340 OFFCURVE",
"578 471 CURVE SMOOTH",
"578 485 LINE SMOOTH",
"578 616 OFFCURVE",
"486 700 OFFCURVE",
"354 700 CURVE SMOOTH",
"66 700 LINE"
);
},
{
closed = 1;
nodes = (
"341 580 LINE SMOOTH",
"404 580 OFFCURVE",
"446 543 OFFCURVE",
"446 483 CURVE SMOOTH",
"446 473 LINE SMOOTH",
"446 413 OFFCURVE",
"403 376 OFFCURVE",
"341 376 CURVE SMOOTH",
"198 376 LINE",
"198 580 LINE"
);
}
);
width = 604;
},
{
layerId = "CEFBB1E5-951F-4065-926E-8B9137F837F5";
paths = (
{
closed = 1;
nodes = (
"85 0 LINE",
"149 0 LINE",
"149 293 LINE",
"344 293 LINE SMOOTH",
"465 293 OFFCURVE",
"562 365 OFFCURVE",
"562 491 CURVE SMOOTH",
"562 502 LINE SMOOTH",
"562 628 OFFCURVE",
"467 700 OFFCURVE",
"344 700 CURVE SMOOTH",
"85 700 LINE"
);
},
{
closed = 1;
nodes = (
"337 643 LINE SMOOTH",
"439 643 OFFCURVE",
"499 592 OFFCURVE",
"499 501 CURVE SMOOTH",
"499 492 LINE SMOOTH",
"499 401 OFFCURVE",
"437 350 OFFCURVE",
"337 350 CURVE SMOOTH",
"149 350 LINE",
"149 643 LINE"
);
}
);
width = 599;
}
);
leftKerningGroup = H;
leftMetricsKey = I;
note = P;
rightKerningGroup = P;
unicode = 0050;
},
{
glyphname = Thorn;
lastChange = "2020-05-15 12:35:45 +0000";
layers = (
{
layerId = "5117E3E8-E17C-4812-BAF5-9E7064564A59";
paths = (
{
closed = 1;
nodes = (
"198 700 LINE",
"66 700 LINE",
"66 0 LINE",
"198 0 LINE"
);
},
{
closed = 1;
nodes = (
"198 460 LINE",
"341 460 LINE SMOOTH",
"404 460 OFFCURVE",
"446 423 OFFCURVE",
"446 363 CURVE SMOOTH",
"446 353 LINE SMOOTH",
"446 293 OFFCURVE",
"403 256 OFFCURVE",
"341 256 CURVE SMOOTH",
"198 256 LINE",
"198 136 LINE",
"354 136 LINE SMOOTH",
"482 136 OFFCURVE",
"578 220 OFFCURVE",
"578 351 CURVE SMOOTH",
"578 365 LINE SMOOTH",
"578 496 OFFCURVE",
"486 580 OFFCURVE",
"354 580 CURVE SMOOTH",
"198 580 LINE"
);
}
);
width = 604;
},
{
layerId = "CEFBB1E5-951F-4065-926E-8B9137F837F5";
paths = (
{
closed = 1;
nodes = (
"149 700 LINE",
"85 700 LINE",
"85 0 LINE",
"149 0 LINE"
);
},
{
closed = 1;
nodes = (
"149 506 LINE",
"337 506 LINE SMOOTH",
"439 506 OFFCURVE",
"499 455 OFFCURVE",
"499 364 CURVE SMOOTH",
"499 356 LINE SMOOTH",
"499 264 OFFCURVE",
"437 213 OFFCURVE",
"337 213 CURVE SMOOTH",
"149 213 LINE",
"149 156 LINE",
"344 156 LINE SMOOTH",
"465 156 OFFCURVE",
"562 228 OFFCURVE",
"562 355 CURVE SMOOTH",
"562 365 LINE SMOOTH",
"562 492 OFFCURVE",
"467 563 OFFCURVE",
"344 563 CURVE SMOOTH",
"149 563 LINE"
);
}
);
width = 599;
}
);
leftKerningGroup = H;
leftMetricsKey = I;
note = Thorn;
rightMetricsKey = P;
unicode = 00DE;
},
{
glyphname = Q;
lastChange = "2020-05-15 12:35:45 +0000";
layers = (
{
layerId = "5117E3E8-E17C-4812-BAF5-9E7064564A59";
paths = (
{
closed = 1;
nodes = (
"50 266 LINE SMOOTH",
"50 86 OFFCURVE",
"162 -14 OFFCURVE",
"338 -14 CURVE SMOOTH",
"514 -14 OFFCURVE",
"626 86 OFFCURVE",
"626 266 CURVE SMOOTH",
"626 434 LINE SMOOTH",
"626 614 OFFCURVE",
"514 714 OFFCURVE",
"338 714 CURVE SMOOTH",
"162 714 OFFCURVE",
"50 614 OFFCURVE",
"50 434 CURVE SMOOTH"
);
},
{
closed = 1;
nodes = (
"182 534 OFFCURVE",
"240 596 OFFCURVE",
"338 596 CURVE SMOOTH",
"436 596 OFFCURVE",
"494 534 OFFCURVE",
"494 438 CURVE SMOOTH",
"494 262 LINE SMOOTH",
"494 166 OFFCURVE",
"436 104 OFFCURVE",
"338 104 CURVE SMOOTH",
"240 104 OFFCURVE",
"182 166 OFFCURVE",
"182 262 CURVE SMOOTH",
"182 438 LINE SMOOTH"
);
},
{
closed = 1;
nodes = (
"274 -68 LINE SMOOTH",
"274 -136 OFFCURVE",
"318 -180 OFFCURVE",
"384 -180 CURVE SMOOTH",
"489 -180 LINE",
"489 -78 LINE",
"430 -78 LINE SMOOTH",
"412 -78 OFFCURVE",
"402 -68 OFFCURVE",
"402 -48 CURVE SMOOTH",
"402 0 LINE",
"274 0 LINE"
);
}
);
width = 676;
},
{
layerId = "CEFBB1E5-951F-4065-926E-8B9137F837F5";
paths = (
{
closed = 1;
nodes = (
"64 271 LINE SMOOTH",
"64 84 OFFCURVE",
"169 -14 OFFCURVE",
"333 -14 CURVE SMOOTH",
"497 -14 OFFCURVE",
"602 84 OFFCURVE",
"602 271 CURVE SMOOTH",
"602 429 LINE SMOOTH",
"602 616 OFFCURVE",
"497 714 OFFCURVE",
"333 714 CURVE SMOOTH",
"169 714 OFFCURVE",
"64 616 OFFCURVE",
"64 429 CURVE SMOOTH"
);
},
{
closed = 1;
nodes = (
"128 573 OFFCURVE",
"203 657 OFFCURVE",
"333 657 CURVE SMOOTH",
"462 657 OFFCURVE",
"538 573 OFFCURVE",
"538 433 CURVE SMOOTH",
"538 267 LINE SMOOTH",
"538 128 OFFCURVE",
"462 43 OFFCURVE",
"333 43 CURVE SMOOTH",
"203 43 OFFCURVE",
"128 128 OFFCURVE",
"128 267 CURVE SMOOTH",
"128 433 LINE SMOOTH"
);
},
{
closed = 1;
nodes = (
"301 -82 LINE SMOOTH",
"301 -127 OFFCURVE",
"328 -154 OFFCURVE",
"371 -154 CURVE SMOOTH",
"461 -154 LINE",
"461 -99 LINE",
"392 -99 LINE SMOOTH",
"374 -99 OFFCURVE",
"364 -89 OFFCURVE",
"364 -69 CURVE SMOOTH",
"364 0 LINE",
"301 0 LINE"
);
}
);
width = 666;
}
);
leftKerningGroup = O;
leftMetricsKey = O;
note = Q;
rightKerningGroup = O;
rightMetricsKey = O;
unicode = 0051;
},
{
glyphname = R;
lastChange = "2020-05-15 12:35:45 +0000";
layers = (
{
anchors = (
{
name = bottom;
position = "{313, 0}";
},
{
name = top;
position = "{301, 700}";
}
);
layerId = "5117E3E8-E17C-4812-BAF5-9E7064564A59";
paths = (
{
closed = 1;
nodes = (
"66 0 LINE",
"198 0 LINE",
"198 264 LINE",
"382 264 LINE SMOOTH",
"421 264 OFFCURVE",
"436 242 OFFCURVE",
"436 210 CURVE SMOOTH",
"436 0 LINE",
"568 0 LINE",
"568 229 LINE SMOOTH",
"568 285 OFFCURVE",
"537 321 OFFCURVE",
"484 324 CURVE",
"484 342 LINE",
"543 366 OFFCURVE",
"588 417 OFFCURVE",
"588 501 CURVE SMOOTH",
"588 513 LINE SMOOTH",
"588 626 OFFCURVE",
"501 700 OFFCURVE",
"370 700 CURVE SMOOTH",
"66 700 LINE"
);
},
{
closed = 1;
nodes = (
"356 580 LINE SMOOTH",
"420 580 OFFCURVE",
"456 543 OFFCURVE",
"456 487 CURVE SMOOTH",
"456 477 LINE SMOOTH",
"456 421 OFFCURVE",
"418 384 OFFCURVE",
"356 384 CURVE SMOOTH",
"198 384 LINE",
"198 580 LINE"
);
}
);
width = 632;
},
{
anchors = (
{
name = bottom;
position = "{318, 0}";
},
{
name = top;
position = "{309, 700}";
}
);
layerId = "CEFBB1E5-951F-4065-926E-8B9137F837F5";
paths = (
{
closed = 1;
nodes = (
"85 0 LINE",
"149 0 LINE",
"149 297 LINE",
"415 297 LINE SMOOTH",
"462 297 OFFCURVE",
"485 274 OFFCURVE",
"485 231 CURVE SMOOTH",
"485 0 LINE",
"549 0 LINE",
"549 239 LINE SMOOTH",
"549 300 OFFCURVE",
"510 325 OFFCURVE",
"466 327 CURVE",
"466 339 LINE",
"527 356 OFFCURVE",
"581 408 OFFCURVE",
"581 503 CURVE SMOOTH",
"581 511 LINE SMOOTH",
"581 631 OFFCURVE",
"488 700 OFFCURVE",
"359 700 CURVE SMOOTH",
"85 700 LINE"
);
},
{
closed = 1;
nodes = (
"353 643 LINE SMOOTH",
"459 643 OFFCURVE",
"516 592 OFFCURVE",
"516 501 CURVE SMOOTH",
"516 496 LINE SMOOTH",
"516 405 OFFCURVE",
"457 354 OFFCURVE",
"353 354 CURVE SMOOTH",
"149 354 LINE",
"149 643 LINE"
);
}
);
width = 630;
}
);
leftKerningGroup = H;
leftMetricsKey = I;
note = R;
rightKerningGroup = R;
unicode = 0052;
},
{
glyphname = S;
lastChange = "2020-05-15 12:35:45 +0000";
layers = (
{
anchors = (
{
name = bottom;
position = "{315, 0}";
},
{
name = top;
position = "{301, 700}";
}
);
layerId = "5117E3E8-E17C-4812-BAF5-9E7064564A59";
paths = (
{
closed = 1;
nodes = (
"147 714 OFFCURVE",
"50 638 OFFCURVE",
"50 510 CURVE SMOOTH",
"50 382 OFFCURVE",
"135 333 OFFCURVE",
"280 301 CURVE SMOOTH",
"303 296 LINE SMOOTH",
"393 276 OFFCURVE",
"442 256 OFFCURVE",
"442 198 CURVE SMOOTH",
"442 142 OFFCURVE",
"397 102 OFFCURVE",
"307 102 CURVE SMOOTH",
"217 102 OFFCURVE",
"162 144 OFFCURVE",
"162 228 CURVE SMOOTH",
"162 256 LINE",
"32 256 LINE",
"32 228 LINE SMOOTH",
"32 76 OFFCURVE",
"145 -14 OFFCURVE",
"307 -14 CURVE SMOOTH",
"469 -14 OFFCURVE",
"572 74 OFFCURVE",
"572 202 CURVE SMOOTH",
"572 330 OFFCURVE",
"475 382 OFFCURVE",
"326 414 CURVE SMOOTH",
"303 419 LINE SMOOTH",
"219 437 OFFCURVE",
"180 462 OFFCURVE",
"180 514 CURVE SMOOTH",
"180 566 OFFCURVE",
"217 598 OFFCURVE",
"297 598 CURVE SMOOTH",
"377 598 OFFCURVE",
"426 566 OFFCURVE",
"426 486 CURVE SMOOTH",
"426 456 LINE",
"556 456 LINE",
"556 486 LINE SMOOTH",
"556 638 OFFCURVE",
"447 714 OFFCURVE",
"297 714 CURVE SMOOTH"
);
}
);
width = 606;
},
{
anchors = (
{
name = bottom;
position = "{319, 0}";
},
{
name = top;
position = "{306, 700}";
}
);
layerId = "CEFBB1E5-951F-4065-926E-8B9137F837F5";
paths = (
{
closed = 1;
nodes = (
"165 714 OFFCURVE",
"70 642 OFFCURVE",
"70 528 CURVE SMOOTH",
"70 414 OFFCURVE",
"153 366 OFFCURVE",
"268 339 CURVE SMOOTH",
"332 323 LINE SMOOTH",
"428 300 OFFCURVE",
"495 270 OFFCURVE",
"495 186 CURVE SMOOTH",
"495 102 OFFCURVE",
"428 43 OFFCURVE",
"312 43 CURVE SMOOTH",
"197 43 OFFCURVE",
"117 102 OFFCURVE",
"117 232 CURVE SMOOTH",
"117 251 LINE",
"53 251 LINE",
"53 232 LINE SMOOTH",
"53 66 OFFCURVE",
"163 -14 OFFCURVE",
"312 -14 CURVE SMOOTH",
"460 -14 OFFCURVE",
"558 65 OFFCURVE",
"558 186 CURVE SMOOTH",
"558 307 OFFCURVE",
"467 351 OFFCURVE",
"355 378 CURVE SMOOTH",
"292 394 LINE SMOOTH",
"195 417 OFFCURVE",
"134 444 OFFCURVE",
"134 529 CURVE SMOOTH",
"134 612 OFFCURVE",
"204 658 OFFCURVE",
"302 658 CURVE SMOOTH",
"404 658 OFFCURVE",
"483 612 OFFCURVE",
"483 503 CURVE SMOOTH",
"483 456 LINE",
"546 456 LINE",
"546 503 LINE SMOOTH",
"546 642 OFFCURVE",
"439 714 OFFCURVE",
"302 714 CURVE SMOOTH"
);
}
);
width = 615;
}
);
leftKerningGroup = S;
note = S;
rightKerningGroup = S;
unicode = 0053;
},
{
glyphname = Germandbls;
lastChange = "2020-05-15 12:35:45 +0000";
layers = (
{
layerId = "5117E3E8-E17C-4812-BAF5-9E7064564A59";
paths = (
{
closed = 1;
nodes = (
"194 0 LINE",
"194 420 LINE SMOOTH",
"194 543 OFFCURVE",
"267 584 OFFCURVE",
"334 584 CURVE SMOOTH",
"466 584 LINE",
"466 568 LINE",
"365 479 LINE SMOOTH",
"323 442 OFFCURVE",
"301 404 OFFCURVE",
"301 358 CURVE SMOOTH",
"301 311 OFFCURVE",
"326 269 OFFCURVE",
"381 245 CURVE SMOOTH",
"429 224 LINE SMOOTH",
"463 209 OFFCURVE",
"493 194 OFFCURVE",
"493 159 CURVE SMOOTH",
"493 127 OFFCURVE",
"469 104 OFFCURVE",
"430 104 CURVE SMOOTH",
"391 104 OFFCURVE",
"362 129 OFFCURVE",
"362 168 CURVE",
"228 168 LINE",
"228 61 OFFCURVE",
"305 -14 OFFCURVE",
"430 -14 CURVE SMOOTH",
"556 -14 OFFCURVE",
"623 60 OFFCURVE",
"623 161 CURVE SMOOTH",
"623 257 OFFCURVE",
"566 302 OFFCURVE",
"496 331 CURVE SMOOTH",
"455 348 LINE SMOOTH",
"440 354 OFFCURVE",
"433 360 OFFCURVE",
"433 373 CURVE SMOOTH",
"433 382 OFFCURVE",
"437 388 OFFCURVE",
"446 396 CURVE SMOOTH",
"600 536 LINE",
"600 700 LINE",
"334 700 LINE SMOOTH",
"173 700 OFFCURVE",
"62 596 OFFCURVE",
"62 416 CURVE SMOOTH",
"62 0 LINE"
);
}
);
width = 651;
},
{
layerId = "CEFBB1E5-951F-4065-926E-8B9137F837F5";
paths = (
{
closed = 1;
nodes = (
"145 0 LINE",
"145 452 LINE SMOOTH",
"145 590 OFFCURVE",
"220 644 OFFCURVE",
"322 644 CURVE SMOOTH",
"515 644 LINE",
"515 635 LINE",
"367 494 LINE SMOOTH",
"330 460 OFFCURVE",
"304 429 OFFCURVE",
"304 384 CURVE SMOOTH",
"304 336 OFFCURVE",
"328 305 OFFCURVE",
"387 277 CURVE SMOOTH",
"434 256 LINE SMOOTH",
"487 231 OFFCURVE",
"527 205 OFFCURVE",
"527 147 CURVE SMOOTH",
"527 90 OFFCURVE",
"481 43 OFFCURVE",
"413 43 CURVE SMOOTH",
"324 43 OFFCURVE",
"283 99 OFFCURVE",
"283 168 CURVE",
"219 168 LINE",
"219 60 OFFCURVE",
"294 -14 OFFCURVE",
"413 -14 CURVE SMOOTH",
"523 -14 OFFCURVE",
"587 58 OFFCURVE",
"587 147 CURVE SMOOTH",
"587 233 OFFCURVE",
"534 275 OFFCURVE",
"459 309 CURVE SMOOTH",
"415 330 LINE SMOOTH",
"385 344 OFFCURVE",
"364 357 OFFCURVE",
"364 387 CURVE SMOOTH",
"364 411 OFFCURVE",
"378 427 OFFCURVE",
"394 444 CURVE SMOOTH",
"574 615 LINE",
"574 700 LINE",
"322 700 LINE SMOOTH",
"177 700 OFFCURVE",
"81 617 OFFCURVE",
"81 448 CURVE SMOOTH",
"81 0 LINE"
);
}
);
width = 626;
}
);
leftMetricsKey = U;
note = uni1E9E;
unicode = 1E9E;
},
{
glyphname = T;
lastChange = "2020-05-15 12:35:45 +0000";
layers = (
{
anchors = (
{
name = bottom;
position = "{294, 0}";
},
{
name = strokeC;
position = "{294, 496}";
},
{
name = top;
position = "{294, 700}";
}
);
layerId = "5117E3E8-E17C-4812-BAF5-9E7064564A59";
paths = (
{
closed = 1;
nodes = (
"24 580 LINE",
"228 580 LINE",
"228 0 LINE",
"360 0 LINE",
"360 580 LINE",
"564 580 LINE",
"564 700 LINE",
"24 700 LINE"
);
}
);
width = 588;
},
{
anchors = (
{
name = bottom;
position = "{295, 0}";
},
{
name = strokeC;
position = "{294, 486}";
},
{
name = top;
position = "{294, 700}";
}
);
layerId = "CEFBB1E5-951F-4065-926E-8B9137F837F5";
paths = (
{
closed = 1;
nodes = (
"28 643 LINE",
"262 643 LINE",
"262 0 LINE",
"326 0 LINE",
"326 643 LINE",
"561 643 LINE",
"561 700 LINE",
"28 700 LINE"
);
}
);
width = 588;
}
);
leftKerningGroup = T;
note = T;
rightKerningGroup = T;
unicode = 0054;
},
{
glyphname = U;
lastChange = "2020-05-15 12:35:45 +0000";
layers = (
{
anchors = (
{
name = bottom;
position = "{336, 0}";
},
{
name = horn;
position = "{610, 700}";
},
{
name = ogonek;
position = "{424, 0}";
},
{
name = top;
position = "{336, 700}";
}
);
layerId = "5117E3E8-E17C-4812-BAF5-9E7064564A59";
paths = (
{
closed = 1;
nodes = (
"62 246 LINE SMOOTH",
"62 86 OFFCURVE",
"164 -14 OFFCURVE",
"336 -14 CURVE SMOOTH",
"508 -14 OFFCURVE",
"610 86 OFFCURVE",
"610 246 CURVE SMOOTH",
"610 700 LINE",
"478 700 LINE",
"478 242 LINE SMOOTH",
"478 156 OFFCURVE",
"428 104 OFFCURVE",
"336 104 CURVE SMOOTH",
"244 104 OFFCURVE",
"194 156 OFFCURVE",
"194 242 CURVE SMOOTH",
"194 700 LINE",
"62 700 LINE"
);
}
);
width = 672;
},
{
anchors = (
{
name = bottom;
position = "{335, 0}";
},
{
name = horn;
position = "{584, 700}";
},
{
name = ogonek;
position = "{400, 0}";
},
{
name = top;
position = "{333, 700}";
}
);
layerId = "CEFBB1E5-951F-4065-926E-8B9137F837F5";
paths = (
{
closed = 1;
nodes = (
"81 229 LINE SMOOTH",
"81 65 OFFCURVE",
"183 -14 OFFCURVE",
"333 -14 CURVE SMOOTH",
"482 -14 OFFCURVE",
"584 65 OFFCURVE",
"584 229 CURVE SMOOTH",
"584 700 LINE",
"520 700 LINE",
"520 229 LINE SMOOTH",
"520 104 OFFCURVE",
"451 43 OFFCURVE",
"333 43 CURVE SMOOTH",
"214 43 OFFCURVE",
"145 104 OFFCURVE",
"145 229 CURVE SMOOTH",
"145 700 LINE",
"81 700 LINE"
);
}
);
width = 665;
}
);
leftKerningGroup = U;
note = U;
rightKerningGroup = U;
unicode = 0055;
},
{
glyphname = V;
lastChange = "2020-05-15 12:35:45 +0000";
layers = (
{
layerId = "5117E3E8-E17C-4812-BAF5-9E7064564A59";
paths = (
{
closed = 1;
nodes = (
"194 0 LINE",
"420 0 LINE",
"598 700 LINE",
"462 700 LINE",
"314 85 LINE",
"300 85 LINE",
"152 700 LINE",
"16 700 LINE"
);
}
);
width = 614;
},
{
layerId = "CEFBB1E5-951F-4065-926E-8B9137F837F5";
paths = (
{
closed = 1;
nodes = (
"249 0 LINE",
"365 0 LINE",
"588 700 LINE",
"520 700 LINE",
"312 37 LINE",
"302 37 LINE",
"94 700 LINE",
"27 700 LINE"
);
}
);
width = 614;
}
);
leftKerningGroup = V;
note = V;
rightKerningGroup = V;
unicode = 0056;
},
{
glyphname = W;
lastChange = "2020-05-15 12:35:45 +0000";
layers = (
{
anchors = (
{
name = top;
position = "{449, 700}";
}
);
layerId = "5117E3E8-E17C-4812-BAF5-9E7064564A59";
paths = (
{
closed = 1;
nodes = (
"122 0 LINE",
"350 0 LINE",
"440 622 LINE",
"458 622 LINE",
"548 0 LINE",
"776 0 LINE",
"868 700 LINE",
"737 700 LINE",
"669 92 LINE",
"651 92 LINE",
"563 700 LINE",
"335 700 LINE",
"247 92 LINE",
"229 92 LINE",
"161 700 LINE",
"30 700 LINE"
);
}
);
width = 898;
},
{
anchors = (
{
name = top;
position = "{432, 700}";
}
);
layerId = "CEFBB1E5-951F-4065-926E-8B9137F837F5";
paths = (
{
closed = 1;
nodes = (
"163 0 LINE",
"283 0 LINE",
"427 664 LINE",
"438 664 LINE",
"582 0 LINE",
"702 0 LINE",
"824 700 LINE",
"759 700 LINE",
"647 38 LINE",
"636 38 LINE",
"492 700 LINE",
"373 700 LINE",
"229 38 LINE",
"218 38 LINE",
"106 700 LINE",
"41 700 LINE"
);
}
);
width = 865;
}
);
leftKerningGroup = W;
note = W;
rightKerningGroup = W;
unicode = 0057;
},
{
glyphname = X;
lastChange = "2020-05-15 12:35:45 +0000";
layers = (
{
layerId = "5117E3E8-E17C-4812-BAF5-9E7064564A59";
paths = (
{
closed = 1;
nodes = (
"227 353 LINE",
"22 0 LINE",
"172 0 LINE",
"313 259 LINE",
"331 259 LINE",
"472 0 LINE",
"622 0 LINE",
"417 353 LINE",
"620 700 LINE",
"470 700 LINE",
"331 447 LINE",
"313 447 LINE",
"174 700 LINE",
"24 700 LINE"
);
}
);
width = 644;
},
{
layerId = "CEFBB1E5-951F-4065-926E-8B9137F837F5";
paths = (
{
closed = 1;
nodes = (
"270 353 LINE",
"36 0 LINE",
"113 0 LINE",
"311 309 LINE",
"322 309 LINE",
"520 0 LINE",
"598 0 LINE",
"364 353 LINE",
"594 700 LINE",
"516 700 LINE",
"322 397 LINE",
"311 397 LINE",
"117 700 LINE",
"40 700 LINE"
);
}
);
width = 634;
}
);
leftKerningGroup = X;
note = X;
rightKerningGroup = X;
unicode = 0058;
},
{
glyphname = Y;
lastChange = "2020-05-15 12:35:45 +0000";
layers = (
{
anchors = (
{
name = bottom;
position = "{316, 0}";
},
{
name = top;
position = "{316, 700}";
}
);
layerId = "5117E3E8-E17C-4812-BAF5-9E7064564A59";
paths = (
{
closed = 1;
nodes = (
"250 247 LINE",
"250 0 LINE",
"382 0 LINE",
"382 247 LINE",
"628 700 LINE",
"480 700 LINE",
"325 397 LINE",
"307 397 LINE",
"152 700 LINE",
"4 700 LINE"
);
}
);
width = 632;
},
{
anchors = (
{
name = bottom;
position = "{304, 0}";
},
{
name = top;
position = "{304, 700}";
}
);
layerId = "CEFBB1E5-951F-4065-926E-8B9137F837F5";
paths = (
{
closed = 1;
nodes = (
"272 277 LINE",
"272 0 LINE",
"336 0 LINE",
"336 277 LINE",
"590 700 LINE",
"514 700 LINE",
"309 348 LINE",
"298 348 LINE",
"93 700 LINE",
"18 700 LINE"
);
}
);
width = 608;
}
);
leftKerningGroup = Y;
note = Y;
rightKerningGroup = Y;
unicode = 0059;
},
{
glyphname = Z;
lastChange = "2020-05-15 12:35:45 +0000";
layers = (
{
anchors = (
{
name = bottom;
position = "{289, 0}";
},
{
name = top;
position = "{293, 700}";
}
);
layerId = "5117E3E8-E17C-4812-BAF5-9E7064564A59";
paths = (
{
closed = 1;
nodes = (
"56 582 LINE",
"392 582 LINE",
"392 566 LINE",
"46 168 LINE",
"46 0 LINE",
"532 0 LINE",
"532 118 LINE",
"184 118 LINE",
"184 134 LINE",
"530 532 LINE",
"530 700 LINE",
"56 700 LINE"
);
}
);
width = 576;
},
{
anchors = (
{
name = bottom;
position = "{285, 0}";
},
{
name = top;
position = "{284, 700}";
}
);
layerId = "CEFBB1E5-951F-4065-926E-8B9137F837F5";
paths = (
{
closed = 1;
nodes = (
"65 643 LINE",
"463 643 LINE",
"463 634 LINE",
"53 87 LINE",
"53 0 LINE",
"531 0 LINE",
"531 57 LINE",
"112 57 LINE",
"112 66 LINE",
"522 613 LINE",
"522 700 LINE",
"65 700 LINE"
);
}
);
width = 580;
}
);
leftKerningGroup = Z;
note = Z;
rightKerningGroup = Z;
unicode = 005A;
},
{
glyphname = B.ss02;
lastChange = "2020-05-15 12:35:45 +0000";
layers = (
{
layerId = "5117E3E8-E17C-4812-BAF5-9E7064564A59";
paths = (
{
closed = 1;
nodes = (
"66 0 LINE",
"386 0 LINE SMOOTH",
"505 0 OFFCURVE",
"592 68 OFFCURVE",
"592 185 CURVE SMOOTH",
"592 195 LINE SMOOTH",
"592 295 OFFCURVE",
"525 334 OFFCURVE",
"481 346 CURVE",
"481 364 LINE",
"524 377 OFFCURVE",
"588 416 OFFCURVE",
"588 513 CURVE SMOOTH",
"588 523 LINE SMOOTH",
"588 632 OFFCURVE",
"504 700 OFFCURVE",
"382 700 CURVE SMOOTH",
"66 700 LINE"
);
},
{
closed = 1;
nodes = (
"370 292 LINE SMOOTH",
"428 292 OFFCURVE",
"466 263 OFFCURVE",
"466 211 CURVE SMOOTH",
"466 201 LINE SMOOTH",
"466 149 OFFCURVE",
"427 120 OFFCURVE",
"370 120 CURVE SMOOTH",
"198 120 LINE",
"198 292 LINE"
);
},
{
closed = 1;
nodes = (
"368 580 LINE SMOOTH",
"424 580 OFFCURVE",
"462 551 OFFCURVE",
"462 501 CURVE SMOOTH",
"462 491 LINE SMOOTH",
"462 441 OFFCURVE",
"423 412 OFFCURVE",
"368 412 CURVE SMOOTH",
"198 412 LINE",
"198 580 LINE"
);
}
);
width = 634;
},
{
layerId = "CEFBB1E5-951F-4065-926E-8B9137F837F5";
paths = (
{
closed = 1;
nodes = (
"85 0 LINE",
"363 0 LINE SMOOTH",
"482 0 OFFCURVE",
"573 68 OFFCURVE",
"573 182 CURVE SMOOTH",
"573 192 LINE SMOOTH",
"573 290 OFFCURVE",
"508 334 OFFCURVE",
"456 348 CURVE",
"456 359 LINE",
"507 374 OFFCURVE",
"572 419 OFFCURVE",
"572 517 CURVE SMOOTH",
"572 525 LINE SMOOTH",
"572 629 OFFCURVE",
"487 700 OFFCURVE",
"366 700 CURVE SMOOTH",
"85 700 LINE"
);
},
{
closed = 1;
nodes = (
"358 324 LINE SMOOTH",
"458 324 OFFCURVE",
"510 274 OFFCURVE",
"510 194 CURVE SMOOTH",
"510 186 LINE SMOOTH",
"510 107 OFFCURVE",
"458 57 OFFCURVE",
"358 57 CURVE SMOOTH",
"149 57 LINE",
"149 324 LINE"
);
},
{
closed = 1;
nodes = (
"361 643 LINE SMOOTH",
"454 643 OFFCURVE",
"509 592 OFFCURVE",
"509 517 CURVE SMOOTH",
"509 507 LINE SMOOTH",
"509 431 OFFCURVE",
"454 381 OFFCURVE",
"361 381 CURVE SMOOTH",
"149 381 LINE",
"149 643 LINE"
);
}
);
width = 631;
}
);
leftKerningGroup = H;
leftMetricsKey = I;
note = B.alt;
rightKerningGroup = B;
rightMetricsKey = B;
},
{
glyphname = D.ss02;
lastChange = "2020-05-15 12:35:45 +0000";
layers = (
{
anchors = (
{
name = stroke;
position = "{66, 496}";
},
{
name = top;
position = "{301, 700}";
}
);
layerId = "5117E3E8-E17C-4812-BAF5-9E7064564A59";
paths = (
{
closed = 1;
nodes = (
"66 0 LINE",
"306 0 LINE SMOOTH",
"494 0 OFFCURVE",
"594 96 OFFCURVE",
"594 284 CURVE SMOOTH",
"594 416 LINE SMOOTH",
"594 604 OFFCURVE",
"494 700 OFFCURVE",
"306 700 CURVE SMOOTH",
"66 700 LINE"
);
},
{
closed = 1;
nodes = (
"308 580 LINE SMOOTH",
"414 580 OFFCURVE",
"462 522 OFFCURVE",
"462 420 CURVE SMOOTH",
"462 280 LINE SMOOTH",
"462 178 OFFCURVE",
"414 120 OFFCURVE",
"308 120 CURVE SMOOTH",
"198 120 LINE",
"198 580 LINE"
);
}
);
width = 644;
},
{
anchors = (
{
name = stroke;
position = "{85, 486}";
},
{
name = top;
position = "{294, 700}";
}
);
layerId = "CEFBB1E5-951F-4065-926E-8B9137F837F5";
paths = (
{
closed = 1;
nodes = (
"85 0 LINE",
"289 0 LINE SMOOTH",
"471 0 OFFCURVE",
"578 91 OFFCURVE",
"578 287 CURVE SMOOTH",
"578 413 LINE SMOOTH",
"578 609 OFFCURVE",
"471 700 OFFCURVE",
"289 700 CURVE SMOOTH",
"85 700 LINE"
);
},
{
closed = 1;
nodes = (
"289 643 LINE SMOOTH",
"434 643 OFFCURVE",
"515 575 OFFCURVE",
"515 417 CURVE SMOOTH",
"515 284 LINE SMOOTH",
"515 126 OFFCURVE",
"438 57 OFFCURVE",
"289 57 CURVE SMOOTH",
"149 57 LINE",
"149 643 LINE"
);
}
);
width = 642;
}
);
leftKerningGroup = H;
leftMetricsKey = I;
note = D.alt;
rightKerningGroup = O;
rightMetricsKey = O;
},
{
glyphname = IJ.ss02;
lastChange = "2020-05-15 12:35:45 +0000";
layers = (
{
layerId = "5117E3E8-E17C-4812-BAF5-9E7064564A59";
paths = (
{
closed = 1;
nodes = (
"62 342 LINE",
"194 342 LINE",
"194 700 LINE",
"62 700 LINE"
);
},
{
closed = 1;
nodes = (
"390 210 LINE SMOOTH",
"390 146 OFFCURVE",
"356 110 OFFCURVE",
"295 110 CURVE SMOOTH",
"230 110 OFFCURVE",
"194 147 OFFCURVE",
"194 210 CURVE SMOOTH",
"194 246 LINE",
"62 246 LINE",
"62 210 LINE SMOOTH",
"62 69 OFFCURVE",
"153 -14 OFFCURVE",
"299 -14 CURVE SMOOTH",
"438 -14 OFFCURVE",
"522 65 OFFCURVE",
"522 210 CURVE SMOOTH",
"522 700 LINE",
"390 700 LINE"
);
}
);
width = 584;
},
{
layerId = "CEFBB1E5-951F-4065-926E-8B9137F837F5";
paths = (
{
closed = 1;
nodes = (
"81 370 LINE",
"145 370 LINE",
"145 700 LINE",
"81 700 LINE"
);
},
{
closed = 1;
nodes = (
"441 210 LINE SMOOTH",
"441 113 OFFCURVE",
"406 44 OFFCURVE",
"299 44 CURVE SMOOTH",
"195 44 OFFCURVE",
"145 112 OFFCURVE",
"145 210 CURVE SMOOTH",
"145 229 LINE",
"81 229 LINE",
"81 210 LINE SMOOTH",
"81 64 OFFCURVE",
"164 -14 OFFCURVE",
"298 -14 CURVE SMOOTH",
"435 -14 OFFCURVE",
"505 65 OFFCURVE",
"505 210 CURVE SMOOTH",
"505 700 LINE",
"441 700 LINE"
);
}
);
width = 586;
}
);
leftKerningGroup = U;
leftMetricsKey = U;
note = IJ;
rightKerningGroup = U;
rightMetricsKey = U;
},
{
glyphname = J.ss02;
lastChange = "2020-05-15 12:35:45 +0000";
layers = (
{
layerId = "5117E3E8-E17C-4812-BAF5-9E7064564A59";
paths = (
{
closed = 1;
nodes = (
"356 700 LINE",
"356 210 LINE SMOOTH",
"356 144 OFFCURVE",
"322 106 OFFCURVE",
"263 106 CURVE SMOOTH",
"200 106 OFFCURVE",
"164 145 OFFCURVE",
"164 210 CURVE SMOOTH",
"164 276 LINE",
"32 276 LINE",
"32 210 LINE SMOOTH",
"32 69 OFFCURVE",
"123 -14 OFFCURVE",
"267 -14 CURVE SMOOTH",
"404 -14 OFFCURVE",
"488 65 OFFCURVE",
"488 210 CURVE SMOOTH",
"488 700 LINE"
);
}
);
width = 550;
},
{
layerId = "CEFBB1E5-951F-4065-926E-8B9137F837F5";
paths = (
{
closed = 1;
nodes = (
"403 700 LINE",
"403 210 LINE SMOOTH",
"403 113 OFFCURVE",
"368 43 OFFCURVE",
"262 43 CURVE SMOOTH",
"158 43 OFFCURVE",
"108 112 OFFCURVE",
"108 210 CURVE SMOOTH",
"108 259 LINE",
"44 259 LINE",
"44 210 LINE SMOOTH",
"44 64 OFFCURVE",
"127 -14 OFFCURVE",
"261 -14 CURVE SMOOTH",
"398 -14 OFFCURVE",
"467 65 OFFCURVE",
"467 210 CURVE SMOOTH",
"467 700 LINE"
);
}
);
width = 548;
}
);
leftKerningGroup = J;
leftMetricsKey = J;
note = J;
rightKerningGroup = U;
rightMetricsKey = U;
},
{
glyphname = I.ss03;
lastChange = "2020-05-15 12:35:45 +0000";
layers = (
{
anchors = (
{
name = bottom;
position = "{222, 0}";
},
{
name = ogonek;
position = "{222, 0}";
},
{
name = top;
position = "{222, 700}";
}
);
layerId = "5117E3E8-E17C-4812-BAF5-9E7064564A59";
paths = (
{
closed = 1;
nodes = (
"46 584 LINE",
"156 584 LINE",
"156 116 LINE",
"46 116 LINE",
"46 0 LINE",
"398 0 LINE",
"398 116 LINE",
"288 116 LINE",
"288 584 LINE",
"398 584 LINE",
"398 700 LINE",
"46 700 LINE"
);
}
);
width = 444;
},
{
anchors = (
{
name = bottom;
position = "{198, 0}";
},
{
name = ogonek;
position = "{198, 0}";
},
{
name = top;
position = "{198, 700}";
}
);
layerId = "CEFBB1E5-951F-4065-926E-8B9137F837F5";
paths = (
{
closed = 1;
nodes = (
"48 644 LINE",
"167 644 LINE",
"167 57 LINE",
"48 57 LINE",
"48 0 LINE",
"349 0 LINE",
"349 57 LINE",
"230 57 LINE",
"230 644 LINE",
"349 644 LINE",
"349 700 LINE",
"48 700 LINE"
);
}
);
width = 397;
}
);
leftKerningGroup = Serif;
note = I;
rightKerningGroup = Serif;
},
{
glyphname = a;
lastChange = "2020-05-15 12:35:45 +0000";
layers = (
{
anchors = (
{
name = bottom;
position = "{276, 0}";
},
{
name = ogonek;
position = "{468, 0}";
},
{
name = top;
position = "{280, 496}";
}
);
layerId = "5117E3E8-E17C-4812-BAF5-9E7064564A59";
paths = (
{
closed = 1;
nodes = (
"174 331 LINE",
"183 376 OFFCURVE",
"211 408 OFFCURVE",
"274 408 CURVE SMOOTH",
"338 408 OFFCURVE",
"366 374 OFFCURVE",
"366 328 CURVE SMOOTH",
"366 300 LINE",
"230 300 LINE SMOOTH",
"118 300 OFFCURVE",
"38 247 OFFCURVE",
"38 145 CURVE SMOOTH",
"38 43 OFFCURVE",
"118 -14 OFFCURVE",
"224 -14 CURVE SMOOTH",
"328 -14 OFFCURVE",
"359 42 OFFCURVE",
"368 67 CURVE",
"488 67 LINE",
"488 319 LINE SMOOTH",
"488 443 OFFCURVE",
"406 510 OFFCURVE",
"276 510 CURVE SMOOTH",
"147 510 OFFCURVE",
"82 445 OFFCURVE",
"58 370 CURVE"
);
},
{
closed = 1;
nodes = (
"164 185 OFFCURVE",
"192 206 OFFCURVE",
"239 206 CURVE SMOOTH",
"366 206 LINE",
"366 196 LINE SMOOTH",
"366 130 OFFCURVE",
"316 88 OFFCURVE",
"246 88 CURVE SMOOTH",
"192 88 OFFCURVE",
"164 113 OFFCURVE",
"164 149 CURVE SMOOTH"
);
},
{
closed = 1;
nodes = (
"384 162 LINE",
"384 92 LINE SMOOTH",
"384 36 OFFCURVE",
"418 0 OFFCURVE",
"472 0 CURVE SMOOTH",
"556 0 LINE",
"556 104 LINE",
"516 104 LINE SMOOTH",
"498 104 OFFCURVE",
"488 114 OFFCURVE",
"488 134 CURVE SMOOTH",
"488 162 LINE"
);
}
);
width = 578;
},
{
anchors = (
{
name = bottom;
position = "{287, 0}";
},
{
name = ogonek;
position = "{475, 0}";
},
{
name = top;
position = "{279, 486}";
}
);
layerId = "CEFBB1E5-951F-4065-926E-8B9137F837F5";
paths = (
{
closed = 1;
nodes = (
"128 330 LINE",
"145 400 OFFCURVE",
"194 447 OFFCURVE",
"280 447 CURVE SMOOTH",
"367 447 OFFCURVE",
"413 399 OFFCURVE",
"413 321 CURVE SMOOTH",
"413 281 LINE",
"235 281 LINE SMOOTH",
"134 281 OFFCURVE",
"56 234 OFFCURVE",
"56 137 CURVE SMOOTH",
"56 40 OFFCURVE",
"134 -14 OFFCURVE",
"237 -14 CURVE SMOOTH",
"337 -14 OFFCURVE",
"381 31 OFFCURVE",
"407 76 CURVE",
"472 76 LINE",
"472 318 LINE SMOOTH",
"472 432 OFFCURVE",
"402 500 OFFCURVE",
"280 500 CURVE SMOOTH",
"159 500 OFFCURVE",
"93 432 OFFCURVE",
"70 347 CURVE"
);
},
{
closed = 1;
nodes = (
"115 200 OFFCURVE",
"167 230 OFFCURVE",
"236 230 CURVE SMOOTH",
"413 230 LINE",
"413 217 LINE SMOOTH",
"413 104 OFFCURVE",
"344 37 OFFCURVE",
"241 37 CURVE SMOOTH",
"167 37 OFFCURVE",
"115 75 OFFCURVE",
"115 138 CURVE SMOOTH"
);
},
{
closed = 1;
nodes = (
"417 96 LINE",
"417 69 LINE SMOOTH",
"417 26 OFFCURVE",
"443 0 OFFCURVE",
"484 0 CURVE SMOOTH",
"547 0 LINE",
"547 50 LINE",
"500 50 LINE SMOOTH",
"482 50 OFFCURVE",
"472 60 OFFCURVE",
"472 80 CURVE SMOOTH",
"472 96 LINE"
);
}
);
width = 574;
}
);
leftKerningGroup = a;
note = a.alt;
rightKerningGroup = a;
unicode = 0061;
},
{
glyphname = ae;
lastChange = "2020-05-15 12:35:45 +0000";
layers = (
{
anchors = (
{
name = top;
position = "{444, 496}";
}
);
layerId = "5117E3E8-E17C-4812-BAF5-9E7064564A59";
paths = (
{
closed = 1;
nodes = (
"164 331 LINE",
"177 375 OFFCURVE",
"209 408 OFFCURVE",
"270 408 CURVE SMOOTH",
"334 408 OFFCURVE",
"368 373 OFFCURVE",
"368 328 CURVE SMOOTH",
"368 299 LINE",
"234 299 LINE SMOOTH",
"118 299 OFFCURVE",
"38 246 OFFCURVE",
"38 144 CURVE SMOOTH",
"38 42 OFFCURVE",
"120 -14 OFFCURVE",
"236 -14 CURVE SMOOTH",
"353 -14 OFFCURVE",
"399 45 OFFCURVE",
"417 75 CURVE",
"445 75 LINE",
"436 260 LINE",
"458 442 LINE",
"430 442 LINE",
"398 482 OFFCURVE",
"351 510 OFFCURVE",
"270 510 CURVE SMOOTH",
"145 510 OFFCURVE",
"79 445 OFFCURVE",
"52 370 CURVE"
);
},
{
closed = 1;
nodes = (
"162 185 OFFCURVE",
"192 205 OFFCURVE",
"243 205 CURVE SMOOTH",
"368 205 LINE",
"368 198 LINE SMOOTH",
"368 132 OFFCURVE",
"320 88 OFFCURVE",
"250 88 CURVE SMOOTH",
"192 88 OFFCURVE",
"162 113 OFFCURVE",
"162 149 CURVE SMOOTH"
);
},
{
closed = 1;
nodes = (
"378 106 OFFCURVE",
"473 -14 OFFCURVE",
"615 -14 CURVE SMOOTH",
"726 -14 OFFCURVE",
"780 39 OFFCURVE",
"819 94 CURVE",
"726 161 LINE",
"708 132 OFFCURVE",
"677 96 OFFCURVE",
"609 96 CURVE SMOOTH",
"539 96 OFFCURVE",
"494 142 OFFCURVE",
"491 205 CURVE",
"832 205 LINE",
"832 266 LINE SMOOTH",
"832 400 OFFCURVE",
"751 510 OFFCURVE",
"607 510 CURVE SMOOTH",
"473 510 OFFCURVE",
"378 398 OFFCURVE",
"378 252 CURVE SMOOTH"
);
},
{
closed = 1;
nodes = (
"494 360 OFFCURVE",
"535 400 OFFCURVE",
"602 400 CURVE SMOOTH",
"665 400 OFFCURVE",
"706 362 OFFCURVE",
"708 299 CURVE",
"492 299 LINE"
);
}
);
width = 874;
},
{
anchors = (
{
name = top;
position = "{481, 486}";
}
);
layerId = "CEFBB1E5-951F-4065-926E-8B9137F837F5";
paths = (
{
closed = 1;
nodes = (
"126 332 LINE",
"145 401 OFFCURVE",
"198 446 OFFCURVE",
"286 446 CURVE SMOOTH",
"373 446 OFFCURVE",
"426 399 OFFCURVE",
"426 321 CURVE SMOOTH",
"426 278 LINE",
"243 278 LINE SMOOTH",
"136 278 OFFCURVE",
"56 232 OFFCURVE",
"56 135 CURVE SMOOTH",
"56 38 OFFCURVE",
"138 -14 OFFCURVE",
"250 -14 CURVE SMOOTH",
"366 -14 OFFCURVE",
"426 44 OFFCURVE",
"452 110 CURVE",
"477 110 LINE",
"462 253 LINE",
"484 397 LINE",
"463 397 LINE",
"438 460 OFFCURVE",
"376 500 OFFCURVE",
"286 500 CURVE SMOOTH",
"163 500 OFFCURVE",
"93 432 OFFCURVE",
"70 349 CURVE"
);
},
{
closed = 1;
nodes = (
"115 197 OFFCURVE",
"171 227 OFFCURVE",
"244 227 CURVE SMOOTH",
"426 227 LINE",
"426 217 LINE SMOOTH",
"426 103 OFFCURVE",
"355 37 OFFCURVE",
"252 37 CURVE SMOOTH",
"173 37 OFFCURVE",
"115 74 OFFCURVE",
"115 136 CURVE SMOOTH"
);
},
{
closed = 1;
nodes = (
"431 100 OFFCURVE",
"525 -14 OFFCURVE",
"671 -14 CURVE SMOOTH",
"788 -14 OFFCURVE",
"841 49 OFFCURVE",
"877 119 CURVE",
"825 146 LINE",
"799 89 OFFCURVE",
"757 40 OFFCURVE",
"670 40 CURVE SMOOTH",
"564 40 OFFCURVE",
"493 111 OFFCURVE",
"487 227 CURVE",
"887 227 LINE",
"887 263 LINE SMOOTH",
"887 410 OFFCURVE",
"796 500 OFFCURVE",
"662 500 CURVE SMOOTH",
"527 500 OFFCURVE",
"431 390 OFFCURVE",
"431 247 CURVE SMOOTH"
);
},
{
closed = 1;
nodes = (
"498 382 OFFCURVE",
"566 445 OFFCURVE",
"662 445 CURVE SMOOTH",
"758 445 OFFCURVE",
"822 387 OFFCURVE",
"826 278 CURVE",
"487 278 LINE"
);
}
);
width = 946;
}
);
leftKerningGroup = a;
leftMetricsKey = a;
note = ae;
rightKerningGroup = o;
rightMetricsKey = e;
unicode = 00E6;
},
{
glyphname = b;
lastChange = "2020-05-15 12:35:45 +0000";
layers = (
{
layerId = "5117E3E8-E17C-4812-BAF5-9E7064564A59";
paths = (
{
closed = 1;
nodes = (
"70 0 LINE",
"194 0 LINE",
"194 60 LINE",
"212 60 LINE",
"235 22 OFFCURVE",
"278 -14 OFFCURVE",
"368 -14 CURVE SMOOTH",
"487 -14 OFFCURVE",
"592 78 OFFCURVE",
"592 240 CURVE SMOOTH",
"592 256 LINE SMOOTH",
"592 418 OFFCURVE",
"488 510 OFFCURVE",
"368 510 CURVE SMOOTH",
"278 510 OFFCURVE",
"235 474 OFFCURVE",
"214 439 CURVE",
"196 439 LINE",
"196 700 LINE",
"70 700 LINE"
);
},
{
closed = 1;
nodes = (
"408 400 OFFCURVE",
"466 349 OFFCURVE",
"466 253 CURVE SMOOTH",
"466 243 LINE SMOOTH",
"466 147 OFFCURVE",
"407 96 OFFCURVE",
"330 96 CURVE SMOOTH",
"253 96 OFFCURVE",
"194 147 OFFCURVE",
"194 243 CURVE SMOOTH",
"194 253 LINE SMOOTH",
"194 349 OFFCURVE",
"252 400 OFFCURVE",
"330 400 CURVE SMOOTH"
);
}
);
width = 638;
},
{
layerId = "CEFBB1E5-951F-4065-926E-8B9137F837F5";
paths = (
{
closed = 1;
nodes = (
"88 0 LINE",
"145 0 LINE",
"145 87 LINE",
"156 87 LINE",
"185 36 OFFCURVE",
"240 -14 OFFCURVE",
"347 -14 CURVE SMOOTH",
"477 -14 OFFCURVE",
"580 82 OFFCURVE",
"580 237 CURVE SMOOTH",
"580 249 LINE SMOOTH",
"580 403 OFFCURVE",
"478 500 OFFCURVE",
"347 500 CURVE SMOOTH",
"240 500 OFFCURVE",
"185 450 OFFCURVE",
"158 401 CURVE",
"147 401 LINE",
"147 700 LINE",
"88 700 LINE"
);
},
{
closed = 1;
nodes = (
"444 446 OFFCURVE",
"519 371 OFFCURVE",
"519 247 CURVE SMOOTH",
"519 239 LINE SMOOTH",
"519 115 OFFCURVE",
"443 40 OFFCURVE",
"334 40 CURVE SMOOTH",
"226 40 OFFCURVE",
"147 115 OFFCURVE",
"147 239 CURVE SMOOTH",
"147 247 LINE SMOOTH",
"147 371 OFFCURVE",
"225 446 OFFCURVE",
"334 446 CURVE SMOOTH"
);
}
);
width = 643;
}
);
leftKerningGroup = l;
leftMetricsKey = l;
note = b;
rightKerningGroup = o;
rightMetricsKey = o;
unicode = 0062;
},
{
glyphname = c;
lastChange = "2020-05-15 12:35:45 +0000";
layers = (
{
anchors = (
{
name = bottom;
position = "{310, 0}";
},
{
name = top;
position = "{308, 496}";
}
);
layerId = "5117E3E8-E17C-4812-BAF5-9E7064564A59";
rightMetricsKey = "=o-12";
paths = (
{
closed = 1;
nodes = (
"46 241 LINE SMOOTH",
"46 79 OFFCURVE",
"160 -14 OFFCURVE",
"303 -14 CURVE SMOOTH",
"443 -14 OFFCURVE",
"526 68 OFFCURVE",
"552 176 CURVE",
"430 205 LINE",
"419 141 OFFCURVE",
"382 98 OFFCURVE",
"306 98 CURVE SMOOTH",
"231 98 OFFCURVE",
"172 149 OFFCURVE",
"172 243 CURVE SMOOTH",
"172 253 LINE SMOOTH",
"172 347 OFFCURVE",
"230 398 OFFCURVE",
"306 398 CURVE SMOOTH",
"382 398 OFFCURVE",
"419 352 OFFCURVE",
"426 292 CURVE",
"548 318 LINE",
"528 428 OFFCURVE",
"442 510 OFFCURVE",
"303 510 CURVE SMOOTH",
"159 510 OFFCURVE",
"46 417 OFFCURVE",
"46 255 CURVE SMOOTH"
);
}
);
width = 586;
},
{
anchors = (
{
name = bottom;
position = "{314, 0}";
},
{
name = top;
position = "{313, 486}";
}
);
layerId = "CEFBB1E5-951F-4065-926E-8B9137F837F5";
paths = (
{
closed = 1;
nodes = (
"64 238 LINE SMOOTH",
"64 83 OFFCURVE",
"170 -14 OFFCURVE",
"311 -14 CURVE SMOOTH",
"448 -14 OFFCURVE",
"523 73 OFFCURVE",
"543 171 CURVE",
"484 183 LINE",
"470 103 OFFCURVE",
"414 40 OFFCURVE",
"311 40 CURVE SMOOTH",
"205 40 OFFCURVE",
"125 117 OFFCURVE",
"125 239 CURVE SMOOTH",
"125 247 LINE SMOOTH",
"125 369 OFFCURVE",
"204 445 OFFCURVE",
"310 445 CURVE SMOOTH",
"409 445 OFFCURVE",
"471 383 OFFCURVE",
"481 303 CURVE",
"540 315 LINE",
"525 411 OFFCURVE",
"445 500 OFFCURVE",
"310 500 CURVE SMOOTH",
"169 500 OFFCURVE",
"64 403 OFFCURVE",
"64 248 CURVE SMOOTH"
);
}
);
width = 602;
}
);
leftKerningGroup = o;
leftMetricsKey = o;
note = c;
rightKerningGroup = o;
rightMetricsKey = "=o-4";
unicode = 0063;
},
{
glyphname = d;
lastChange = "2020-05-15 12:35:45 +0000";
layers = (
{
anchors = (
{
name = sidecaron;
position = "{568, 700}";
},
{
name = strokeB;
position = "{568, 496}";
}
);
layerId = "5117E3E8-E17C-4812-BAF5-9E7064564A59";
paths = (
{
closed = 1;
nodes = (
"442 700 LINE",
"442 439 LINE",
"424 439 LINE",
"403 474 OFFCURVE",
"360 510 OFFCURVE",
"270 510 CURVE SMOOTH",
"150 510 OFFCURVE",
"46 418 OFFCURVE",
"46 256 CURVE SMOOTH",
"46 240 LINE SMOOTH",
"46 78 OFFCURVE",
"151 -14 OFFCURVE",
"270 -14 CURVE SMOOTH",
"360 -14 OFFCURVE",
"403 22 OFFCURVE",
"426 60 CURVE",
"444 60 LINE",
"444 0 LINE",
"568 0 LINE",
"568 700 LINE"
);
},
{
closed = 1;
nodes = (
"386 400 OFFCURVE",
"444 349 OFFCURVE",
"444 253 CURVE SMOOTH",
"444 243 LINE SMOOTH",
"444 147 OFFCURVE",
"385 96 OFFCURVE",
"308 96 CURVE SMOOTH",
"231 96 OFFCURVE",
"172 147 OFFCURVE",
"172 243 CURVE SMOOTH",
"172 253 LINE SMOOTH",
"172 349 OFFCURVE",
"230 400 OFFCURVE",
"308 400 CURVE SMOOTH"
);
}
);
width = 638;
},
{
anchors = (
{
name = sidecaron;
position = "{556, 700}";
},
{
name = strokeB;
position = "{556, 486}";
}
);
layerId = "CEFBB1E5-951F-4065-926E-8B9137F837F5";
paths = (
{
closed = 1;
nodes = (
"496 700 LINE",
"496 401 LINE",
"485 401 LINE",
"458 450 OFFCURVE",
"404 500 OFFCURVE",
"296 500 CURVE SMOOTH",
"165 500 OFFCURVE",
"64 403 OFFCURVE",
"64 249 CURVE SMOOTH",
"64 237 LINE SMOOTH",
"64 82 OFFCURVE",
"166 -14 OFFCURVE",
"296 -14 CURVE SMOOTH",
"404 -14 OFFCURVE",
"458 36 OFFCURVE",
"487 87 CURVE",
"498 87 LINE",
"498 0 LINE",
"556 0 LINE",
"556 700 LINE"
);
},
{
closed = 1;
nodes = (
"418 446 OFFCURVE",
"497 371 OFFCURVE",
"497 247 CURVE SMOOTH",
"497 239 LINE SMOOTH",
"497 115 OFFCURVE",
"417 40 OFFCURVE",
"309 40 CURVE SMOOTH",
"200 40 OFFCURVE",
"125 115 OFFCURVE",
"125 239 CURVE SMOOTH",
"125 247 LINE SMOOTH",
"125 371 OFFCURVE",
"199 446 OFFCURVE",
"309 446 CURVE SMOOTH"
);
}
);
width = 644;
}
);
leftKerningGroup = o;
leftMetricsKey = o;
note = d;
rightKerningGroup = l;
rightMetricsKey = l;
unicode = 0064;
},
{
glyphname = eth;
lastChange = "2020-05-15 12:35:45 +0000";
layers = (
{
layerId = "5117E3E8-E17C-4812-BAF5-9E7064564A59";
paths = (
{
closed = 1;
nodes = (
"286 621 OFFCURVE",
"389 567 OFFCURVE",
"425 455 CURVE",
"407 455 LINE",
"377 487 OFFCURVE",
"339 507 OFFCURVE",
"275 506 CURVE SMOOTH",
"151 504 OFFCURVE",
"46 407 OFFCURVE",
"46 254 CURVE SMOOTH",
"46 242 LINE SMOOTH",
"46 89 OFFCURVE",
"152 -16 OFFCURVE",
"307 -14 CURVE SMOOTH",
"462 -12 OFFCURVE",
"568 90 OFFCURVE",
"568 275 CURVE SMOOTH",
"568 509 OFFCURVE",
"459 700 OFFCURVE",
"149 747 CURVE",
"130 642 LINE"
);
},
{
closed = 1;
nodes = (
"172 341 OFFCURVE",
"228 392 OFFCURVE",
"306 392 CURVE SMOOTH",
"384 392 OFFCURVE",
"440 341 OFFCURVE",
"440 251 CURVE SMOOTH",
"440 245 LINE SMOOTH",
"440 155 OFFCURVE",
"383 104 OFFCURVE",
"306 104 CURVE SMOOTH",
"229 104 OFFCURVE",
"172 155 OFFCURVE",
"172 245 CURVE SMOOTH",
"172 251 LINE SMOOTH"
);
},
{
closed = 1;
nodes = (
"199 553 LINE",
"280 531 LINE",
"347 770 LINE",
"266 792 LINE"
);
}
);
width = 616;
},
{
layerId = "CEFBB1E5-951F-4065-926E-8B9137F837F5";
paths = (
{
closed = 1;
nodes = (
"360 628 OFFCURVE",
"443 531 OFFCURVE",
"474 431 CURVE",
"463 431 LINE",
"429 471 OFFCURVE",
"377 499 OFFCURVE",
"300 499 CURVE SMOOTH",
"161 499 OFFCURVE",
"64 399 OFFCURVE",
"64 249 CURVE SMOOTH",
"64 237 LINE SMOOTH",
"64 86 OFFCURVE",
"162 -14 OFFCURVE",
"310 -14 CURVE SMOOTH",
"459 -14 OFFCURVE",
"556 90 OFFCURVE",
"556 251 CURVE SMOOTH",
"556 513 OFFCURVE",
"429 668 OFFCURVE",
"181 710 CURVE",
"171 660 LINE"
);
},
{
closed = 1;
nodes = (
"123 366 OFFCURVE",
"196 445 OFFCURVE",
"310 445 CURVE SMOOTH",
"423 445 OFFCURVE",
"496 366 OFFCURVE",
"496 247 CURVE SMOOTH",
"496 239 LINE SMOOTH",
"496 120 OFFCURVE",
"422 41 OFFCURVE",
"310 41 CURVE SMOOTH",
"197 41 OFFCURVE",
"123 120 OFFCURVE",
"123 239 CURVE SMOOTH",
"123 247 LINE SMOOTH"
);
},
{
closed = 1;
nodes = (
"256 566 LINE",
"298 547 LINE",
"380 715 LINE",
"338 734 LINE"
);
}
);
width = 614;
}
);
leftKerningGroup = o;
leftMetricsKey = o;
note = eth;
rightKerningGroup = o;
unicode = 00F0;
},
{
glyphname = e;
lastChange = "2020-05-15 12:35:45 +0000";
layers = (
{
anchors = (
{
name = bottom;
position = "{296, 0}";
},
{
name = ogonek;
position = "{384, 0}";
},
{
name = top;
position = "{294, 496}";
}
);
layerId = "5117E3E8-E17C-4812-BAF5-9E7064564A59";
paths = (
{
closed = 1;
nodes = (
"46 242 LINE SMOOTH",
"46 86 OFFCURVE",
"147 -14 OFFCURVE",
"296 -14 CURVE SMOOTH",
"432 -14 OFFCURVE",
"491 63 OFFCURVE",
"519 116 CURVE",
"416 170 LINE",
"399 132 OFFCURVE",
"370 96 OFFCURVE",
"300 96 CURVE SMOOTH",
"230 96 OFFCURVE",
"177 143 OFFCURVE",
"174 211 CURVE",
"535 211 LINE",
"535 254 LINE SMOOTH",
"535 406 OFFCURVE",
"440 510 OFFCURVE",
"294 510 CURVE SMOOTH",
"146 510 OFFCURVE",
"46 410 OFFCURVE",
"46 254 CURVE SMOOTH"
);
},
{
closed = 1;
nodes = (
"183 360 OFFCURVE",
"225 400 OFFCURVE",
"293 400 CURVE SMOOTH",
"358 400 OFFCURVE",
"401 362 OFFCURVE",
"407 305 CURVE",
"175 305 LINE"
);
}
);
width = 577;
},
{
anchors = (
{
name = bottom;
position = "{312, 0}";
},
{
name = ogonek;
position = "{371, 0}";
},
{
name = top;
position = "{305, 486}";
}
);
layerId = "CEFBB1E5-951F-4065-926E-8B9137F837F5";
paths = (
{
closed = 1;
nodes = (
"64 237 LINE SMOOTH",
"64 88 OFFCURVE",
"162 -14 OFFCURVE",
"312 -14 CURVE SMOOTH",
"442 -14 OFFCURVE",
"497 58 OFFCURVE",
"529 124 CURVE",
"475 147 LINE",
"448 87 OFFCURVE",
"403 40 OFFCURVE",
"312 40 CURVE SMOOTH",
"205 40 OFFCURVE",
"128 109 OFFCURVE",
"124 231 CURVE",
"538 231 LINE",
"538 262 LINE SMOOTH",
"538 410 OFFCURVE",
"441 500 OFFCURVE",
"305 500 CURVE SMOOTH",
"165 500 OFFCURVE",
"64 398 OFFCURVE",
"64 249 CURVE SMOOTH"
);
},
{
closed = 1;
nodes = (
"137 382 OFFCURVE",
"208 445 OFFCURVE",
"305 445 CURVE SMOOTH",
"403 445 OFFCURVE",
"472 387 OFFCURVE",
"476 282 CURVE",
"125 282 LINE"
);
}
);
width = 597;
}
);
leftKerningGroup = o;
leftMetricsKey = o;
note = e;
rightKerningGroup = o;
rightMetricsKey = "=o-4";
unicode = 0065;
},
{
glyphname = f;
lastChange = "2020-05-15 12:35:45 +0000";
layers = (
{
layerId = "5117E3E8-E17C-4812-BAF5-9E7064564A59";
paths = (
{
closed = 1;
nodes = (
"26 392 LINE",
"152 392 LINE",
"152 0 LINE",
"278 0 LINE",
"278 392 LINE",
"408 392 LINE",
"408 496 LINE",
"278 496 LINE",
"278 566 LINE SMOOTH",
"278 586 OFFCURVE",
"288 596 OFFCURVE",
"306 596 CURVE SMOOTH",
"392 596 LINE",
"392 700 LINE",
"262 700 LINE SMOOTH",
"196 700 OFFCURVE",
"152 656 OFFCURVE",
"152 588 CURVE SMOOTH",
"152 496 LINE",
"26 496 LINE"
);
}
);
width = 436;
},
{
layerId = "CEFBB1E5-951F-4065-926E-8B9137F837F5";
paths = (
{
closed = 1;
nodes = (
"31 434 LINE",
"192 434 LINE",
"192 0 LINE",
"252 0 LINE",
"252 434 LINE",
"415 434 LINE",
"415 486 LINE",
"252 486 LINE",
"252 619 LINE SMOOTH",
"252 639 OFFCURVE",
"262 649 OFFCURVE",
"280 649 CURVE SMOOTH",
"390 649 LINE",
"390 700 LINE",
"262 700 LINE SMOOTH",
"219 700 OFFCURVE",
"192 674 OFFCURVE",
"192 628 CURVE SMOOTH",
"192 486 LINE",
"31 486 LINE"
);
}
);
width = 452;
}
);
leftKerningGroup = t;
note = f;
rightKerningGroup = f;
unicode = 0066;
},
{
glyphname = g;
lastChange = "2020-05-15 12:35:45 +0000";
layers = (
{
anchors = (
{
name = top;
position = "{324, 496}";
}
);
layerId = "5117E3E8-E17C-4812-BAF5-9E7064564A59";
paths = (
{
closed = 1;
nodes = (
"444 496 LINE",
"444 436 LINE",
"426 436 LINE",
"404 470 OFFCURVE",
"362 510 OFFCURVE",
"272 510 CURVE SMOOTH",
"149 510 OFFCURVE",
"46 418 OFFCURVE",
"46 264 CURVE SMOOTH",
"46 248 LINE SMOOTH",
"46 94 OFFCURVE",
"150 2 OFFCURVE",
"272 2 CURVE SMOOTH",
"363 2 OFFCURVE",
"404 40 OFFCURVE",
"424 73 CURVE",
"442 73 LINE",
"442 0 LINE",
"568 0 LINE",
"568 496 LINE"
);
},
{
closed = 1;
nodes = (
"386 400 OFFCURVE",
"444 349 OFFCURVE",
"444 261 CURVE SMOOTH",
"444 251 LINE SMOOTH",
"444 163 OFFCURVE",
"385 112 OFFCURVE",
"308 112 CURVE SMOOTH",
"231 112 OFFCURVE",
"172 163 OFFCURVE",
"172 251 CURVE SMOOTH",
"172 261 LINE SMOOTH",
"172 349 OFFCURVE",
"230 400 OFFCURVE",
"308 400 CURVE SMOOTH"
);
},
{
closed = 1;
nodes = (
"126 -200 LINE",
"458 -200 LINE SMOOTH",
"524 -200 OFFCURVE",
"568 -156 OFFCURVE",
"568 -88 CURVE SMOOTH",
"568 0 LINE",
"442 0 LINE",
"442 -60 LINE SMOOTH",
"442 -80 OFFCURVE",
"432 -90 OFFCURVE",
"414 -90 CURVE SMOOTH",
"126 -90 LINE"
);
}
);
width = 638;
},
{
anchors = (
{
name = top;
position = "{328, 486}";
}
);
layerId = "CEFBB1E5-951F-4065-926E-8B9137F837F5";
paths = (
{
closed = 1;
nodes = (
"498 486 LINE",
"498 401 LINE",
"487 401 LINE",
"458 450 OFFCURVE",
"403 500 OFFCURVE",
"297 500 CURVE SMOOTH",
"165 500 OFFCURVE",
"64 403 OFFCURVE",
"64 254 CURVE SMOOTH",
"64 241 LINE SMOOTH",
"64 91 OFFCURVE",
"166 -5 OFFCURVE",
"297 -5 CURVE SMOOTH",
"403 -5 OFFCURVE",
"458 44 OFFCURVE",
"485 90 CURVE",
"496 90 LINE",
"496 0 LINE",
"556 0 LINE",
"556 486 LINE"
);
},
{
closed = 1;
nodes = (
"418 446 OFFCURVE",
"497 372 OFFCURVE",
"497 251 CURVE SMOOTH",
"497 243 LINE SMOOTH",
"497 123 OFFCURVE",
"417 49 OFFCURVE",
"309 49 CURVE SMOOTH",
"200 49 OFFCURVE",
"125 123 OFFCURVE",
"125 243 CURVE SMOOTH",
"125 251 LINE SMOOTH",
"125 372 OFFCURVE",
"199 446 OFFCURVE",
"309 446 CURVE SMOOTH"
);
},
{
closed = 1;
nodes = (
"147 -200 LINE",
"486 -200 LINE SMOOTH",
"529 -200 OFFCURVE",
"556 -174 OFFCURVE",
"556 -128 CURVE SMOOTH",
"556 0 LINE",
"496 0 LINE",
"496 -117 LINE SMOOTH",
"496 -137 OFFCURVE",
"486 -147 OFFCURVE",
"468 -147 CURVE SMOOTH",
"147 -147 LINE"
);
}
);
width = 644;
}
);
leftKerningGroup = o;
leftMetricsKey = o;
note = g;
rightKerningGroup = u;
rightMetricsKey = u;
unicode = 0067;
},
{
glyphname = h;
lastChange = "2020-05-15 12:35:45 +0000";
layers = (
{
anchors = (
{
name = strokeA;
position = "{70, 496}";
}
);
layerId = "5117E3E8-E17C-4812-BAF5-9E7064564A59";
paths = (
{
closed = 1;
nodes = (
"70 0 LINE",
"196 0 LINE",
"196 252 LINE SMOOTH",
"196 344 OFFCURVE",
"241 398 OFFCURVE",
"318 398 CURVE SMOOTH",
"386 398 OFFCURVE",
"424 361 OFFCURVE",
"424 286 CURVE SMOOTH",
"424 0 LINE",
"550 0 LINE",
"550 296 LINE SMOOTH",
"550 419 OFFCURVE",
"473 504 OFFCURVE",
"357 504 CURVE SMOOTH",
"269 504 OFFCURVE",
"230 467 OFFCURVE",
"214 435 CURVE",
"196 435 LINE",
"196 700 LINE",
"70 700 LINE"
);
}
);
width = 616;
},
{
anchors = (
{
name = strokeA;
position = "{88, 486}";
}
);
layerId = "CEFBB1E5-951F-4065-926E-8B9137F837F5";
paths = (
{
closed = 1;
nodes = (
"88 0 LINE",
"147 0 LINE",
"147 243 LINE SMOOTH",
"147 376 OFFCURVE",
"222 442 OFFCURVE",
"322 442 CURVE SMOOTH",
"411 442 OFFCURVE",
"470 397 OFFCURVE",
"470 291 CURVE SMOOTH",
"470 0 LINE",
"529 0 LINE",
"529 296 LINE SMOOTH",
"529 430 OFFCURVE",
"439 495 OFFCURVE",
"335 495 CURVE SMOOTH",
"231 495 OFFCURVE",
"184 450 OFFCURVE",
"158 406 CURVE",
"147 406 LINE",
"147 700 LINE",
"88 700 LINE"
);
}
);
width = 611;
}
);
leftKerningGroup = l;
leftMetricsKey = l;
note = h;
rightKerningGroup = n;
rightMetricsKey = n;
unicode = 0068;
},
{
glyphname = idotless;
lastChange = "2020-05-15 12:35:45 +0000";
layers = (
{
anchors = (
{
name = bottom;
position = "{133, 0}";
},
{
name = ogonek;
position = "{133, 0}";
},
{
name = top;
position = "{133, 496}";
}
);
layerId = "5117E3E8-E17C-4812-BAF5-9E7064564A59";
paths = (
{
closed = 1;
nodes = (
"70 496 LINE",
"70 0 LINE",
"196 0 LINE",
"196 496 LINE"
);
}
);
width = 266;
},
{
anchors = (
{
name = bottom;
position = "{117, 0}";
},
{
name = ogonek;
position = "{117, 0}";
},
{
name = top;
position = "{117, 486}";
}
);
layerId = "CEFBB1E5-951F-4065-926E-8B9137F837F5";
paths = (
{
closed = 1;
nodes = (
"88 486 LINE",
"88 0 LINE",
"147 0 LINE",
"147 486 LINE"
);
}
);
width = 235;
}
);
leftKerningGroup = n;
leftMetricsKey = l;
note = dotlessi;
rightKerningGroup = u;
rightMetricsKey = l;
unicode = 0131;
},
{
glyphname = jdotless;
lastChange = "2020-05-15 12:35:45 +0000";
layers = (
{
anchors = (
{
name = top;
position = "{135, 496}";
}
);
layerId = "5117E3E8-E17C-4812-BAF5-9E7064564A59";
paths = (
{
closed = 1;
nodes = (
"72 496 LINE",
"72 -62 LINE SMOOTH",
"72 -82 OFFCURVE",
"62 -92 OFFCURVE",
"44 -92 CURVE SMOOTH",
"-22 -92 LINE",
"-22 -200 LINE",
"88 -200 LINE SMOOTH",
"154 -200 OFFCURVE",
"198 -156 OFFCURVE",
"198 -88 CURVE SMOOTH",
"198 496 LINE"
);
}
);
width = 268;
},
{
anchors = (
{
name = top;
position = "{119, 486}";
}
);
layerId = "CEFBB1E5-951F-4065-926E-8B9137F837F5";
paths = (
{
closed = 1;
nodes = (
"90 486 LINE",
"90 -118 LINE SMOOTH",
"90 -138 OFFCURVE",
"80 -148 OFFCURVE",
"62 -148 CURVE SMOOTH",
"-10 -148 LINE",
"-10 -200 LINE",
"79 -200 LINE SMOOTH",
"123 -200 OFFCURVE",
"149 -174 OFFCURVE",
"149 -128 CURVE SMOOTH",
"149 486 LINE"
);
}
);
width = 237;
}
);
leftKerningGroup = n;
note = uni0237;
rightKerningGroup = u;
rightMetricsKey = idotless;
unicode = 0237;
},
{
glyphname = k;
lastChange = "2020-05-15 12:35:45 +0000";
layers = (
{
anchors = (
{
name = bottom;
position = "{283, 0}";
}
);
layerId = "5117E3E8-E17C-4812-BAF5-9E7064564A59";
paths = (
{
closed = 1;
nodes = (
"196 0 LINE",
"196 197 LINE",
"214 197 LINE",
"388 0 LINE",
"550 0 LINE",
"313 256 LINE",
"542 496 LINE",
"378 496 LINE",
"214 313 LINE",
"196 313 LINE",
"196 700 LINE",
"70 700 LINE",
"70 0 LINE"
);
}
);
width = 564;
},
{
anchors = (
{
name = bottom;
position = "{277, 0}";
}
);
layerId = "CEFBB1E5-951F-4065-926E-8B9137F837F5";
paths = (
{
closed = 1;
nodes = (
"147 0 LINE",
"147 223 LINE",
"158 223 LINE",
"416 0 LINE",
"503 0 LINE",
"207 253 LINE",
"488 486 LINE",
"400 486 LINE",
"158 282 LINE",
"147 282 LINE",
"147 700 LINE",
"88 700 LINE",
"88 0 LINE"
);
}
);
width = 526;
}
);
leftKerningGroup = l;
leftMetricsKey = l;
note = k;
rightKerningGroup = k;
unicode = 006B;
},
{
glyphname = l;
lastChange = "2020-05-15 12:35:45 +0000";
layers = (
{
anchors = (
{
name = bottom;
position = "{133, 0}";
},
{
name = sidecaron;
position = "{196, 700}";
},
{
name = top;
position = "{133, 700}";
}
);
layerId = "5117E3E8-E17C-4812-BAF5-9E7064564A59";
paths = (
{
closed = 1;
nodes = (
"70 700 LINE",
"70 0 LINE",
"196 0 LINE",
"196 700 LINE"
);
}
);
width = 266;
},
{
anchors = (
{
name = bottom;
position = "{117, 0}";
},
{
name = sidecaron;
position = "{147, 700}";
},
{
name = top;
position = "{117, 700}";
}
);
layerId = "CEFBB1E5-951F-4065-926E-8B9137F837F5";
paths = (
{
closed = 1;
nodes = (
"88 700 LINE",
"88 0 LINE",
"147 0 LINE",
"147 700 LINE"
);
}
);
width = 235;
}
);
leftKerningGroup = l;
note = l;
rightKerningGroup = l;
unicode = 006C;
},
{
glyphname = lslash;
lastChange = "2020-05-15 12:35:45 +0000";
layers = (
{
layerId = "5117E3E8-E17C-4812-BAF5-9E7064564A59";
paths = (
{
closed = 1;
nodes = (
"147 700 LINE",
"147 0 LINE",
"273 0 LINE",
"273 700 LINE"
);
},
{
closed = 1;
nodes = (
"53 187 LINE",
"404 359 LINE",
"367 434 LINE",
"16 262 LINE"
);
}
);
width = 420;
},
{
layerId = "CEFBB1E5-951F-4065-926E-8B9137F837F5";
paths = (
{
closed = 1;
nodes = (
"144 700 LINE",
"144 0 LINE",
"204 0 LINE",
"204 700 LINE"
);
},
{
closed = 1;
nodes = (
"50 204 LINE",
"320 349 LINE",
"298 390 LINE",
"28 245 LINE"
);
}
);
width = 348;
}
);
leftKerningGroup = lslash;
note = lslash;
rightKerningGroup = lslash;
unicode = 0142;
},
{
glyphname = m;
lastChange = "2020-05-15 12:35:45 +0000";
layers = (
{
layerId = "5117E3E8-E17C-4812-BAF5-9E7064564A59";
paths = (
{
closed = 1;
nodes = (
"70 0 LINE",
"196 0 LINE",
"196 293 LINE SMOOTH",
"196 361 OFFCURVE",
"228 399 OFFCURVE",
"286 399 CURVE SMOOTH",
"336 399 OFFCURVE",
"366 371 OFFCURVE",
"366 317 CURVE SMOOTH",
"366 0 LINE",
"492 0 LINE",
"492 293 LINE SMOOTH",
"492 361 OFFCURVE",
"524 399 OFFCURVE",
"582 399 CURVE SMOOTH",
"632 399 OFFCURVE",
"662 371 OFFCURVE",
"662 317 CURVE SMOOTH",
"662 0 LINE",
"788 0 LINE",
"788 326 LINE SMOOTH",
"788 446 OFFCURVE",
"714 504 OFFCURVE",
"622 504 CURVE SMOOTH",
"540 504 OFFCURVE",
"506 469 OFFCURVE",
"486 430 CURVE",
"468 430 LINE",
"445 474 OFFCURVE",
"405 504 OFFCURVE",
"334 504 CURVE SMOOTH",
"262 504 OFFCURVE",
"227 473 OFFCURVE",
"212 442 CURVE",
"194 442 LINE",
"194 496 LINE",
"70 496 LINE"
);
}
);
width = 854;
},
{
layerId = "CEFBB1E5-951F-4065-926E-8B9137F837F5";
paths = (
{
closed = 1;
nodes = (
"88 0 LINE",
"147 0 LINE",
"147 295 LINE SMOOTH",
"147 391 OFFCURVE",
"206 442 OFFCURVE",
"283 442 CURVE SMOOTH",
"359 442 OFFCURVE",
"403 396 OFFCURVE",
"403 327 CURVE SMOOTH",
"403 0 LINE",
"462 0 LINE",
"462 295 LINE SMOOTH",
"462 391 OFFCURVE",
"521 442 OFFCURVE",
"598 442 CURVE SMOOTH",
"674 442 OFFCURVE",
"718 396 OFFCURVE",
"718 327 CURVE SMOOTH",
"718 0 LINE",
"778 0 LINE",
"778 333 LINE SMOOTH",
"778 430 OFFCURVE",
"711 495 OFFCURVE",
"612 495 CURVE SMOOTH",
"535 495 OFFCURVE",
"485 461 OFFCURVE",
"457 404 CURVE",
"446 404 LINE",
"425 455 OFFCURVE",
"377 495 OFFCURVE",
"299 495 CURVE SMOOTH",
"225 495 OFFCURVE",
"181 466 OFFCURVE",
"156 422 CURVE",
"145 422 LINE",
"145 486 LINE",
"88 486 LINE"
);
}
);
width = 860;
}
);
leftKerningGroup = n;
leftMetricsKey = idotless;
note = m;
rightKerningGroup = n;
rightMetricsKey = n;
unicode = 006D;
},
{
glyphname = n;
lastChange = "2020-05-15 12:35:45 +0000";
layers = (
{
anchors = (
{
name = bottom;
position = "{310, 0}";
},
{
name = top;
position = "{303, 496}";
}
);
layerId = "5117E3E8-E17C-4812-BAF5-9E7064564A59";
paths = (
{
closed = 1;
nodes = (
"70 0 LINE",
"196 0 LINE",
"196 252 LINE SMOOTH",
"196 344 OFFCURVE",
"241 398 OFFCURVE",
"318 398 CURVE SMOOTH",
"386 398 OFFCURVE",
"424 361 OFFCURVE",
"424 286 CURVE SMOOTH",
"424 0 LINE",
"550 0 LINE",
"550 296 LINE SMOOTH",
"550 419 OFFCURVE",
"473 504 OFFCURVE",
"357 504 CURVE SMOOTH",
"268 504 OFFCURVE",
"228 465 OFFCURVE",
"212 431 CURVE",
"194 431 LINE",
"194 496 LINE",
"70 496 LINE"
);
}
);
width = 616;
},
{
anchors = (
{
name = bottom;
position = "{308, 0}";
},
{
name = top;
position = "{308, 486}";
}
);
layerId = "CEFBB1E5-951F-4065-926E-8B9137F837F5";
paths = (
{
closed = 1;
nodes = (
"88 0 LINE",
"147 0 LINE",
"147 243 LINE SMOOTH",
"147 376 OFFCURVE",
"222 442 OFFCURVE",
"322 442 CURVE SMOOTH",
"411 442 OFFCURVE",
"470 397 OFFCURVE",
"470 291 CURVE SMOOTH",
"470 0 LINE",
"529 0 LINE",
"529 296 LINE SMOOTH",
"529 430 OFFCURVE",
"439 495 OFFCURVE",
"335 495 CURVE SMOOTH",
"231 495 OFFCURVE",
"181 448 OFFCURVE",
"156 402 CURVE",
"145 402 LINE",
"145 486 LINE",
"88 486 LINE"
);
}
);
width = 611;
}
);
leftKerningGroup = n;
leftMetricsKey = idotless;
note = n;
rightKerningGroup = n;
unicode = 006E;
},
{
glyphname = eng;
lastChange = "2020-05-15 12:35:45 +0000";
layers = (
{
layerId = "5117E3E8-E17C-4812-BAF5-9E7064564A59";
paths = (
{
closed = 1;
nodes = (
"70 0 LINE",
"196 0 LINE",
"196 252 LINE SMOOTH",
"196 344 OFFCURVE",
"241 398 OFFCURVE",
"318 398 CURVE SMOOTH",
"386 398 OFFCURVE",
"424 361 OFFCURVE",
"424 286 CURVE SMOOTH",
"424 0 LINE",
"550 0 LINE",
"550 296 LINE SMOOTH",
"550 419 OFFCURVE",
"473 504 OFFCURVE",
"357 504 CURVE SMOOTH",
"268 504 OFFCURVE",
"228 465 OFFCURVE",
"212 431 CURVE",
"194 431 LINE",
"194 496 LINE",
"70 496 LINE"
);
},
{
closed = 1;
nodes = (
"424 0 LINE",
"424 -62 LINE SMOOTH",
"424 -82 OFFCURVE",
"414 -92 OFFCURVE",
"396 -92 CURVE SMOOTH",
"310 -92 LINE",
"310 -200 LINE",
"452 -200 LINE SMOOTH",
"508 -200 OFFCURVE",
"550 -160 OFFCURVE",
"550 -104 CURVE SMOOTH",
"550 0 LINE"
);
}
);
width = 616;
},
{
layerId = "CEFBB1E5-951F-4065-926E-8B9137F837F5";
paths = (
{
closed = 1;
nodes = (
"88 0 LINE",
"147 0 LINE",
"147 243 LINE SMOOTH",
"147 376 OFFCURVE",
"222 442 OFFCURVE",
"322 442 CURVE SMOOTH",
"411 442 OFFCURVE",
"470 397 OFFCURVE",
"470 291 CURVE SMOOTH",
"470 0 LINE",
"529 0 LINE",
"529 296 LINE SMOOTH",
"529 430 OFFCURVE",
"439 495 OFFCURVE",
"335 495 CURVE SMOOTH",
"231 495 OFFCURVE",
"181 448 OFFCURVE",
"156 402 CURVE",
"145 402 LINE",
"145 486 LINE",
"88 486 LINE"
);
},
{
closed = 1;
nodes = (
"470 0 LINE",
"470 -118 LINE SMOOTH",
"470 -138 OFFCURVE",
"460 -148 OFFCURVE",
"442 -148 CURVE SMOOTH",
"342 -148 LINE",
"342 -200 LINE",
"461 -200 LINE SMOOTH",
"503 -200 OFFCURVE",
"529 -174 OFFCURVE",
"529 -130 CURVE SMOOTH",
"529 0 LINE"
);
}
);
width = 611;
}
);
leftKerningGroup = n;
leftMetricsKey = n;
note = eng;
rightKerningGroup = n;
rightMetricsKey = n;
unicode = 014B;
},
{
glyphname = o;
lastChange = "2020-05-15 12:35:45 +0000";
layers = (
{
anchors = (
{
name = bottom;
position = "{306, 0}";
},
{
name = horn;
position = "{397, 496}";
},
{
name = top;
position = "{306, 496}";
}
);
layerId = "5117E3E8-E17C-4812-BAF5-9E7064564A59";
paths = (
{
closed = 1;
nodes = (
"46 240 LINE SMOOTH",
"46 80 OFFCURVE",
"158 -14 OFFCURVE",
"306 -14 CURVE SMOOTH",
"454 -14 OFFCURVE",
"566 80 OFFCURVE",
"566 240 CURVE SMOOTH",
"566 256 LINE SMOOTH",
"566 416 OFFCURVE",
"454 510 OFFCURVE",
"306 510 CURVE SMOOTH",
"158 510 OFFCURVE",
"46 416 OFFCURVE",
"46 256 CURVE SMOOTH"
);
},
{
closed = 1;
nodes = (
"172 346 OFFCURVE",
"228 398 OFFCURVE",
"306 398 CURVE SMOOTH",
"384 398 OFFCURVE",
"440 346 OFFCURVE",
"440 253 CURVE SMOOTH",
"440 243 LINE SMOOTH",
"440 150 OFFCURVE",
"383 98 OFFCURVE",
"306 98 CURVE SMOOTH",
"229 98 OFFCURVE",
"172 150 OFFCURVE",
"172 243 CURVE SMOOTH",
"172 253 LINE SMOOTH"
);
}
);
width = 612;
},
{
anchors = (
{
name = bottom;
position = "{310, 0}";
},
{
name = horn;
position = "{399, 486}";
},
{
name = top;
position = "{310, 486}";
}
);
layerId = "CEFBB1E5-951F-4065-926E-8B9137F837F5";
paths = (
{
closed = 1;
nodes = (
"64 237 LINE SMOOTH",
"64 87 OFFCURVE",
"162 -14 OFFCURVE",
"310 -14 CURVE SMOOTH",
"458 -14 OFFCURVE",
"556 87 OFFCURVE",
"556 237 CURVE SMOOTH",
"556 249 LINE SMOOTH",
"556 399 OFFCURVE",
"458 500 OFFCURVE",
"310 500 CURVE SMOOTH",
"162 500 OFFCURVE",
"64 399 OFFCURVE",
"64 249 CURVE SMOOTH"
);
},
{
closed = 1;
nodes = (
"123 366 OFFCURVE",
"196 445 OFFCURVE",
"310 445 CURVE SMOOTH",
"423 445 OFFCURVE",
"496 366 OFFCURVE",
"496 247 CURVE SMOOTH",
"496 239 LINE SMOOTH",
"496 119 OFFCURVE",
"422 40 OFFCURVE",
"310 40 CURVE SMOOTH",
"197 40 OFFCURVE",
"123 119 OFFCURVE",
"123 239 CURVE SMOOTH",
"123 247 LINE SMOOTH"
);
}
);
width = 619;
}
);
leftKerningGroup = o;
note = o;
rightKerningGroup = o;
unicode = 006F;
},
{
glyphname = oe;
lastChange = "2020-05-15 12:35:45 +0000";
layers = (
{
layerId = "5117E3E8-E17C-4812-BAF5-9E7064564A59";
paths = (
{
closed = 1;
nodes = (
"46 240 LINE SMOOTH",
"46 80 OFFCURVE",
"157 -14 OFFCURVE",
"299 -14 CURVE SMOOTH",
"393 -14 OFFCURVE",
"458 24 OFFCURVE",
"497 84 CURVE",
"515 84 LINE",
"548 25 OFFCURVE",
"618 -14 OFFCURVE",
"707 -14 CURVE SMOOTH",
"839 -14 OFFCURVE",
"898 63 OFFCURVE",
"926 116 CURVE",
"823 170 LINE",
"806 132 OFFCURVE",
"777 96 OFFCURVE",
"707 96 CURVE SMOOTH",
"637 96 OFFCURVE",
"584 143 OFFCURVE",
"581 211 CURVE",
"942 211 LINE",
"942 254 LINE SMOOTH",
"942 406 OFFCURVE",
"847 510 OFFCURVE",
"701 510 CURVE SMOOTH",
"621 510 OFFCURVE",
"555 472 OFFCURVE",
"515 412 CURVE",
"497 412 LINE",
"458 472 OFFCURVE",
"393 510 OFFCURVE",
"299 510 CURVE SMOOTH",
"157 510 OFFCURVE",
"46 416 OFFCURVE",
"46 256 CURVE SMOOTH"
);
},
{
closed = 1;
nodes = (
"172 346 OFFCURVE",
"228 398 OFFCURVE",
"306 398 CURVE SMOOTH",
"384 398 OFFCURVE",
"440 346 OFFCURVE",
"440 253 CURVE SMOOTH",
"440 243 LINE SMOOTH",
"440 150 OFFCURVE",
"383 98 OFFCURVE",
"306 98 CURVE SMOOTH",
"229 98 OFFCURVE",
"172 150 OFFCURVE",
"172 243 CURVE SMOOTH",
"172 253 LINE SMOOTH"
);
},
{
closed = 1;
nodes = (
"590 360 OFFCURVE",
"632 400 OFFCURVE",
"700 400 CURVE SMOOTH",
"765 400 OFFCURVE",
"808 362 OFFCURVE",
"814 305 CURVE",
"582 305 LINE"
);
}
);
width = 984;
},
{
layerId = "CEFBB1E5-951F-4065-926E-8B9137F837F5";
paths = (
{
closed = 1;
nodes = (
"64 236 LINE SMOOTH",
"64 87 OFFCURVE",
"161 -14 OFFCURVE",
"309 -14 CURVE SMOOTH",
"411 -14 OFFCURVE",
"487 36 OFFCURVE",
"522 123 CURVE",
"534 123 LINE",
"570 40 OFFCURVE",
"649 -14 OFFCURVE",
"753 -14 CURVE SMOOTH",
"882 -14 OFFCURVE",
"937 58 OFFCURVE",
"969 124 CURVE",
"914 147 LINE",
"887 87 OFFCURVE",
"843 40 OFFCURVE",
"752 40 CURVE SMOOTH",
"644 40 OFFCURVE",
"569 112 OFFCURVE",
"564 231 CURVE",
"977 231 LINE",
"977 262 LINE SMOOTH",
"977 410 OFFCURVE",
"881 500 OFFCURVE",
"746 500 CURVE SMOOTH",
"650 500 OFFCURVE",
"572 447 OFFCURVE",
"534 363 CURVE",
"522 363 LINE",
"487 449 OFFCURVE",
"411 500 OFFCURVE",
"309 500 CURVE SMOOTH",
"161 500 OFFCURVE",
"64 399 OFFCURVE",
"64 249 CURVE SMOOTH"
);
},
{
closed = 1;
nodes = (
"123 366 OFFCURVE",
"196 445 OFFCURVE",
"310 445 CURVE SMOOTH",
"423 445 OFFCURVE",
"496 366 OFFCURVE",
"496 247 CURVE SMOOTH",
"496 239 LINE SMOOTH",
"496 119 OFFCURVE",
"422 40 OFFCURVE",
"310 40 CURVE SMOOTH",
"197 40 OFFCURVE",
"123 119 OFFCURVE",
"123 239 CURVE SMOOTH",
"123 247 LINE SMOOTH"
);
},
{
closed = 1;
nodes = (
"576 382 OFFCURVE",
"647 445 OFFCURVE",
"745 445 CURVE SMOOTH",
"843 445 OFFCURVE",
"911 387 OFFCURVE",
"915 282 CURVE",
"565 282 LINE"
);
}
);
width = 1036;
}
);
leftKerningGroup = o;
leftMetricsKey = o;
note = oe;
rightKerningGroup = o;
rightMetricsKey = e;
unicode = 0153;
},
{
glyphname = p;
lastChange = "2020-05-15 12:35:45 +0000";
layers = (
{
layerId = "5117E3E8-E17C-4812-BAF5-9E7064564A59";
paths = (
{
closed = 1;
nodes = (
"196 -200 LINE",
"196 57 LINE",
"214 57 LINE",
"235 22 OFFCURVE",
"278 -14 OFFCURVE",
"368 -14 CURVE SMOOTH",
"488 -14 OFFCURVE",
"592 78 OFFCURVE",
"592 240 CURVE SMOOTH",
"592 256 LINE SMOOTH",
"592 418 OFFCURVE",
"487 510 OFFCURVE",
"368 510 CURVE SMOOTH",
"278 510 OFFCURVE",
"235 474 OFFCURVE",
"212 436 CURVE",
"194 436 LINE",
"194 496 LINE",
"70 496 LINE",
"70 -200 LINE"
);
},
{
closed = 1;
nodes = (
"252 96 OFFCURVE",
"194 147 OFFCURVE",
"194 243 CURVE SMOOTH",
"194 253 LINE SMOOTH",
"194 349 OFFCURVE",
"253 400 OFFCURVE",
"330 400 CURVE SMOOTH",
"407 400 OFFCURVE",
"466 349 OFFCURVE",
"466 253 CURVE SMOOTH",
"466 243 LINE SMOOTH",
"466 147 OFFCURVE",
"408 96 OFFCURVE",
"330 96 CURVE SMOOTH"
);
}
);
width = 638;
},
{
layerId = "CEFBB1E5-951F-4065-926E-8B9137F837F5";
paths = (
{
closed = 1;
nodes = (
"147 -200 LINE",
"147 84 LINE",
"158 84 LINE",
"185 35 OFFCURVE",
"240 -14 OFFCURVE",
"347 -14 CURVE SMOOTH",
"478 -14 OFFCURVE",
"580 82 OFFCURVE",
"580 237 CURVE SMOOTH",
"580 249 LINE SMOOTH",
"580 403 OFFCURVE",
"477 500 OFFCURVE",
"347 500 CURVE SMOOTH",
"240 500 OFFCURVE",
"185 450 OFFCURVE",
"156 398 CURVE",
"145 398 LINE",
"145 486 LINE",
"88 486 LINE",
"88 -200 LINE"
);
},
{
closed = 1;
nodes = (
"225 40 OFFCURVE",
"147 115 OFFCURVE",
"147 239 CURVE SMOOTH",
"147 247 LINE SMOOTH",
"147 371 OFFCURVE",
"226 446 OFFCURVE",
"334 446 CURVE SMOOTH",
"443 446 OFFCURVE",
"519 371 OFFCURVE",
"519 247 CURVE SMOOTH",
"519 239 LINE SMOOTH",
"519 115 OFFCURVE",
"444 40 OFFCURVE",
"334 40 CURVE SMOOTH"
);
}
);
width = 643;
}
);
leftKerningGroup = n;
leftMetricsKey = idotless;
note = p;
rightKerningGroup = o;
rightMetricsKey = o;
unicode = 0070;
},
{
glyphname = thorn;
lastChange = "2020-05-15 12:35:45 +0000";
layers = (
{
layerId = "5117E3E8-E17C-4812-BAF5-9E7064564A59";
paths = (
{
closed = 1;
nodes = (
"196 -200 LINE",
"196 57 LINE",
"214 57 LINE",
"235 22 OFFCURVE",
"278 -14 OFFCURVE",
"368 -14 CURVE SMOOTH",
"488 -14 OFFCURVE",
"592 78 OFFCURVE",
"592 240 CURVE SMOOTH",
"592 256 LINE SMOOTH",
"592 418 OFFCURVE",
"488 510 OFFCURVE",
"368 510 CURVE SMOOTH",
"278 510 OFFCURVE",
"235 474 OFFCURVE",
"214 439 CURVE",
"196 439 LINE",
"196 700 LINE",
"70 700 LINE",
"70 -200 LINE"
);
},
{
closed = 1;
nodes = (
"252 96 OFFCURVE",
"194 147 OFFCURVE",
"194 243 CURVE SMOOTH",
"194 253 LINE SMOOTH",
"194 349 OFFCURVE",
"252 400 OFFCURVE",
"330 400 CURVE SMOOTH",
"408 400 OFFCURVE",
"466 349 OFFCURVE",
"466 253 CURVE SMOOTH",
"466 243 LINE SMOOTH",
"466 147 OFFCURVE",
"408 96 OFFCURVE",
"330 96 CURVE SMOOTH"
);
}
);
width = 638;
},
{
layerId = "CEFBB1E5-951F-4065-926E-8B9137F837F5";
paths = (
{
closed = 1;
nodes = (
"147 -200 LINE",
"147 84 LINE",
"158 84 LINE",
"185 35 OFFCURVE",
"240 -14 OFFCURVE",
"347 -14 CURVE SMOOTH",
"478 -14 OFFCURVE",
"580 82 OFFCURVE",
"580 237 CURVE SMOOTH",
"580 249 LINE SMOOTH",
"580 403 OFFCURVE",
"478 500 OFFCURVE",
"347 500 CURVE SMOOTH",
"240 500 OFFCURVE",
"185 450 OFFCURVE",
"158 401 CURVE",
"147 401 LINE",
"147 700 LINE",
"88 700 LINE",
"88 -200 LINE"
);
},
{
closed = 1;
nodes = (
"225 40 OFFCURVE",
"147 115 OFFCURVE",
"147 239 CURVE SMOOTH",
"147 247 LINE SMOOTH",
"147 371 OFFCURVE",
"225 446 OFFCURVE",
"334 446 CURVE SMOOTH",
"444 446 OFFCURVE",
"519 371 OFFCURVE",
"519 247 CURVE SMOOTH",
"519 239 LINE SMOOTH",
"519 115 OFFCURVE",
"444 40 OFFCURVE",
"334 40 CURVE SMOOTH"
);
}
);
width = 643;
}
);
leftKerningGroup = l;
leftMetricsKey = l;
note = thorn;
rightKerningGroup = o;
rightMetricsKey = o;
unicode = 00FE;
},
{
glyphname = q;
lastChange = "2020-05-15 12:35:45 +0000";
layers = (
{
layerId = "5117E3E8-E17C-4812-BAF5-9E7064564A59";
paths = (
{
closed = 1;
nodes = (
"568 496 LINE",
"444 496 LINE",
"444 436 LINE",
"426 436 LINE",
"403 474 OFFCURVE",
"360 510 OFFCURVE",
"270 510 CURVE SMOOTH",
"151 510 OFFCURVE",
"46 418 OFFCURVE",
"46 256 CURVE SMOOTH",
"46 240 LINE SMOOTH",
"46 78 OFFCURVE",
"150 -14 OFFCURVE",
"270 -14 CURVE SMOOTH",
"360 -14 OFFCURVE",
"403 22 OFFCURVE",
"424 57 CURVE",
"442 57 LINE",
"442 -200 LINE",
"568 -200 LINE"
);
},
{
closed = 1;
nodes = (
"230 96 OFFCURVE",
"172 147 OFFCURVE",
"172 243 CURVE SMOOTH",
"172 253 LINE SMOOTH",
"172 349 OFFCURVE",
"231 400 OFFCURVE",
"308 400 CURVE SMOOTH",
"385 400 OFFCURVE",
"444 349 OFFCURVE",
"444 253 CURVE SMOOTH",
"444 243 LINE SMOOTH",
"444 147 OFFCURVE",
"386 96 OFFCURVE",
"308 96 CURVE SMOOTH"
);
}
);
width = 638;
},
{
layerId = "CEFBB1E5-951F-4065-926E-8B9137F837F5";
paths = (
{
closed = 1;
nodes = (
"556 486 LINE",
"498 486 LINE",
"498 398 LINE",
"487 398 LINE",
"458 450 OFFCURVE",
"404 500 OFFCURVE",
"296 500 CURVE SMOOTH",
"166 500 OFFCURVE",
"64 403 OFFCURVE",
"64 249 CURVE SMOOTH",
"64 237 LINE SMOOTH",
"64 82 OFFCURVE",
"165 -14 OFFCURVE",
"296 -14 CURVE SMOOTH",
"404 -14 OFFCURVE",
"458 35 OFFCURVE",
"485 84 CURVE",
"496 84 LINE",
"496 -200 LINE",
"556 -200 LINE"
);
},
{
closed = 1;
nodes = (
"199 40 OFFCURVE",
"125 115 OFFCURVE",
"125 239 CURVE SMOOTH",
"125 247 LINE SMOOTH",
"125 371 OFFCURVE",
"200 446 OFFCURVE",
"309 446 CURVE SMOOTH",
"417 446 OFFCURVE",
"497 371 OFFCURVE",
"497 247 CURVE SMOOTH",
"497 239 LINE SMOOTH",
"497 115 OFFCURVE",
"418 40 OFFCURVE",
"309 40 CURVE SMOOTH"
);
}
);
width = 644;
}
);
leftKerningGroup = o;
leftMetricsKey = o;
note = q;
rightKerningGroup = u;
rightMetricsKey = idotless;
unicode = 0071;
},
{
glyphname = r;
lastChange = "2020-05-15 12:35:45 +0000";
layers = (
{
anchors = (
{
name = bottom;
position = "{135, 0}";
},
{
name = top;
position = "{216, 496}";
}
);
layerId = "5117E3E8-E17C-4812-BAF5-9E7064564A59";
paths = (
{
closed = 1;
nodes = (
"70 496 LINE",
"70 0 LINE",
"196 0 LINE",
"196 282 LINE SMOOTH",
"196 352 OFFCURVE",
"242 386 OFFCURVE",
"306 386 CURVE SMOOTH",
"366 386 LINE",
"366 498 LINE",
"308 498 LINE SMOOTH",
"262 498 OFFCURVE",
"226 480 OFFCURVE",
"212 440 CURVE",
"194 440 LINE",
"194 496 LINE"
);
}
);
width = 394;
},
{
anchors = (
{
name = bottom;
position = "{117, 0}";
},
{
name = top;
position = "{210, 486}";
}
);
layerId = "CEFBB1E5-951F-4065-926E-8B9137F837F5";
paths = (
{
closed = 1;
nodes = (
"88 486 LINE",
"88 0 LINE",
"147 0 LINE",
"147 304 LINE SMOOTH",
"147 392 OFFCURVE",
"194 433 OFFCURVE",
"268 433 CURVE SMOOTH",
"342 433 LINE",
"342 488 LINE",
"275 488 LINE SMOOTH",
"210 488 OFFCURVE",
"175 469 OFFCURVE",
"156 425 CURVE",
"145 425 LINE",
"145 486 LINE"
);
}
);
width = 378;
}
);
leftKerningGroup = n;
leftMetricsKey = idotless;
note = r;
rightKerningGroup = r;
unicode = 0072;
},
{
glyphname = s;
lastChange = "2020-05-15 12:35:45 +0000";
layers = (
{
anchors = (
{
name = bottom;
position = "{259, 0}";
},
{
name = top;
position = "{261, 496}";
}
);
layerId = "5117E3E8-E17C-4812-BAF5-9E7064564A59";
paths = (
{
closed = 1;
nodes = (
"60 259 OFFCURVE",
"142 223 OFFCURVE",
"246 203 CURVE SMOOTH",
"272 198 LINE SMOOTH",
"334 186 OFFCURVE",
"362 172 OFFCURVE",
"362 141 CURVE SMOOTH",
"362 110 OFFCURVE",
"334 86 OFFCURVE",
"276 86 CURVE SMOOTH",
"218 86 OFFCURVE",
"171 109 OFFCURVE",
"158 178 CURVE",
"42 148 LINE",
"59 44 OFFCURVE",
"146 -14 OFFCURVE",
"276 -14 CURVE SMOOTH",
"402 -14 OFFCURVE",
"484 45 OFFCURVE",
"484 149 CURVE SMOOTH",
"484 253 OFFCURVE",
"400 281 OFFCURVE",
"288 303 CURVE SMOOTH",
"262 308 LINE SMOOTH",
"210 318 OFFCURVE",
"182 331 OFFCURVE",
"182 363 CURVE SMOOTH",
"182 392 OFFCURVE",
"208 410 OFFCURVE",
"256 410 CURVE SMOOTH",
"304 410 OFFCURVE",
"338 391 OFFCURVE",
"350 340 CURVE",
"464 375 LINE",
"440 455 OFFCURVE",
"367 510 OFFCURVE",
"256 510 CURVE SMOOTH",
"138 510 OFFCURVE",
"60 455 OFFCURVE",
"60 357 CURVE SMOOTH"
);
}
);
width = 524;
},
{
anchors = (
{
name = bottom;
position = "{265, 0}";
},
{
name = top;
position = "{254, 496}";
}
);
associatedMasterId = "5117E3E8-E17C-4812-BAF5-9E7064564A59";
layerId = "39EC1C9D-2CF0-4E69-B53C-635ABF9F3430";
name = "1.1";
paths = (
{
closed = 1;
nodes = (
"40 264 OFFCURVE",
"103 219 OFFCURVE",
"242 203 CURVE SMOOTH",
"259 201 LINE SMOOTH",
"313 195 OFFCURVE",
"364 188 OFFCURVE",
"364 151 CURVE SMOOTH",
"364 112 OFFCURVE",
"317 90 OFFCURVE",
"266 90 CURVE SMOOTH",
"202 90 OFFCURVE",
"135 124 OFFCURVE",
"104 189 CURVE",
"4 126 LINE",
"50 56 OFFCURVE",
"126 -14 OFFCURVE",
"263 -14 CURVE SMOOTH",
"395 -14 OFFCURVE",
"486 57 OFFCURVE",
"486 154 CURVE SMOOTH",
"486 245 OFFCURVE",
"427 286 OFFCURVE",
"268 305 CURVE SMOOTH",
"251 307 LINE SMOOTH",
"199 313 OFFCURVE",
"162 322 OFFCURVE",
"162 358 CURVE SMOOTH",
"162 388 OFFCURVE",
"188 408 OFFCURVE",
"235 408 CURVE SMOOTH",
"301 408 OFFCURVE",
"351 368 OFFCURVE",
"389 323 CURVE",
"480 395 LINE",
"413 465 OFFCURVE",
"341 510 OFFCURVE",
"239 510 CURVE SMOOTH",
"124 510 OFFCURVE",
"40 448 OFFCURVE",
"40 356 CURVE SMOOTH"
);
}
);
width = 508;
},
{
anchors = (
{
name = bottom;
position = "{270, 0}";
},
{
name = top;
position = "{261, 486}";
}
);
layerId = "CEFBB1E5-951F-4065-926E-8B9137F837F5";
paths = (
{
closed = 1;
nodes = (
"79 280 OFFCURVE",
"147 241 OFFCURVE",
"235 228 CURVE SMOOTH",
"293 219 LINE SMOOTH",
"367 208 OFFCURVE",
"415 186 OFFCURVE",
"415 131 CURVE SMOOTH",
"415 73 OFFCURVE",
"360 37 OFFCURVE",
"280 37 CURVE SMOOTH",
"199 37 OFFCURVE",
"129 71 OFFCURVE",
"113 180 CURVE",
"54 167 LINE",
"73 41 OFFCURVE",
"162 -14 OFFCURVE",
"280 -14 CURVE SMOOTH",
"397 -14 OFFCURVE",
"474 41 OFFCURVE",
"474 132 CURVE SMOOTH",
"474 226 OFFCURVE",
"400 257 OFFCURVE",
"305 272 CURVE SMOOTH",
"246 280 LINE SMOOTH",
"186 289 OFFCURVE",
"138 312 OFFCURVE",
"138 364 CURVE SMOOTH",
"138 418 OFFCURVE",
"187 449 OFFCURVE",
"260 449 CURVE SMOOTH",
"332 449 OFFCURVE",
"386 418 OFFCURVE",
"401 340 CURVE",
"457 354 LINE",
"439 447 OFFCURVE",
"370 500 OFFCURVE",
"260 500 CURVE SMOOTH",
"149 500 OFFCURVE",
"79 447 OFFCURVE",
"79 363 CURVE SMOOTH"
);
}
);
width = 529;
}
);
leftKerningGroup = s;
note = s;
rightKerningGroup = s;
unicode = 0073;
},
{
glyphname = germandbls;
lastChange = "2020-05-15 12:35:45 +0000";
layers = (
{
layerId = "5117E3E8-E17C-4812-BAF5-9E7064564A59";
paths = (
{
closed = 1;
nodes = (
"196 0 LINE",
"196 434 LINE SMOOTH",
"196 564 OFFCURVE",
"269 608 OFFCURVE",
"336 608 CURVE SMOOTH",
"390 608 OFFCURVE",
"428 581 OFFCURVE",
"428 543 CURVE SMOOTH",
"428 501 OFFCURVE",
"397 473 OFFCURVE",
"365 450 CURVE SMOOTH",
"322 419 OFFCURVE",
"300 393 OFFCURVE",
"300 347 CURVE SMOOTH",
"300 303 OFFCURVE",
"326 269 OFFCURVE",
"385 248 CURVE SMOOTH",
"427 233 LINE SMOOTH",
"474 216 OFFCURVE",
"503 199 OFFCURVE",
"503 159 CURVE SMOOTH",
"503 119 OFFCURVE",
"474 88 OFFCURVE",
"426 88 CURVE SMOOTH",
"372 88 OFFCURVE",
"343 119 OFFCURVE",
"333 164 CURVE",
"219 127 LINE",
"237 60 OFFCURVE",
"300 -14 OFFCURVE",
"426 -14 CURVE SMOOTH",
"552 -14 OFFCURVE",
"627 60 OFFCURVE",
"627 158 CURVE SMOOTH",
"627 256 OFFCURVE",
"564 298 OFFCURVE",
"480 328 CURVE SMOOTH",
"455 337 LINE SMOOTH",
"437 343 OFFCURVE",
"429 350 OFFCURVE",
"429 360 CURVE SMOOTH",
"429 369 OFFCURVE",
"435 375 OFFCURVE",
"446 382 CURVE SMOOTH",
"500 417 OFFCURVE",
"552 460 OFFCURVE",
"552 547 CURVE SMOOTH",
"552 643 OFFCURVE",
"460 714 OFFCURVE",
"336 714 CURVE SMOOTH",
"179 714 OFFCURVE",
"70 610 OFFCURVE",
"70 430 CURVE SMOOTH",
"70 0 LINE"
);
}
);
width = 651;
},
{
layerId = "CEFBB1E5-951F-4065-926E-8B9137F837F5";
paths = (
{
closed = 1;
nodes = (
"147 0 LINE",
"147 450 LINE SMOOTH",
"147 603 OFFCURVE",
"246 661 OFFCURVE",
"331 661 CURVE SMOOTH",
"401 661 OFFCURVE",
"458 626 OFFCURVE",
"458 564 CURVE SMOOTH",
"458 506 OFFCURVE",
"416 474 OFFCURVE",
"369 448 CURVE SMOOTH",
"330 427 OFFCURVE",
"301 405 OFFCURVE",
"301 361 CURVE SMOOTH",
"301 327 OFFCURVE",
"323 299 OFFCURVE",
"369 278 CURVE SMOOTH",
"405 261 LINE SMOOTH",
"466 233 OFFCURVE",
"528 204 OFFCURVE",
"528 140 CURVE SMOOTH",
"528 75 OFFCURVE",
"480 39 OFFCURVE",
"402 39 CURVE SMOOTH",
"323 39 OFFCURVE",
"266 75 OFFCURVE",
"250 161 CURVE",
"194 149 LINE",
"208 44 OFFCURVE",
"287 -14 OFFCURVE",
"402 -14 CURVE SMOOTH",
"514 -14 OFFCURVE",
"587 45 OFFCURVE",
"587 140 CURVE SMOOTH",
"587 234 OFFCURVE",
"513 270 OFFCURVE",
"437 305 CURVE SMOOTH",
"394 326 LINE SMOOTH",
"372 335 OFFCURVE",
"361 348 OFFCURVE",
"361 363 CURVE SMOOTH",
"361 378 OFFCURVE",
"369 389 OFFCURVE",
"392 401 CURVE SMOOTH",
"460 438 OFFCURVE",
"517 480 OFFCURVE",
"517 565 CURVE SMOOTH",
"517 647 OFFCURVE",
"444 714 OFFCURVE",
"331 714 CURVE SMOOTH",
"188 714 OFFCURVE",
"88 614 OFFCURVE",
"88 446 CURVE SMOOTH",
"88 0 LINE"
);
}
);
width = 618;
}
);
leftMetricsKey = n;
note = germandbls;
unicode = 00DF;
},
{
glyphname = t;
lastChange = "2020-05-15 12:35:45 +0000";
layers = (
{
anchors = (
{
name = bottom;
position = "{232, 0}";
},
{
name = sidecaron;
position = "{282, 737}";
}
);
layerId = "5117E3E8-E17C-4812-BAF5-9E7064564A59";
paths = (
{
closed = 1;
nodes = (
"150 392 LINE",
"150 112 LINE SMOOTH",
"150 44 OFFCURVE",
"194 0 OFFCURVE",
"260 0 CURVE SMOOTH",
"400 0 LINE",
"400 104 LINE",
"304 104 LINE SMOOTH",
"286 104 OFFCURVE",
"276 114 OFFCURVE",
"276 134 CURVE SMOOTH",
"276 392 LINE",
"412 392 LINE",
"412 496 LINE",
"276 496 LINE",
"276 650 LINE",
"150 650 LINE",
"150 496 LINE",
"26 496 LINE",
"26 392 LINE"
);
}
);
width = 456;
},
{
anchors = (
{
name = bottom;
position = "{261, 0}";
},
{
name = sidecaron;
position = "{251, 747}";
}
);
layerId = "CEFBB1E5-951F-4065-926E-8B9137F837F5";
paths = (
{
closed = 1;
nodes = (
"187 434 LINE",
"187 72 LINE SMOOTH",
"187 27 OFFCURVE",
"213 0 OFFCURVE",
"257 0 CURVE SMOOTH",
"390 0 LINE",
"390 52 LINE",
"274 52 LINE SMOOTH",
"256 52 OFFCURVE",
"246 62 OFFCURVE",
"246 82 CURVE SMOOTH",
"246 434 LINE",
"416 434 LINE",
"416 486 LINE",
"246 486 LINE",
"246 668 LINE",
"187 668 LINE",
"187 486 LINE",
"31 486 LINE",
"31 434 LINE"
);
}
);
width = 461;
}
);
leftKerningGroup = t;
note = t;
rightKerningGroup = t;
unicode = 0074;
},
{
glyphname = tbar;
lastChange = "2020-05-15 12:35:45 +0000";
layers = (
{
layerId = "5117E3E8-E17C-4812-BAF5-9E7064564A59";
paths = (
{
closed = 1;
nodes = (
"150 392 LINE",
"150 112 LINE SMOOTH",
"150 44 OFFCURVE",
"194 0 OFFCURVE",
"260 0 CURVE SMOOTH",
"400 0 LINE",
"400 104 LINE",
"304 104 LINE SMOOTH",
"286 104 OFFCURVE",
"276 114 OFFCURVE",
"276 134 CURVE SMOOTH",
"276 392 LINE",
"412 392 LINE",
"412 496 LINE",
"276 496 LINE",
"276 650 LINE",
"150 650 LINE",
"150 496 LINE",
"26 496 LINE",
"26 392 LINE"
);
},
{
closed = 1;
nodes = (
"26 292 LINE",
"26 208 LINE",
"412 208 LINE",
"412 292 LINE"
);
}
);
width = 456;
},
{
layerId = "CEFBB1E5-951F-4065-926E-8B9137F837F5";
paths = (
{
closed = 1;
nodes = (
"187 434 LINE",
"187 72 LINE SMOOTH",
"187 27 OFFCURVE",
"213 0 OFFCURVE",
"257 0 CURVE SMOOTH",
"390 0 LINE",
"390 52 LINE",
"274 52 LINE SMOOTH",
"256 52 OFFCURVE",
"246 62 OFFCURVE",
"246 82 CURVE SMOOTH",
"246 434 LINE",
"416 434 LINE",
"416 486 LINE",
"246 486 LINE",
"246 668 LINE",
"187 668 LINE",
"187 486 LINE",
"31 486 LINE",
"31 434 LINE"
);
},
{
closed = 1;
nodes = (
"31 271 LINE",
"31 224 LINE",
"416 224 LINE",
"416 271 LINE"
);
}
);
width = 461;
}
);
leftKerningGroup = t;
leftMetricsKey = t;
note = tbar;
rightKerningGroup = t;
rightMetricsKey = t;
unicode = 0167;
},
{
glyphname = u;
lastChange = "2020-05-15 12:35:45 +0000";
layers = (
{
anchors = (
{
name = bottom;
position = "{304, 0}";
},
{
name = horn;
position = "{546, 496}";
},
{
name = ogonek;
position = "{484, 0}";
},
{
name = top;
position = "{306, 496}";
}
);
layerId = "5117E3E8-E17C-4812-BAF5-9E7064564A59";
paths = (
{
closed = 1;
nodes = (
"546 496 LINE",
"420 496 LINE",
"420 244 LINE SMOOTH",
"420 152 OFFCURVE",
"375 98 OFFCURVE",
"298 98 CURVE SMOOTH",
"230 98 OFFCURVE",
"192 135 OFFCURVE",
"192 210 CURVE SMOOTH",
"192 496 LINE",
"66 496 LINE",
"66 200 LINE SMOOTH",
"66 77 OFFCURVE",
"143 -8 OFFCURVE",
"259 -8 CURVE SMOOTH",
"348 -8 OFFCURVE",
"388 31 OFFCURVE",
"404 65 CURVE",
"422 65 LINE",
"422 0 LINE",
"546 0 LINE"
);
}
);
width = 616;
},
{
anchors = (
{
name = bottom;
position = "{295, 0}";
},
{
name = horn;
position = "{523, 486}";
},
{
name = ogonek;
position = "{495, 0}";
},
{
name = top;
position = "{304, 486}";
}
);
layerId = "CEFBB1E5-951F-4065-926E-8B9137F837F5";
paths = (
{
closed = 1;
nodes = (
"523 486 LINE",
"464 486 LINE",
"464 242 LINE SMOOTH",
"464 110 OFFCURVE",
"389 44 OFFCURVE",
"289 44 CURVE SMOOTH",
"199 44 OFFCURVE",
"141 89 OFFCURVE",
"141 194 CURVE SMOOTH",
"141 486 LINE",
"82 486 LINE",
"82 190 LINE SMOOTH",
"82 56 OFFCURVE",
"172 -10 OFFCURVE",
"276 -10 CURVE SMOOTH",
"380 -10 OFFCURVE",
"430 37 OFFCURVE",
"455 83 CURVE",
"466 83 LINE",
"466 0 LINE",
"523 0 LINE"
);
}
);
width = 611;
}
);
leftKerningGroup = u;
note = u;
rightKerningGroup = u;
rightMetricsKey = idotless;
unicode = 0075;
},
{
glyphname = v;
lastChange = "2020-05-15 12:35:45 +0000";
layers = (
{
layerId = "5117E3E8-E17C-4812-BAF5-9E7064564A59";
paths = (
{
closed = 1;
nodes = (
"174 0 LINE",
"374 0 LINE",
"532 496 LINE",
"398 496 LINE",
"283 92 LINE",
"265 92 LINE",
"150 496 LINE",
"16 496 LINE"
);
}
);
width = 548;
},
{
layerId = "CEFBB1E5-951F-4065-926E-8B9137F837F5";
paths = (
{
closed = 1;
nodes = (
"222 0 LINE",
"315 0 LINE",
"501 486 LINE",
"436 486 LINE",
"274 47 LINE",
"263 47 LINE",
"102 486 LINE",
"37 486 LINE"
);
}
);
width = 538;
}
);
leftKerningGroup = v;
note = v;
rightKerningGroup = v;
unicode = 0076;
},
{
glyphname = w;
lastChange = "2020-05-15 12:35:45 +0000";
layers = (
{
anchors = (
{
name = top;
position = "{392, 496}";
}
);
layerId = "5117E3E8-E17C-4812-BAF5-9E7064564A59";
paths = (
{
closed = 1;
nodes = (
"110 0 LINE",
"319 0 LINE",
"383 411 LINE",
"401 411 LINE",
"465 0 LINE",
"674 0 LINE",
"744 496 LINE",
"619 496 LINE",
"575 85 LINE",
"557 85 LINE",
"493 496 LINE",
"291 496 LINE",
"227 85 LINE",
"209 85 LINE",
"165 496 LINE",
"40 496 LINE"
);
}
);
width = 784;
},
{
anchors = (
{
name = top;
position = "{404, 486}";
}
);
layerId = "CEFBB1E5-951F-4065-926E-8B9137F837F5";
paths = (
{
closed = 1;
nodes = (
"169 0 LINE",
"273 0 LINE",
"398 444 LINE",
"411 444 LINE",
"536 0 LINE",
"640 0 LINE",
"751 486 LINE",
"689 486 LINE",
"593 41 LINE",
"581 41 LINE",
"455 486 LINE",
"353 486 LINE",
"228 41 LINE",
"215 41 LINE",
"120 486 LINE",
"58 486 LINE"
);
}
);
width = 809;
}
);
leftKerningGroup = w;
note = w;
rightKerningGroup = w;
unicode = 0077;
},
{
glyphname = x;
lastChange = "2020-05-15 12:35:45 +0000";
layers = (
{
layerId = "5117E3E8-E17C-4812-BAF5-9E7064564A59";
paths = (
{
closed = 1;
nodes = (
"206 250 LINE",
"26 0 LINE",
"174 0 LINE",
"287 167 LINE",
"305 167 LINE",
"418 0 LINE",
"566 0 LINE",
"386 250 LINE",
"564 496 LINE",
"418 496 LINE",
"305 331 LINE",
"287 331 LINE",
"174 496 LINE",
"28 496 LINE"
);
}
);
width = 592;
},
{
layerId = "CEFBB1E5-951F-4065-926E-8B9137F837F5";
paths = (
{
closed = 1;
nodes = (
"253 247 LINE",
"51 0 LINE",
"127 0 LINE",
"291 207 LINE",
"302 207 LINE",
"467 0 LINE",
"543 0 LINE",
"341 247 LINE",
"536 486 LINE",
"461 486 LINE",
"302 287 LINE",
"291 287 LINE",
"133 486 LINE",
"58 486 LINE"
);
}
);
width = 594;
}
);
leftKerningGroup = x;
note = x;
rightKerningGroup = x;
unicode = 0078;
},
{
glyphname = y;
lastChange = "2020-05-15 12:35:45 +0000";
layers = (
{
anchors = (
{
name = bottom;
position = "{660, 0}";
},
{
name = top;
position = "{306, 496}";
}
);
layerId = "5117E3E8-E17C-4812-BAF5-9E7064564A59";
paths = (
{
closed = 1;
nodes = (
"546 496 LINE",
"420 496 LINE",
"420 244 LINE SMOOTH",
"420 152 OFFCURVE",
"375 98 OFFCURVE",
"298 98 CURVE SMOOTH",
"230 98 OFFCURVE",
"192 135 OFFCURVE",
"192 210 CURVE SMOOTH",
"192 496 LINE",
"66 496 LINE",
"66 200 LINE SMOOTH",
"66 77 OFFCURVE",
"143 -8 OFFCURVE",
"259 -8 CURVE SMOOTH",
"348 -8 OFFCURVE",
"388 31 OFFCURVE",
"404 65 CURVE",
"422 65 LINE",
"422 0 LINE",
"546 0 LINE"
);
},
{
closed = 1;
nodes = (
"124 -200 LINE",
"436 -200 LINE SMOOTH",
"502 -200 OFFCURVE",
"546 -156 OFFCURVE",
"546 -88 CURVE SMOOTH",
"546 0 LINE",
"422 0 LINE",
"422 -60 LINE SMOOTH",
"422 -80 OFFCURVE",
"412 -90 OFFCURVE",
"394 -90 CURVE SMOOTH",
"124 -90 LINE"
);
}
);
width = 616;
},
{
anchors = (
{
name = top;
position = "{274, 496}";
}
);
associatedMasterId = "5117E3E8-E17C-4812-BAF5-9E7064564A59";
layerId = "9D0E3B52-0C7F-449D-9D20-01CA693A13A8";
name = "Sep 28 19, 01:54";
paths = (
{
closed = 1;
nodes = (
"156 0 LINE",
"306 0 LINE",
"331 -200 LINE",
"544 496 LINE",
"408 496 LINE",
"280 40 LINE",
"268 40 LINE",
"140 496 LINE",
"4 496 LINE"
);
},
{
closed = 1;
nodes = (
"331 -200 LINE",
"544 496 LINE",
"408 496 LINE",
"280 40 LINE",
"264 0 LINE",
"195 -200 LINE"
);
}
);
width = 548;
},
{
anchors = (
{
name = bottom;
position = "{609, -42}";
},
{
name = top;
position = "{303, 486}";
}
);
layerId = "CEFBB1E5-951F-4065-926E-8B9137F837F5";
paths = (
{
closed = 1;
nodes = (
"523 486 LINE",
"464 486 LINE",
"464 242 LINE SMOOTH",
"464 110 OFFCURVE",
"389 44 OFFCURVE",
"289 44 CURVE SMOOTH",
"199 44 OFFCURVE",
"141 89 OFFCURVE",
"141 194 CURVE SMOOTH",
"141 486 LINE",
"82 486 LINE",
"82 190 LINE SMOOTH",
"82 56 OFFCURVE",
"172 -10 OFFCURVE",
"276 -10 CURVE SMOOTH",
"380 -10 OFFCURVE",
"430 37 OFFCURVE",
"455 83 CURVE",
"466 83 LINE",
"466 0 LINE",
"523 0 LINE"
);
},
{
closed = 1;
nodes = (
"150 -200 LINE",
"454 -200 LINE SMOOTH",
"497 -200 OFFCURVE",
"523 -174 OFFCURVE",
"523 -128 CURVE SMOOTH",
"523 0 LINE",
"466 0 LINE",
"466 -117 LINE SMOOTH",
"466 -137 OFFCURVE",
"456 -147 OFFCURVE",
"438 -147 CURVE SMOOTH",
"150 -147 LINE"
);
}
);
width = 611;
}
);
leftKerningGroup = u;
leftMetricsKey = u;
note = y;
rightKerningGroup = u;
rightMetricsKey = u;
unicode = 0079;
},
{
glyphname = z;
lastChange = "2020-05-15 12:35:45 +0000";
layers = (
{
anchors = (
{
name = top;
position = "{259, 496}";
}
);
layerId = "5117E3E8-E17C-4812-BAF5-9E7064564A59";
paths = (
{
closed = 1;
nodes = (
"62 392 LINE",
"324 392 LINE",
"324 376 LINE",
"52 150 LINE",
"52 0 LINE",
"470 0 LINE",
"470 104 LINE",
"190 104 LINE",
"190 120 LINE",
"462 346 LINE",
"462 496 LINE",
"62 496 LINE"
);
}
);
width = 518;
},
{
anchors = (
{
name = top;
position = "{253, 486}";
}
);
layerId = "CEFBB1E5-951F-4065-926E-8B9137F837F5";
paths = (
{
closed = 1;
nodes = (
"74 434 LINE",
"391 434 LINE",
"391 425 LINE",
"64 80 LINE",
"64 0 LINE",
"460 0 LINE",
"460 52 LINE",
"124 52 LINE",
"124 61 LINE",
"452 406 LINE",
"452 486 LINE",
"74 486 LINE"
);
}
);
width = 522;
}
);
leftKerningGroup = z;
note = z;
rightKerningGroup = z;
unicode = 007A;
},
{
glyphname = a.ss01;
lastChange = "2020-05-15 12:35:45 +0000";
layers = (
{
anchors = (
{
name = bottom;
position = "{311, 0}";
},
{
name = ogonek;
position = "{546, 0}";
},
{
name = top;
position = "{320, 496}";
}
);
layerId = "5117E3E8-E17C-4812-BAF5-9E7064564A59";
paths = (
{
closed = 1;
nodes = (
"568 496 LINE",
"444 496 LINE",
"444 436 LINE",
"426 436 LINE",
"403 474 OFFCURVE",
"360 510 OFFCURVE",
"270 510 CURVE SMOOTH",
"151 510 OFFCURVE",
"46 418 OFFCURVE",
"46 256 CURVE SMOOTH",
"46 240 LINE SMOOTH",
"46 78 OFFCURVE",
"150 -14 OFFCURVE",
"270 -14 CURVE SMOOTH",
"367 -14 OFFCURVE",
"412 27 OFFCURVE",
"435 76 CURVE",
"568 76 LINE"
);
},
{
closed = 1;
nodes = (
"230 96 OFFCURVE",
"172 147 OFFCURVE",
"172 243 CURVE SMOOTH",
"172 253 LINE SMOOTH",
"172 349 OFFCURVE",
"231 400 OFFCURVE",
"308 400 CURVE SMOOTH",
"385 400 OFFCURVE",
"444 349 OFFCURVE",
"444 253 CURVE SMOOTH",
"444 243 LINE SMOOTH",
"444 147 OFFCURVE",
"386 96 OFFCURVE",
"308 96 CURVE SMOOTH"
);
},
{
closed = 1;
nodes = (
"452 162 LINE",
"452 92 LINE SMOOTH",
"452 36 OFFCURVE",
"486 0 OFFCURVE",
"540 0 CURVE SMOOTH",
"636 0 LINE",
"636 104 LINE",
"596 104 LINE SMOOTH",
"578 104 OFFCURVE",
"568 114 OFFCURVE",
"568 134 CURVE SMOOTH",
"568 162 LINE"
);
}
);
width = 660;
},
{
anchors = (
{
name = bottom;
position = "{316, 0}";
},
{
name = ogonek;
position = "{558, 0}";
},
{
name = top;
position = "{327, 486}";
}
);
layerId = "CEFBB1E5-951F-4065-926E-8B9137F837F5";
paths = (
{
closed = 1;
nodes = (
"556 486 LINE",
"498 486 LINE",
"498 398 LINE",
"487 398 LINE",
"458 450 OFFCURVE",
"404 500 OFFCURVE",
"296 500 CURVE SMOOTH",
"166 500 OFFCURVE",
"64 403 OFFCURVE",
"64 249 CURVE SMOOTH",
"64 237 LINE SMOOTH",
"64 82 OFFCURVE",
"165 -14 OFFCURVE",
"296 -14 CURVE SMOOTH",
"405 -14 OFFCURVE",
"459 37 OFFCURVE",
"488 89 CURVE",
"556 89 LINE"
);
},
{
closed = 1;
nodes = (
"199 40 OFFCURVE",
"125 115 OFFCURVE",
"125 239 CURVE SMOOTH",
"125 247 LINE SMOOTH",
"125 371 OFFCURVE",
"200 446 OFFCURVE",
"309 446 CURVE SMOOTH",
"417 446 OFFCURVE",
"497 371 OFFCURVE",
"497 247 CURVE SMOOTH",
"497 239 LINE SMOOTH",
"497 115 OFFCURVE",
"418 40 OFFCURVE",
"309 40 CURVE SMOOTH"
);
},
{
closed = 1;
nodes = (
"499 111 LINE",
"499 69 LINE SMOOTH",
"499 26 OFFCURVE",
"525 0 OFFCURVE",
"566 0 CURVE SMOOTH",
"631 0 LINE",
"631 50 LINE",
"584 50 LINE SMOOTH",
"566 50 OFFCURVE",
"556 60 OFFCURVE",
"556 80 CURVE SMOOTH",
"556 111 LINE"
);
}
);
width = 662;
}
);
leftKerningGroup = o;
leftMetricsKey = o;
note = a;
rightKerningGroup = a.ss01;
},
{
glyphname = f_f.liga;
lastChange = "2020-05-15 12:35:45 +0000";
layers = (
{
anchors = (
{
name = caret_1;
position = "{371, 0}";
}
);
layerId = "5117E3E8-E17C-4812-BAF5-9E7064564A59";
paths = (
{
closed = 1;
nodes = (
"26 390 LINE",
"152 390 LINE",
"152 0 LINE",
"278 0 LINE",
"278 390 LINE",
"408 390 LINE",
"408 496 LINE",
"278 496 LINE",
"278 566 LINE SMOOTH",
"278 586 OFFCURVE",
"288 596 OFFCURVE",
"306 596 CURVE SMOOTH",
"382 596 LINE",
"382 700 LINE",
"252 700 LINE SMOOTH",
"194 700 OFFCURVE",
"152 656 OFFCURVE",
"152 598 CURVE SMOOTH",
"152 496 LINE",
"26 496 LINE"
);
},
{
closed = 1;
nodes = (
"332 390 LINE",
"458 390 LINE",
"458 0 LINE",
"584 0 LINE",
"584 390 LINE",
"714 390 LINE",
"714 496 LINE",
"584 496 LINE",
"584 566 LINE SMOOTH",
"584 586 OFFCURVE",
"594 596 OFFCURVE",
"612 596 CURVE SMOOTH",
"688 596 LINE",
"688 700 LINE",
"558 700 LINE SMOOTH",
"500 700 OFFCURVE",
"458 656 OFFCURVE",
"458 598 CURVE SMOOTH",
"458 496 LINE",
"332 496 LINE"
);
}
);
width = 742;
},
{
anchors = (
{
name = caret_1;
position = "{373, 0}";
}
);
layerId = "CEFBB1E5-951F-4065-926E-8B9137F837F5";
paths = (
{
closed = 1;
nodes = (
"31 434 LINE",
"192 434 LINE",
"192 0 LINE",
"252 0 LINE",
"252 434 LINE",
"415 434 LINE",
"415 486 LINE",
"252 486 LINE",
"252 619 LINE SMOOTH",
"252 639 OFFCURVE",
"262 649 OFFCURVE",
"280 649 CURVE SMOOTH",
"389 649 LINE",
"389 700 LINE",
"261 700 LINE SMOOTH",
"219 700 OFFCURVE",
"192 674 OFFCURVE",
"192 630 CURVE SMOOTH",
"192 486 LINE",
"31 486 LINE"
);
},
{
closed = 1;
nodes = (
"323 434 LINE",
"484 434 LINE",
"484 0 LINE",
"544 0 LINE",
"544 434 LINE",
"707 434 LINE",
"707 486 LINE",
"544 486 LINE",
"544 619 LINE SMOOTH",
"544 639 OFFCURVE",
"554 649 OFFCURVE",
"572 649 CURVE SMOOTH",
"681 649 LINE",
"681 700 LINE",
"553 700 LINE SMOOTH",
"511 700 OFFCURVE",
"484 674 OFFCURVE",
"484 630 CURVE SMOOTH",
"484 486 LINE",
"323 486 LINE"
);
}
);
width = 744;
}
);
leftKerningGroup = t;
leftMetricsKey = f;
note = fi;
rightKerningGroup = f;
rightMetricsKey = f;
},
{
glyphname = f_f_i.liga;
lastChange = "2020-05-15 12:35:45 +0000";
layers = (
{
anchors = (
{
name = caret_1;
position = "{370, 0}";
},
{
name = caret_2;
position = "{674, 0}";
}
);
components = (
{
name = i;
transform = "{1, 0, 0, 1, 708, 0}";
}
);
layerId = "5117E3E8-E17C-4812-BAF5-9E7064564A59";
paths = (
{
closed = 1;
nodes = (
"26 390 LINE",
"152 390 LINE",
"152 0 LINE",
"278 0 LINE",
"278 390 LINE",
"408 390 LINE",
"408 496 LINE",
"278 496 LINE",
"278 566 LINE SMOOTH",
"278 586 OFFCURVE",
"288 596 OFFCURVE",
"306 596 CURVE SMOOTH",
"382 596 LINE",
"382 700 LINE",
"252 700 LINE SMOOTH",
"194 700 OFFCURVE",
"152 656 OFFCURVE",
"152 598 CURVE SMOOTH",
"152 496 LINE",
"26 496 LINE"
);
},
{
closed = 1;
nodes = (
"332 390 LINE",
"458 390 LINE",
"458 0 LINE",
"584 0 LINE",
"584 390 LINE",
"890 390 LINE",
"890 496 LINE",
"584 496 LINE",
"584 566 LINE SMOOTH",
"584 586 OFFCURVE",
"594 596 OFFCURVE",
"612 596 CURVE SMOOTH",
"674 596 LINE",
"674 700 LINE",
"558 700 LINE SMOOTH",
"500 700 OFFCURVE",
"458 656 OFFCURVE",
"458 598 CURVE SMOOTH",
"458 496 LINE",
"332 496 LINE"
);
}
);
width = 974;
},
{
anchors = (
{
name = caret_1;
position = "{354, 0}";
},
{
name = caret_2;
position = "{662, 0}";
}
);
components = (
{
alignment = -1;
name = i;
transform = "{1, 0, 0, 1, 698, 0}";
}
);
layerId = "CEFBB1E5-951F-4065-926E-8B9137F837F5";
paths = (
{
closed = 1;
nodes = (
"31 434 LINE",
"192 434 LINE",
"192 0 LINE",
"252 0 LINE",
"252 434 LINE",
"415 434 LINE",
"415 486 LINE",
"252 486 LINE",
"252 619 LINE SMOOTH",
"252 639 OFFCURVE",
"262 649 OFFCURVE",
"280 649 CURVE SMOOTH",
"389 649 LINE",
"389 700 LINE",
"261 700 LINE SMOOTH",
"219 700 OFFCURVE",
"192 674 OFFCURVE",
"192 630 CURVE SMOOTH",
"192 486 LINE",
"31 486 LINE"
);
},
{
closed = 1;
nodes = (
"323 434 LINE",
"484 434 LINE",
"484 0 LINE",
"544 0 LINE",
"544 434 LINE",
"836 434 LINE",
"836 486 LINE",
"544 486 LINE",
"544 619 LINE SMOOTH",
"544 639 OFFCURVE",
"554 649 OFFCURVE",
"572 649 CURVE SMOOTH",
"674 649 LINE",
"674 700 LINE",
"553 700 LINE SMOOTH",
"511 700 OFFCURVE",
"484 674 OFFCURVE",
"484 630 CURVE SMOOTH",
"484 486 LINE",
"323 486 LINE"
);
}
);
width = 933;
}
);
leftKerningGroup = t;
leftMetricsKey = f;
note = fi;
rightKerningGroup = i;
rightMetricsKey = i;
},
{
glyphname = f_f_j.liga;
lastChange = "2020-05-15 12:35:45 +0000";
layers = (
{
anchors = (
{
name = caret_1;
position = "{367, 0}";
},
{
name = caret_2;
position = "{700, 0}";
}
);
components = (
{
name = j;
transform = "{1, 0, 0, 1, 704, 0}";
}
);
layerId = "5117E3E8-E17C-4812-BAF5-9E7064564A59";
paths = (
{
closed = 1;
nodes = (
"26 390 LINE",
"152 390 LINE",
"152 0 LINE",
"278 0 LINE",
"278 390 LINE",
"408 390 LINE",
"408 496 LINE",
"278 496 LINE",
"278 566 LINE SMOOTH",
"278 586 OFFCURVE",
"288 596 OFFCURVE",
"306 596 CURVE SMOOTH",
"382 596 LINE",
"382 700 LINE",
"252 700 LINE SMOOTH",
"194 700 OFFCURVE",
"152 656 OFFCURVE",
"152 598 CURVE SMOOTH",
"152 496 LINE",
"26 496 LINE"
);
},
{
closed = 1;
nodes = (
"332 390 LINE",
"458 390 LINE",
"458 0 LINE",
"584 0 LINE",
"584 390 LINE",
"890 390 LINE",
"890 496 LINE",
"584 496 LINE",
"584 566 LINE SMOOTH",
"584 586 OFFCURVE",
"594 596 OFFCURVE",
"612 596 CURVE SMOOTH",
"674 596 LINE",
"674 700 LINE",
"558 700 LINE SMOOTH",
"500 700 OFFCURVE",
"458 656 OFFCURVE",
"458 598 CURVE SMOOTH",
"458 496 LINE",
"332 496 LINE"
);
}
);
width = 972;
},
{
anchors = (
{
name = caret_1;
position = "{362, 0}";
},
{
name = caret_2;
position = "{679, 0}";
}
);
components = (
{
alignment = -1;
name = j;
transform = "{1, 0, 0, 1, 690, 0}";
}
);
layerId = "CEFBB1E5-951F-4065-926E-8B9137F837F5";
paths = (
{
closed = 1;
nodes = (
"31 434 LINE",
"192 434 LINE",
"192 0 LINE",
"252 0 LINE",
"252 434 LINE",
"415 434 LINE",
"415 486 LINE",
"252 486 LINE",
"252 619 LINE SMOOTH",
"252 639 OFFCURVE",
"262 649 OFFCURVE",
"280 649 CURVE SMOOTH",
"389 649 LINE",
"389 700 LINE",
"261 700 LINE SMOOTH",
"219 700 OFFCURVE",
"192 674 OFFCURVE",
"192 630 CURVE SMOOTH",
"192 486 LINE",
"31 486 LINE"
);
},
{
closed = 1;
nodes = (
"323 434 LINE",
"484 434 LINE",
"484 0 LINE",
"544 0 LINE",
"544 434 LINE",
"836 434 LINE",
"836 486 LINE",
"544 486 LINE",
"544 619 LINE SMOOTH",
"544 639 OFFCURVE",
"554 649 OFFCURVE",
"572 649 CURVE SMOOTH",
"674 649 LINE",
"674 700 LINE",
"553 700 LINE SMOOTH",
"511 700 OFFCURVE",
"484 674 OFFCURVE",
"484 630 CURVE SMOOTH",
"484 486 LINE",
"323 486 LINE"
);
}
);
width = 927;
}
);
leftKerningGroup = t;
leftMetricsKey = f;
note = fi;
rightKerningGroup = i;
rightMetricsKey = i;
},
{
glyphname = f_i.liga;
lastChange = "2020-05-15 12:35:45 +0000";
layers = (
{
anchors = (
{
name = caret_1;
position = "{368, 0}";
}
);
components = (
{
name = i;
transform = "{1, 0, 0, 1, 402, 0}";
}
);
layerId = "5117E3E8-E17C-4812-BAF5-9E7064564A59";
paths = (
{
closed = 1;
nodes = (
"26 390 LINE",
"152 390 LINE",
"152 0 LINE",
"278 0 LINE",
"278 390 LINE",
"584 390 LINE",
"584 496 LINE",
"278 496 LINE",
"278 566 LINE SMOOTH",
"278 586 OFFCURVE",
"288 596 OFFCURVE",
"306 596 CURVE SMOOTH",
"368 596 LINE",
"368 700 LINE",
"252 700 LINE SMOOTH",
"194 700 OFFCURVE",
"152 656 OFFCURVE",
"152 598 CURVE SMOOTH",
"152 496 LINE",
"26 496 LINE"
);
}
);
width = 668;
},
{
anchors = (
{
name = caret_1;
position = "{368, 0}";
}
);
components = (
{
alignment = -1;
name = i;
transform = "{1, 0, 0, 1, 406, 0}";
}
);
layerId = "CEFBB1E5-951F-4065-926E-8B9137F837F5";
paths = (
{
closed = 1;
nodes = (
"31 434 LINE",
"192 434 LINE",
"192 0 LINE",
"252 0 LINE",
"252 434 LINE",
"544 434 LINE",
"544 486 LINE",
"252 486 LINE",
"252 619 LINE SMOOTH",
"252 639 OFFCURVE",
"262 649 OFFCURVE",
"280 649 CURVE SMOOTH",
"382 649 LINE",
"382 700 LINE",
"261 700 LINE SMOOTH",
"219 700 OFFCURVE",
"192 674 OFFCURVE",
"192 630 CURVE SMOOTH",
"192 486 LINE",
"31 486 LINE"
);
}
);
width = 641;
}
);
leftKerningGroup = t;
leftMetricsKey = f;
note = fi;
rightKerningGroup = i;
rightMetricsKey = i;
},
{
glyphname = f_j.liga;
lastChange = "2020-05-15 12:35:45 +0000";
layers = (
{
anchors = (
{
name = caret_1;
position = "{378, 0}";
}
);
components = (
{
name = j;
transform = "{1, 0, 0, 1, 398, 0}";
}
);
layerId = "5117E3E8-E17C-4812-BAF5-9E7064564A59";
paths = (
{
closed = 1;
nodes = (
"26 390 LINE",
"152 390 LINE",
"152 0 LINE",
"278 0 LINE",
"278 390 LINE",
"584 390 LINE",
"584 496 LINE",
"278 496 LINE",
"278 566 LINE SMOOTH",
"278 586 OFFCURVE",
"288 596 OFFCURVE",
"306 596 CURVE SMOOTH",
"368 596 LINE",
"368 700 LINE",
"252 700 LINE SMOOTH",
"194 700 OFFCURVE",
"152 656 OFFCURVE",
"152 598 CURVE SMOOTH",
"152 496 LINE",
"26 496 LINE"
);
}
);
width = 666;
},
{
anchors = (
{
name = caret_1;
position = "{378, 0}";
}
);
components = (
{
alignment = -1;
name = j;
transform = "{1, 0, 0, 1, 398, 0}";
}
);
layerId = "CEFBB1E5-951F-4065-926E-8B9137F837F5";
paths = (
{
closed = 1;
nodes = (
"31 434 LINE",
"192 434 LINE",
"192 0 LINE",
"252 0 LINE",
"252 434 LINE",
"544 434 LINE",
"544 486 LINE",
"252 486 LINE",
"252 619 LINE SMOOTH",
"252 639 OFFCURVE",
"262 649 OFFCURVE",
"280 649 CURVE SMOOTH",
"382 649 LINE",
"382 700 LINE",
"261 700 LINE SMOOTH",
"219 700 OFFCURVE",
"192 674 OFFCURVE",
"192 630 CURVE SMOOTH",
"192 486 LINE",
"31 486 LINE"
);
}
);
width = 635;
}
);
leftKerningGroup = t;
leftMetricsKey = f;
note = fi;
rightKerningGroup = i;
rightMetricsKey = i;
},
{
glyphname = f_l.liga;
lastChange = "2020-05-15 12:35:45 +0000";
layers = (
{
anchors = (
{
name = caret_1;
position = "{377, 0}";
},
{
name = sidecaron;
position = "{579, 700}";
}
);
layerId = "5117E3E8-E17C-4812-BAF5-9E7064564A59";
paths = (
{
closed = 1;
nodes = (
"458 0 LINE",
"584 0 LINE",
"584 700 LINE",
"458 700 LINE"
);
},
{
closed = 1;
nodes = (
"26 388 LINE",
"152 388 LINE",
"152 0 LINE",
"278 0 LINE",
"278 388 LINE",
"394 388 LINE",
"394 496 LINE",
"278 496 LINE",
"278 562 LINE SMOOTH",
"278 582 OFFCURVE",
"288 592 OFFCURVE",
"306 592 CURVE SMOOTH",
"372 592 LINE",
"372 700 LINE",
"252 700 LINE SMOOTH",
"194 700 OFFCURVE",
"152 656 OFFCURVE",
"152 598 CURVE SMOOTH",
"152 496 LINE",
"26 496 LINE"
);
}
);
width = 654;
},
{
anchors = (
{
name = caret_1;
position = "{384, 0}";
},
{
name = sidecaron;
position = "{539, 700}";
}
);
layerId = "CEFBB1E5-951F-4065-926E-8B9137F837F5";
paths = (
{
closed = 1;
nodes = (
"484 0 LINE",
"544 0 LINE",
"544 700 LINE",
"484 700 LINE"
);
},
{
closed = 1;
nodes = (
"31 434 LINE",
"192 434 LINE",
"192 0 LINE",
"252 0 LINE",
"252 434 LINE",
"401 434 LINE",
"401 486 LINE",
"252 486 LINE",
"252 618 LINE SMOOTH",
"252 638 OFFCURVE",
"262 648 OFFCURVE",
"280 648 CURVE SMOOTH",
"379 648 LINE",
"379 700 LINE",
"261 700 LINE SMOOTH",
"219 700 OFFCURVE",
"192 674 OFFCURVE",
"192 630 CURVE SMOOTH",
"192 486 LINE",
"31 486 LINE"
);
}
);
width = 632;
}
);
leftKerningGroup = t;
leftMetricsKey = f;
note = fl;
rightKerningGroup = l;
rightMetricsKey = l;
},
{
glyphname = f_lcaron.liga;
lastChange = "2020-05-15 12:35:45 +0000";
layers = (
{
components = (
{
alignment = -1;
name = l;
transform = "{1, 0, 0, 1, 402, 0}";
},
{
name = sidecaron;
transform = "{1, 0, 0, 1, 547, 0}";
}
);
layerId = "5117E3E8-E17C-4812-BAF5-9E7064564A59";
paths = (
{
closed = 1;
nodes = (
"26 388 LINE",
"152 388 LINE",
"152 0 LINE",
"278 0 LINE",
"278 388 LINE",
"394 388 LINE",
"394 496 LINE",
"278 496 LINE",
"278 562 LINE SMOOTH",
"278 582 OFFCURVE",
"288 592 OFFCURVE",
"306 592 CURVE SMOOTH",
"372 592 LINE",
"372 700 LINE",
"252 700 LINE SMOOTH",
"194 700 OFFCURVE",
"152 656 OFFCURVE",
"152 598 CURVE SMOOTH",
"152 496 LINE",
"26 496 LINE"
);
}
);
width = 735;
},
{
components = (
{
alignment = -1;
name = l;
transform = "{1, 0, 0, 1, 406, 0}";
},
{
alignment = -1;
name = sidecaron;
transform = "{1, 0, 0, 1, 486, 0}";
}
);
layerId = "CEFBB1E5-951F-4065-926E-8B9137F837F5";
paths = (
{
closed = 1;
nodes = (
"31 434 LINE",
"192 434 LINE",
"192 0 LINE",
"252 0 LINE",
"252 434 LINE",
"401 434 LINE",
"401 486 LINE",
"252 486 LINE",
"252 618 LINE SMOOTH",
"252 638 OFFCURVE",
"262 648 OFFCURVE",
"280 648 CURVE SMOOTH",
"379 648 LINE",
"379 700 LINE",
"261 700 LINE SMOOTH",
"219 700 OFFCURVE",
"192 674 OFFCURVE",
"192 630 CURVE SMOOTH",
"192 486 LINE",
"31 486 LINE"
);
}
);
width = 663;
}
);
leftKerningGroup = t;
leftMetricsKey = f;
note = fl;
rightKerningGroup = lcaron;
rightMetricsKey = lcaron;
},
{
glyphname = t_t.liga;
lastChange = "2020-05-15 12:35:45 +0000";
layers = (
{
anchors = (
{
name = caret_1;
position = "{438, 0}";
}
);
layerId = "5117E3E8-E17C-4812-BAF5-9E7064564A59";
paths = (
{
closed = 1;
nodes = (
"150 394 LINE",
"150 112 LINE SMOOTH",
"150 44 OFFCURVE",
"194 0 OFFCURVE",
"260 0 CURVE SMOOTH",
"390 0 LINE",
"390 102 LINE",
"304 102 LINE SMOOTH",
"286 102 OFFCURVE",
"276 112 OFFCURVE",
"276 132 CURVE SMOOTH",
"276 394 LINE",
"412 394 LINE",
"412 496 LINE",
"276 496 LINE",
"276 650 LINE",
"150 650 LINE",
"150 496 LINE",
"26 496 LINE",
"26 394 LINE"
);
},
{
closed = 1;
nodes = (
"456 394 LINE",
"456 112 LINE SMOOTH",
"456 44 OFFCURVE",
"500 0 OFFCURVE",
"566 0 CURVE SMOOTH",
"706 0 LINE",
"706 102 LINE",
"610 102 LINE SMOOTH",
"592 102 OFFCURVE",
"582 112 OFFCURVE",
"582 132 CURVE SMOOTH",
"582 394 LINE",
"718 394 LINE",
"718 496 LINE",
"582 496 LINE",
"582 650 LINE",
"456 650 LINE",
"456 496 LINE",
"332 496 LINE",
"332 394 LINE"
);
}
);
width = 762;
},
{
anchors = (
{
name = caret_1;
position = "{448, 0}";
}
);
layerId = "CEFBB1E5-951F-4065-926E-8B9137F837F5";
paths = (
{
closed = 1;
nodes = (
"192 434 LINE",
"192 72 LINE SMOOTH",
"192 27 OFFCURVE",
"219 0 OFFCURVE",
"262 0 CURVE SMOOTH",
"390 0 LINE",
"390 51 LINE",
"280 51 LINE SMOOTH",
"262 51 OFFCURVE",
"252 61 OFFCURVE",
"252 81 CURVE SMOOTH",
"252 434 LINE",
"421 434 LINE",
"421 486 LINE",
"252 486 LINE",
"252 668 LINE",
"192 668 LINE",
"192 486 LINE",
"31 486 LINE",
"31 434 LINE"
);
},
{
closed = 1;
nodes = (
"484 434 LINE",
"484 72 LINE SMOOTH",
"484 27 OFFCURVE",
"511 0 OFFCURVE",
"554 0 CURVE SMOOTH",
"687 0 LINE",
"687 51 LINE",
"572 51 LINE SMOOTH",
"554 51 OFFCURVE",
"544 61 OFFCURVE",
"544 81 CURVE SMOOTH",
"544 434 LINE",
"713 434 LINE",
"713 486 LINE",
"544 486 LINE",
"544 668 LINE",
"484 668 LINE",
"484 486 LINE",
"323 486 LINE",
"323 434 LINE"
);
}
);
width = 758;
}
);
leftMetricsKey = t;
rightMetricsKey = t;
},
{
glyphname = ordfeminine;
lastChange = "2020-05-15 12:35:45 +0000";
layers = (
{
background = {
paths = (
{
closed = 1;
nodes = (
"104 577 LINE",
"111 611 OFFCURVE",
"134 639 OFFCURVE",
"182 639 CURVE SMOOTH",
"228 639 OFFCURVE",
"247 613 OFFCURVE",
"247 584 CURVE SMOOTH",
"247 576 LINE",
"140 560 LINE SMOOTH",
"66 549 OFFCURVE",
"12 518 OFFCURVE",
"12 455 CURVE SMOOTH",
"12 391 OFFCURVE",
"66 354 OFFCURVE",
"137 354 CURVE SMOOTH",
"203 354 OFFCURVE",
"231 388 OFFCURVE",
"241 406 CURVE",
"248 406 LINE",
"248 364 LINE",
"337 364 LINE",
"337 577 LINE SMOOTH",
"337 662 OFFCURVE",
"277 712 OFFCURVE",
"186 712 CURVE SMOOTH",
"95 712 OFFCURVE",
"39 662 OFFCURVE",
"15 607 CURVE"
);
},
{
closed = 1;
nodes = (
"104 480 OFFCURVE",
"120 492 OFFCURVE",
"150 497 CURVE SMOOTH",
"247 512 LINE",
"247 505 LINE SMOOTH",
"247 459 OFFCURVE",
"213 424 OFFCURVE",
"158 424 CURVE SMOOTH",
"120 424 OFFCURVE",
"104 442 OFFCURVE",
"104 460 CURVE SMOOTH"
);
}
);
};
layerId = "5117E3E8-E17C-4812-BAF5-9E7064564A59";
paths = (
{
closed = 1;
nodes = (
"28 379 OFFCURVE",
"83 340 OFFCURVE",
"157 340 CURVE SMOOTH",
"228 340 OFFCURVE",
"252 381 OFFCURVE",
"258 401 CURVE",
"268 401 LINE",
"271 369 OFFCURVE",
"296 350 OFFCURVE",
"331 350 CURVE SMOOTH",
"395 350 LINE",
"395 422 LINE",
"364 422 LINE SMOOTH",
"352 422 OFFCURVE",
"345 429 OFFCURVE",
"345 443 CURVE SMOOTH",
"345 574 LINE SMOOTH",
"345 663 OFFCURVE",
"283 710 OFFCURVE",
"195 710 CURVE",
"107 710 OFFCURVE",
"54 663 OFFCURVE",
"37 613 CURVE",
"124 586 LINE",
"130 612 OFFCURVE",
"151 636 OFFCURVE",
"192 636 CURVE SMOOTH",
"234 636 OFFCURVE",
"251 612 OFFCURVE",
"251 578 CURVE SMOOTH",
"251 561 LINE",
"162 561 LINE SMOOTH",
"84 561 OFFCURVE",
"28 523 OFFCURVE",
"28 452 CURVE SMOOTH"
);
},
{
closed = 1;
nodes = (
"122 477 OFFCURVE",
"141 491 OFFCURVE",
"171 491 CURVE SMOOTH",
"251 491 LINE",
"251 485 LINE SMOOTH",
"251 442 OFFCURVE",
"221 414 OFFCURVE",
"175 414 CURVE SMOOTH",
"141 414 OFFCURVE",
"122 430 OFFCURVE",
"122 454 CURVE SMOOTH"
);
}
);
userData = {
RMXScaler = {
adjustSpace = 10;
height = 68;
verticalShift = 364;
weight = -190;
width = 70;
};
};
width = 401;
},
{
layerId = "CEFBB1E5-951F-4065-926E-8B9137F837F5";
paths = (
{
closed = 1;
nodes = (
"46 375 OFFCURVE",
"106 340 OFFCURVE",
"180 340 CURVE SMOOTH",
"249 340 OFFCURVE",
"281 371 OFFCURVE",
"297 401 CURVE",
"306 401 LINE",
"306 368 OFFCURVE",
"328 350 OFFCURVE",
"363 350 CURVE SMOOTH",
"404 350 LINE",
"404 392 LINE",
"370 392 LINE SMOOTH",
"357 392 OFFCURVE",
"350 399 OFFCURVE",
"350 414 CURVE SMOOTH",
"350 571 LINE SMOOTH",
"350 653 OFFCURVE",
"296 701 OFFCURVE",
"210 701 CURVE",
"124 701 OFFCURVE",
"72 653 OFFCURVE",
"56 593 CURVE",
"105 581 LINE",
"117 626 OFFCURVE",
"148 657 OFFCURVE",
"210 657 CURVE SMOOTH",
"271 657 OFFCURVE",
"300 626 OFFCURVE",
"300 574 CURVE SMOOTH",
"300 551 LINE",
"178 551 LINE SMOOTH",
"105 551 OFFCURVE",
"46 519 OFFCURVE",
"46 447 CURVE SMOOTH"
);
},
{
closed = 1;
nodes = (
"96 491 OFFCURVE",
"131 509 OFFCURVE",
"180 509 CURVE SMOOTH",
"300 509 LINE",
"300 501 LINE SMOOTH",
"300 426 OFFCURVE",
"257 384 OFFCURVE",
"184 384 CURVE SMOOTH",
"131 384 OFFCURVE",
"96 406 OFFCURVE",
"96 449 CURVE SMOOTH"
);
}
);
width = 415;
}
);
unicode = 00AA;
userData = {
RMXScaler = {
source = a;
};
};
},
{
glyphname = ordmasculine;
lastChange = "2020-05-15 12:35:45 +0000";
layers = (
{
background = {
paths = (
{
closed = 1;
nodes = (
"24 418 OFFCURVE",
"103 350 OFFCURVE",
"204 350 CURVE SMOOTH",
"306 350 OFFCURVE",
"385 418 OFFCURVE",
"385 529 CURVE SMOOTH",
"385 640 OFFCURVE",
"307 708 OFFCURVE",
"204 708 CURVE SMOOTH",
"102 708 OFFCURVE",
"24 640 OFFCURVE",
"24 529 CURVE SMOOTH"
);
},
{
closed = 1;
nodes = (
"116 592 OFFCURVE",
"153 628 OFFCURVE",
"204 628 CURVE SMOOTH",
"255 628 OFFCURVE",
"293 592 OFFCURVE",
"293 529 CURVE SMOOTH",
"293 466 OFFCURVE",
"255 431 OFFCURVE",
"204 431 CURVE SMOOTH",
"153 431 OFFCURVE",
"116 467 OFFCURVE",
"116 529 CURVE SMOOTH"
);
}
);
};
layerId = "5117E3E8-E17C-4812-BAF5-9E7064564A59";
paths = (
{
closed = 1;
nodes = (
"24 407 OFFCURVE",
"98 340 OFFCURVE",
"204 340 CURVE SMOOTH",
"310 340 OFFCURVE",
"384 407 OFFCURVE",
"384 525 CURVE SMOOTH",
"384 643 OFFCURVE",
"310 710 OFFCURVE",
"204 710 CURVE SMOOTH",
"98 710 OFFCURVE",
"24 643 OFFCURVE",
"24 525 CURVE SMOOTH"
);
},
{
closed = 1;
nodes = (
"118 597 OFFCURVE",
"154 634 OFFCURVE",
"204 634 CURVE SMOOTH",
"254 634 OFFCURVE",
"290 597 OFFCURVE",
"290 525 CURVE SMOOTH",
"290 453 OFFCURVE",
"254 416 OFFCURVE",
"204 416 CURVE SMOOTH",
"154 416 OFFCURVE",
"118 453 OFFCURVE",
"118 525 CURVE SMOOTH"
);
}
);
userData = {
RMXScaler = {
adjustSpace = 10;
height = 68;
verticalShift = 360;
weight = -190;
width = 69;
};
};
width = 408;
},
{
layerId = "CEFBB1E5-951F-4065-926E-8B9137F837F5";
paths = (
{
closed = 1;
nodes = (
"40 412 OFFCURVE",
"107 340 OFFCURVE",
"213 340 CURVE SMOOTH",
"319 340 OFFCURVE",
"386 412 OFFCURVE",
"386 525 CURVE SMOOTH",
"386 638 OFFCURVE",
"319 710 OFFCURVE",
"213 710 CURVE SMOOTH",
"107 710 OFFCURVE",
"40 638 OFFCURVE",
"40 525 CURVE SMOOTH"
);
},
{
closed = 1;
nodes = (
"90 609 OFFCURVE",
"138 666 OFFCURVE",
"213 666 CURVE SMOOTH",
"287 666 OFFCURVE",
"336 609 OFFCURVE",
"336 525 CURVE SMOOTH",
"336 441 OFFCURVE",
"287 385 OFFCURVE",
"213 385 CURVE SMOOTH",
"138 385 OFFCURVE",
"90 441 OFFCURVE",
"90 525 CURVE SMOOTH"
);
}
);
width = 426;
}
);
unicode = 00BA;
userData = {
RMXScaler = {
source = o;
};
};
},
{
glyphname = pi;
lastChange = "2020-05-15 12:35:45 +0000";
layers = (
{
layerId = "5117E3E8-E17C-4812-BAF5-9E7064564A59";
paths = (
{
closed = 1;
nodes = (
"258 376 LINE",
"364 376 LINE",
"364 96 LINE SMOOTH",
"364 40 OFFCURVE",
"404 0 OFFCURVE",
"460 0 CURVE SMOOTH",
"568 0 LINE",
"568 120 LINE",
"517 120 LINE SMOOTH",
"499 120 OFFCURVE",
"490 130 OFFCURVE",
"490 150 CURVE SMOOTH",
"490 376 LINE",
"568 376 LINE",
"568 496 LINE",
"54 496 LINE",
"54 376 LINE",
"132 376 LINE",
"132 0 LINE",
"258 0 LINE"
);
}
);
width = 620;
},
{
layerId = "CEFBB1E5-951F-4065-926E-8B9137F837F5";
paths = (
{
closed = 1;
nodes = (
"208 443 LINE",
"414 443 LINE",
"414 72 LINE SMOOTH",
"414 30 OFFCURVE",
"443 0 OFFCURVE",
"484 0 CURVE SMOOTH",
"544 0 LINE",
"544 54 LINE",
"500 54 LINE SMOOTH",
"482 54 OFFCURVE",
"473 64 OFFCURVE",
"473 84 CURVE SMOOTH",
"473 443 LINE",
"544 443 LINE",
"544 496 LINE",
"79 496 LINE",
"79 443 LINE",
"149 443 LINE",
"149 0 LINE",
"208 0 LINE"
);
}
);
width = 620;
}
);
note = pi;
unicode = 03C0;
},
{
glyphname = zero;
lastChange = "2020-05-15 12:35:45 +0000";
layers = (
{
layerId = "5117E3E8-E17C-4812-BAF5-9E7064564A59";
paths = (
{
closed = 1;
nodes = (
"50 262 LINE SMOOTH",
"50 78 OFFCURVE",
"158 -14 OFFCURVE",
"324 -14 CURVE SMOOTH",
"490 -14 OFFCURVE",
"598 78 OFFCURVE",
"598 262 CURVE SMOOTH",
"598 438 LINE SMOOTH",
"598 616 OFFCURVE",
"490 714 OFFCURVE",
"324 714 CURVE SMOOTH",
"158 714 OFFCURVE",
"50 616 OFFCURVE",
"50 438 CURVE SMOOTH"
);
},
{
closed = 1;
nodes = (
"180 539 OFFCURVE",
"232 600 OFFCURVE",
"324 600 CURVE SMOOTH",
"413 600 OFFCURVE",
"468 543 OFFCURVE",
"468 444 CURVE SMOOTH",
"468 258 LINE SMOOTH",
"468 161 OFFCURVE",
"424 100 OFFCURVE",
"324 100 CURVE SMOOTH",
"227 100 OFFCURVE",
"180 157 OFFCURVE",
"180 258 CURVE SMOOTH",
"180 444 LINE SMOOTH"
);
}
);
width = 648;
},
{
layerId = "CEFBB1E5-951F-4065-926E-8B9137F837F5";
paths = (
{
closed = 1;
nodes = (
"64 271 LINE SMOOTH",
"64 83 OFFCURVE",
"162 -14 OFFCURVE",
"319 -14 CURVE SMOOTH",
"476 -14 OFFCURVE",
"574 83 OFFCURVE",
"574 271 CURVE SMOOTH",
"574 429 LINE SMOOTH",
"574 616 OFFCURVE",
"476 714 OFFCURVE",
"319 714 CURVE SMOOTH",
"162 714 OFFCURVE",
"64 616 OFFCURVE",
"64 429 CURVE SMOOTH"
);
},
{
closed = 1;
nodes = (
"126 573 OFFCURVE",
"192 658 OFFCURVE",
"319 658 CURVE SMOOTH",
"445 658 OFFCURVE",
"512 574 OFFCURVE",
"512 434 CURVE SMOOTH",
"512 267 LINE SMOOTH",
"512 127 OFFCURVE",
"447 42 OFFCURVE",
"319 42 CURVE SMOOTH",
"191 42 OFFCURVE",
"126 126 OFFCURVE",
"126 267 CURVE SMOOTH",
"126 434 LINE SMOOTH"
);
}
);
width = 638;
}
);
leftKerningGroup = zero;
leftMetricsKey = O;
note = zero;
rightKerningGroup = zero;
rightMetricsKey = O;
unicode = 0030;
},
{
glyphname = one;
lastChange = "2020-05-15 12:35:45 +0000";
layers = (
{
layerId = "5117E3E8-E17C-4812-BAF5-9E7064564A59";
paths = (
{
closed = 1;
nodes = (
"12 384 LINE",
"146 384 LINE",
"240 606 LINE",
"258 606 LINE",
"258 0 LINE",
"388 0 LINE",
"388 700 LINE",
"155 700 LINE"
);
}
);
width = 454;
},
{
layerId = "CEFBB1E5-951F-4065-926E-8B9137F837F5";
paths = (
{
closed = 1;
nodes = (
"21 402 LINE",
"91 402 LINE",
"244 662 LINE",
"256 662 LINE",
"256 0 LINE",
"318 0 LINE",
"318 700 LINE",
"198 700 LINE"
);
}
);
width = 403;
}
);
leftKerningGroup = one;
note = one;
rightKerningGroup = one;
rightMetricsKey = I;
unicode = 0031;
},
{
glyphname = two;
lastChange = "2020-05-15 12:35:45 +0000";
layers = (
{
layerId = "5117E3E8-E17C-4812-BAF5-9E7064564A59";
paths = (
{
closed = 1;
nodes = (
"44 460 LINE",
"174 460 LINE",
"174 478 LINE SMOOTH",
"174 557 OFFCURVE",
"225 600 OFFCURVE",
"301 600 CURVE SMOOTH",
"377 600 OFFCURVE",
"426 557 OFFCURVE",
"426 491 CURVE SMOOTH",
"426 487 LINE SMOOTH",
"426 423 OFFCURVE",
"385 380 OFFCURVE",
"314 358 CURVE SMOOTH",
"247 337 LINE SMOOTH",
"115 296 OFFCURVE",
"42 230 OFFCURVE",
"42 84 CURVE SMOOTH",
"42 0 LINE",
"550 0 LINE",
"550 114 LINE",
"173 114 LINE",
"173 118 LINE SMOOTH",
"173 169 OFFCURVE",
"197 198 OFFCURVE",
"283 225 CURVE SMOOTH",
"347 245 LINE SMOOTH",
"466 282 OFFCURVE",
"556 348 OFFCURVE",
"556 483 CURVE SMOOTH",
"556 493 LINE SMOOTH",
"556 627 OFFCURVE",
"445 714 OFFCURVE",
"301 714 CURVE SMOOTH",
"157 714 OFFCURVE",
"44 627 OFFCURVE",
"44 476 CURVE SMOOTH"
);
}
);
width = 594;
},
{
layerId = "CEFBB1E5-951F-4065-926E-8B9137F837F5";
paths = (
{
closed = 1;
nodes = (
"63 465 LINE",
"123 465 LINE",
"123 478 LINE SMOOTH",
"123 599 OFFCURVE",
"201 658 OFFCURVE",
"312 658 CURVE SMOOTH",
"416 658 OFFCURVE",
"491 599 OFFCURVE",
"491 502 CURVE SMOOTH",
"491 498 LINE SMOOTH",
"491 393 OFFCURVE",
"423 349 OFFCURVE",
"325 319 CURVE SMOOTH",
"275 303 LINE SMOOTH",
"143 262 OFFCURVE",
"58 219 OFFCURVE",
"58 69 CURVE SMOOTH",
"58 0 LINE",
"547 0 LINE",
"547 56 LINE",
"120 56 LINE",
"120 79 LINE SMOOTH",
"120 187 OFFCURVE",
"181 214 OFFCURVE",
"289 248 CURVE SMOOTH",
"339 263 LINE SMOOTH",
"469 304 OFFCURVE",
"553 359 OFFCURVE",
"553 495 CURVE SMOOTH",
"553 504 LINE SMOOTH",
"553 630 OFFCURVE",
"456 714 OFFCURVE",
"312 714 CURVE SMOOTH",
"168 714 OFFCURVE",
"63 630 OFFCURVE",
"63 478 CURVE SMOOTH"
);
}
);
width = 606;
}
);
leftKerningGroup = two;
note = two;
rightKerningGroup = two;
unicode = 0032;
},
{
glyphname = three;
lastChange = "2020-05-15 12:35:45 +0000";
layers = (
{
layerId = "5117E3E8-E17C-4812-BAF5-9E7064564A59";
paths = (
{
closed = 1;
nodes = (
"52 586 LINE",
"406 586 LINE",
"406 570 LINE",
"180 450 LINE",
"180 310 LINE",
"320 310 LINE SMOOTH",
"386 310 OFFCURVE",
"438 283 OFFCURVE",
"438 219 CURVE SMOOTH",
"438 209 LINE SMOOTH",
"438 146 OFFCURVE",
"388 100 OFFCURVE",
"304 100 CURVE SMOOTH",
"220 100 OFFCURVE",
"164 148 OFFCURVE",
"164 223 CURVE SMOOTH",
"164 237 LINE",
"34 237 LINE",
"34 219 LINE SMOOTH",
"34 75 OFFCURVE",
"146 -14 OFFCURVE",
"304 -14 CURVE SMOOTH",
"462 -14 OFFCURVE",
"568 73 OFFCURVE",
"568 210 CURVE SMOOTH",
"568 222 LINE SMOOTH",
"568 348 OFFCURVE",
"467 402 OFFCURVE",
"374 402 CURVE SMOOTH",
"337 402 LINE",
"337 418 LINE",
"548 530 LINE",
"548 700 LINE",
"52 700 LINE"
);
}
);
width = 608;
},
{
layerId = "CEFBB1E5-951F-4065-926E-8B9137F837F5";
paths = (
{
closed = 1;
nodes = (
"66 644 LINE",
"481 644 LINE",
"481 635 LINE",
"200 440 LINE",
"200 357 LINE",
"303 357 LINE SMOOTH",
"403 357 OFFCURVE",
"485 313 OFFCURVE",
"485 210 CURVE SMOOTH",
"485 204 LINE SMOOTH",
"485 111 OFFCURVE",
"417 42 OFFCURVE",
"303 42 CURVE SMOOTH",
"189 42 OFFCURVE",
"112 111 OFFCURVE",
"112 224 CURVE SMOOTH",
"112 244 LINE",
"50 244 LINE",
"50 225 LINE SMOOTH",
"50 72 OFFCURVE",
"156 -14 OFFCURVE",
"303 -14 CURVE SMOOTH",
"451 -14 OFFCURVE",
"547 72 OFFCURVE",
"547 202 CURVE SMOOTH",
"547 212 LINE SMOOTH",
"547 341 OFFCURVE",
"449 409 OFFCURVE",
"320 409 CURVE SMOOTH",
"268 409 LINE",
"268 418 LINE",
"546 611 LINE",
"546 700 LINE",
"66 700 LINE"
);
}
);
width = 603;
}
);
leftKerningGroup = three;
note = three;
rightKerningGroup = three;
unicode = 0033;
},
{
glyphname = four;
lastChange = "2020-05-15 12:35:45 +0000";
layers = (
{
layerId = "5117E3E8-E17C-4812-BAF5-9E7064564A59";
paths = (
{
closed = 1;
nodes = (
"26 252 LINE",
"26 142 LINE",
"374 142 LINE",
"374 0 LINE",
"504 0 LINE",
"504 142 LINE",
"618 142 LINE",
"618 256 LINE",
"504 256 LINE",
"504 700 LINE",
"271 700 LINE"
);
},
{
closed = 1;
nodes = (
"374 618 LINE",
"374 256 LINE",
"158 256 LINE",
"356 618 LINE"
);
}
);
width = 640;
},
{
layerId = "CEFBB1E5-951F-4065-926E-8B9137F837F5";
paths = (
{
closed = 1;
nodes = (
"33 198 LINE",
"33 144 LINE",
"413 144 LINE",
"413 0 LINE",
"474 0 LINE",
"474 144 LINE",
"597 144 LINE",
"597 200 LINE",
"474 200 LINE",
"474 700 LINE",
"356 700 LINE"
);
},
{
closed = 1;
nodes = (
"413 664 LINE",
"413 200 LINE",
"103 200 LINE",
"402 664 LINE"
);
}
);
width = 624;
}
);
leftKerningGroup = four;
note = four;
rightKerningGroup = four;
unicode = 0034;
},
{
glyphname = five;
lastChange = "2020-05-15 12:35:45 +0000";
layers = (
{
layerId = "5117E3E8-E17C-4812-BAF5-9E7064564A59";
paths = (
{
closed = 1;
nodes = (
"60 308 LINE",
"215 308 LINE",
"230 332 OFFCURVE",
"256 360 OFFCURVE",
"314 360 CURVE SMOOTH",
"383 360 OFFCURVE",
"434 312 OFFCURVE",
"434 238 CURVE SMOOTH",
"434 228 LINE SMOOTH",
"434 152 OFFCURVE",
"388 100 OFFCURVE",
"302 100 CURVE SMOOTH",
"214 100 OFFCURVE",
"170 154 OFFCURVE",
"170 221 CURVE SMOOTH",
"170 230 LINE",
"38 230 LINE",
"38 222 LINE SMOOTH",
"38 83 OFFCURVE",
"141 -14 OFFCURVE",
"304 -14 CURVE SMOOTH",
"465 -14 OFFCURVE",
"566 79 OFFCURVE",
"566 227 CURVE SMOOTH",
"566 239 LINE SMOOTH",
"566 386 OFFCURVE",
"464 466 OFFCURVE",
"341 466 CURVE SMOOTH",
"266 466 OFFCURVE",
"225 438 OFFCURVE",
"206 413 CURVE",
"188 413 LINE",
"188 584 LINE",
"538 584 LINE",
"538 700 LINE",
"60 700 LINE"
);
}
);
width = 600;
},
{
layerId = "CEFBB1E5-951F-4065-926E-8B9137F837F5";
paths = (
{
closed = 1;
nodes = (
"78 327 LINE",
"169 327 LINE",
"188 364 OFFCURVE",
"225 416 OFFCURVE",
"314 416 CURVE SMOOTH",
"415 416 OFFCURVE",
"483 346 OFFCURVE",
"483 235 CURVE SMOOTH",
"483 227 LINE SMOOTH",
"483 111 OFFCURVE",
"414 42 OFFCURVE",
"300 42 CURVE SMOOTH",
"193 42 OFFCURVE",
"118 102 OFFCURVE",
"118 222 CURVE SMOOTH",
"118 232 LINE",
"56 232 LINE",
"56 219 LINE SMOOTH",
"56 80 OFFCURVE",
"153 -14 OFFCURVE",
"301 -14 CURVE SMOOTH",
"452 -14 OFFCURVE",
"545 86 OFFCURVE",
"545 226 CURVE SMOOTH",
"545 236 LINE SMOOTH",
"545 380 OFFCURVE",
"449 470 OFFCURVE",
"328 470 CURVE SMOOTH",
"221 470 OFFCURVE",
"173 418 OFFCURVE",
"152 377 CURVE",
"139 377 LINE",
"139 644 LINE",
"529 644 LINE",
"529 700 LINE",
"78 700 LINE"
);
}
);
width = 598;
}
);
leftKerningGroup = five;
note = five;
rightKerningGroup = five;
unicode = 0035;
},
{
glyphname = six;
lastChange = "2020-05-15 12:35:45 +0000";
layers = (
{
layerId = "5117E3E8-E17C-4812-BAF5-9E7064564A59";
paths = (
{
closed = 1;
nodes = (
"180 468 LINE SMOOTH",
"180 550 OFFCURVE",
"230 600 OFFCURVE",
"318 600 CURVE SMOOTH",
"406 600 OFFCURVE",
"442 552 OFFCURVE",
"442 496 CURVE",
"574 496 LINE",
"574 632 OFFCURVE",
"474 714 OFFCURVE",
"318 714 CURVE SMOOTH",
"162 714 OFFCURVE",
"50 630 OFFCURVE",
"50 460 CURVE SMOOTH",
"50 221 LINE SMOOTH",
"50 83 OFFCURVE",
"152 -14 OFFCURVE",
"312 -14 CURVE SMOOTH",
"472 -14 OFFCURVE",
"578 80 OFFCURVE",
"578 219 CURVE SMOOTH",
"578 231 LINE SMOOTH",
"578 371 OFFCURVE",
"471 452 OFFCURVE",
"350 452 CURVE SMOOTH",
"262 452 OFFCURVE",
"221 423 OFFCURVE",
"198 396 CURVE",
"180 396 LINE"
);
},
{
closed = 1;
nodes = (
"395 350 OFFCURVE",
"448 303 OFFCURVE",
"448 229 CURVE SMOOTH",
"448 221 LINE SMOOTH",
"448 147 OFFCURVE",
"396 100 OFFCURVE",
"314 100 CURVE SMOOTH",
"232 100 OFFCURVE",
"180 147 OFFCURVE",
"180 221 CURVE SMOOTH",
"180 229 LINE SMOOTH",
"180 303 OFFCURVE",
"233 350 OFFCURVE",
"314 350 CURVE SMOOTH"
);
}
);
width = 618;
},
{
layerId = "CEFBB1E5-951F-4065-926E-8B9137F837F5";
paths = (
{
closed = 1;
nodes = (
"126 476 LINE SMOOTH",
"126 589 OFFCURVE",
"193 658 OFFCURVE",
"311 658 CURVE SMOOTH",
"425 658 OFFCURVE",
"486 597 OFFCURVE",
"486 505 CURVE",
"548 505 LINE",
"548 622 OFFCURVE",
"465 714 OFFCURVE",
"311 714 CURVE SMOOTH",
"155 714 OFFCURVE",
"64 620 OFFCURVE",
"64 469 CURVE SMOOTH",
"64 222 LINE SMOOTH",
"64 73 OFFCURVE",
"170 -14 OFFCURVE",
"309 -14 CURVE SMOOTH",
"447 -14 OFFCURVE",
"554 74 OFFCURVE",
"554 217 CURVE SMOOTH",
"554 229 LINE SMOOTH",
"554 370 OFFCURVE",
"453 459 OFFCURVE",
"324 459 CURVE SMOOTH",
"220 459 OFFCURVE",
"163 413 OFFCURVE",
"139 371 CURVE",
"126 371 LINE"
);
},
{
closed = 1;
nodes = (
"416 406 OFFCURVE",
"492 335 OFFCURVE",
"492 226 CURVE SMOOTH",
"492 218 LINE SMOOTH",
"492 109 OFFCURVE",
"417 42 OFFCURVE",
"309 42 CURVE SMOOTH",
"201 42 OFFCURVE",
"126 109 OFFCURVE",
"126 218 CURVE SMOOTH",
"126 226 LINE SMOOTH",
"126 335 OFFCURVE",
"202 406 OFFCURVE",
"309 406 CURVE SMOOTH"
);
}
);
width = 609;
}
);
leftKerningGroup = six;
leftMetricsKey = O;
note = six;
rightKerningGroup = six;
unicode = 0036;
},
{
glyphname = seven;
lastChange = "2020-05-15 12:35:45 +0000";
layers = (
{
layerId = "5117E3E8-E17C-4812-BAF5-9E7064564A59";
paths = (
{
closed = 1;
nodes = (
"26 584 LINE",
"396 584 LINE",
"396 568 LINE",
"161 155 LINE SMOOTH",
"134 108 OFFCURVE",
"129 78 OFFCURVE",
"129 26 CURVE SMOOTH",
"129 0 LINE",
"259 0 LINE",
"259 20 LINE SMOOTH",
"259 55 OFFCURVE",
"265 74 OFFCURVE",
"282 105 CURVE SMOOTH",
"530 546 LINE",
"530 700 LINE",
"26 700 LINE"
);
}
);
width = 554;
},
{
layerId = "CEFBB1E5-951F-4065-926E-8B9137F837F5";
paths = (
{
closed = 1;
nodes = (
"35 644 LINE",
"468 644 LINE",
"468 635 LINE",
"189 135 LINE SMOOTH",
"166 92 OFFCURVE",
"161 69 OFFCURVE",
"161 24 CURVE SMOOTH",
"161 0 LINE",
"222 0 LINE",
"222 24 LINE SMOOTH",
"222 59 OFFCURVE",
"227 76 OFFCURVE",
"242 103 CURVE SMOOTH",
"534 627 LINE",
"534 700 LINE",
"35 700 LINE"
);
}
);
width = 568;
}
);
leftKerningGroup = seven;
note = seven;
rightKerningGroup = seven;
unicode = 0037;
},
{
glyphname = eight;
lastChange = "2020-05-15 12:35:45 +0000";
layers = (
{
layerId = "5117E3E8-E17C-4812-BAF5-9E7064564A59";
paths = (
{
closed = 1;
nodes = (
"142 714 OFFCURVE",
"38 638 OFFCURVE",
"38 529 CURVE SMOOTH",
"38 518 LINE SMOOTH",
"38 432 OFFCURVE",
"89 387 OFFCURVE",
"136 371 CURVE",
"136 353 LINE",
"89 339 OFFCURVE",
"28 294 OFFCURVE",
"28 198 CURVE SMOOTH",
"28 187 LINE SMOOTH",
"28 62 OFFCURVE",
"140 -14 OFFCURVE",
"300 -14 CURVE SMOOTH",
"460 -14 OFFCURVE",
"572 62 OFFCURVE",
"572 187 CURVE SMOOTH",
"572 198 LINE SMOOTH",
"572 294 OFFCURVE",
"511 339 OFFCURVE",
"464 353 CURVE",
"464 371 LINE",
"511 387 OFFCURVE",
"562 432 OFFCURVE",
"562 518 CURVE SMOOTH",
"562 529 LINE SMOOTH",
"562 638 OFFCURVE",
"458 714 OFFCURVE",
"300 714 CURVE SMOOTH"
);
},
{
closed = 1;
nodes = (
"390 300 OFFCURVE",
"442 264 OFFCURVE",
"442 206 CURVE SMOOTH",
"442 198 LINE SMOOTH",
"442 140 OFFCURVE",
"388 104 OFFCURVE",
"300 104 CURVE SMOOTH",
"212 104 OFFCURVE",
"158 140 OFFCURVE",
"158 198 CURVE SMOOTH",
"158 206 LINE SMOOTH",
"158 264 OFFCURVE",
"210 300 OFFCURVE",
"300 300 CURVE SMOOTH"
);
},
{
closed = 1;
nodes = (
"379 596 OFFCURVE",
"432 567 OFFCURVE",
"432 511 CURVE SMOOTH",
"432 503 LINE SMOOTH",
"432 447 OFFCURVE",
"381 418 OFFCURVE",
"300 418 CURVE SMOOTH",
"219 418 OFFCURVE",
"168 447 OFFCURVE",
"168 503 CURVE SMOOTH",
"168 511 LINE SMOOTH",
"168 567 OFFCURVE",
"221 596 OFFCURVE",
"300 596 CURVE SMOOTH"
);
}
);
width = 600;
},
{
layerId = "CEFBB1E5-951F-4065-926E-8B9137F837F5";
paths = (
{
closed = 1;
nodes = (
"174 714 OFFCURVE",
"68 648 OFFCURVE",
"68 533 CURVE SMOOTH",
"68 523 LINE SMOOTH",
"68 430 OFFCURVE",
"139 384 OFFCURVE",
"192 370 CURVE",
"192 357 LINE",
"139 349 OFFCURVE",
"54 300 OFFCURVE",
"54 191 CURVE SMOOTH",
"54 183 LINE SMOOTH",
"54 65 OFFCURVE",
"152 -14 OFFCURVE",
"316 -14 CURVE SMOOTH",
"479 -14 OFFCURVE",
"577 65 OFFCURVE",
"577 183 CURVE SMOOTH",
"577 191 LINE SMOOTH",
"577 300 OFFCURVE",
"493 349 OFFCURVE",
"440 357 CURVE",
"440 370 LINE",
"493 384 OFFCURVE",
"564 430 OFFCURVE",
"564 523 CURVE SMOOTH",
"564 533 LINE SMOOTH",
"564 648 OFFCURVE",
"458 714 OFFCURVE",
"316 714 CURVE SMOOTH"
);
},
{
closed = 1;
nodes = (
"437 333 OFFCURVE",
"516 286 OFFCURVE",
"516 191 CURVE SMOOTH",
"516 185 LINE SMOOTH",
"516 90 OFFCURVE",
"437 43 OFFCURVE",
"316 43 CURVE SMOOTH",
"195 43 OFFCURVE",
"116 90 OFFCURVE",
"116 185 CURVE SMOOTH",
"116 191 LINE SMOOTH",
"116 286 OFFCURVE",
"194 333 OFFCURVE",
"316 333 CURVE SMOOTH"
);
},
{
closed = 1;
nodes = (
"431 657 OFFCURVE",
"502 611 OFFCURVE",
"502 527 CURVE SMOOTH",
"502 521 LINE SMOOTH",
"502 437 OFFCURVE",
"431 390 OFFCURVE",
"316 390 CURVE SMOOTH",
"201 390 OFFCURVE",
"130 437 OFFCURVE",
"130 521 CURVE SMOOTH",
"130 527 LINE SMOOTH",
"130 611 OFFCURVE",
"201 657 OFFCURVE",
"316 657 CURVE SMOOTH"
);
}
);
width = 632;
}
);
leftKerningGroup = eight;
note = eight;
rightKerningGroup = eight;
unicode = 0038;
},
{
glyphname = nine;
lastChange = "2020-05-15 12:35:45 +0000";
layers = (
{
layerId = "5117E3E8-E17C-4812-BAF5-9E7064564A59";
paths = (
{
closed = 1;
nodes = (
"438 232 LINE SMOOTH",
"438 150 OFFCURVE",
"388 100 OFFCURVE",
"300 100 CURVE SMOOTH",
"212 100 OFFCURVE",
"176 148 OFFCURVE",
"176 204 CURVE",
"44 204 LINE",
"44 68 OFFCURVE",
"144 -14 OFFCURVE",
"300 -14 CURVE SMOOTH",
"456 -14 OFFCURVE",
"568 70 OFFCURVE",
"568 240 CURVE SMOOTH",
"568 479 LINE SMOOTH",
"568 617 OFFCURVE",
"466 714 OFFCURVE",
"306 714 CURVE SMOOTH",
"146 714 OFFCURVE",
"40 620 OFFCURVE",
"40 481 CURVE SMOOTH",
"40 469 LINE SMOOTH",
"40 329 OFFCURVE",
"147 248 OFFCURVE",
"268 248 CURVE SMOOTH",
"356 248 OFFCURVE",
"397 277 OFFCURVE",
"420 304 CURVE",
"438 304 LINE"
);
},
{
closed = 1;
nodes = (
"223 350 OFFCURVE",
"170 397 OFFCURVE",
"170 471 CURVE SMOOTH",
"170 479 LINE SMOOTH",
"170 553 OFFCURVE",
"222 600 OFFCURVE",
"304 600 CURVE SMOOTH",
"386 600 OFFCURVE",
"438 553 OFFCURVE",
"438 479 CURVE SMOOTH",
"438 471 LINE SMOOTH",
"438 397 OFFCURVE",
"385 350 OFFCURVE",
"304 350 CURVE SMOOTH"
);
}
);
width = 618;
},
{
layerId = "CEFBB1E5-951F-4065-926E-8B9137F837F5";
paths = (
{
closed = 1;
nodes = (
"484 224 LINE SMOOTH",
"484 111 OFFCURVE",
"416 42 OFFCURVE",
"298 42 CURVE SMOOTH",
"184 42 OFFCURVE",
"124 103 OFFCURVE",
"124 195 CURVE",
"62 195 LINE",
"62 78 OFFCURVE",
"144 -14 OFFCURVE",
"298 -14 CURVE SMOOTH",
"454 -14 OFFCURVE",
"545 81 OFFCURVE",
"545 231 CURVE SMOOTH",
"545 478 LINE SMOOTH",
"545 627 OFFCURVE",
"440 714 OFFCURVE",
"301 714 CURVE SMOOTH",
"163 714 OFFCURVE",
"56 626 OFFCURVE",
"56 483 CURVE SMOOTH",
"56 471 LINE SMOOTH",
"56 330 OFFCURVE",
"157 241 OFFCURVE",
"286 241 CURVE SMOOTH",
"389 241 OFFCURVE",
"446 287 OFFCURVE",
"471 329 CURVE",
"484 329 LINE"
);
},
{
closed = 1;
nodes = (
"193 294 OFFCURVE",
"118 365 OFFCURVE",
"118 474 CURVE SMOOTH",
"118 482 LINE SMOOTH",
"118 591 OFFCURVE",
"192 658 OFFCURVE",
"301 658 CURVE SMOOTH",
"409 658 OFFCURVE",
"484 591 OFFCURVE",
"484 482 CURVE SMOOTH",
"484 474 LINE SMOOTH",
"484 365 OFFCURVE",
"408 294 OFFCURVE",
"301 294 CURVE SMOOTH"
);
}
);
width = 609;
}
);
leftKerningGroup = nine;
note = nine;
rightKerningGroup = nine;
rightMetricsKey = O;
unicode = 0039;
},
{
glyphname = zero.zero;
lastChange = "2020-05-15 12:35:45 +0000";
layers = (
{
layerId = "5117E3E8-E17C-4812-BAF5-9E7064564A59";
paths = (
{
closed = 1;
nodes = (
"125 253 LINE",
"171 187 LINE",
"523 447 LINE",
"477 513 LINE"
);
},
{
closed = 1;
nodes = (
"50 262 LINE SMOOTH",
"50 78 OFFCURVE",
"158 -14 OFFCURVE",
"324 -14 CURVE SMOOTH",
"490 -14 OFFCURVE",
"598 78 OFFCURVE",
"598 262 CURVE SMOOTH",
"598 438 LINE SMOOTH",
"598 616 OFFCURVE",
"490 714 OFFCURVE",
"324 714 CURVE SMOOTH",
"158 714 OFFCURVE",
"50 616 OFFCURVE",
"50 438 CURVE SMOOTH"
);
},
{
closed = 1;
nodes = (
"180 539 OFFCURVE",
"232 600 OFFCURVE",
"324 600 CURVE SMOOTH",
"413 600 OFFCURVE",
"468 543 OFFCURVE",
"468 444 CURVE SMOOTH",
"468 258 LINE SMOOTH",
"468 161 OFFCURVE",
"424 100 OFFCURVE",
"324 100 CURVE SMOOTH",
"227 100 OFFCURVE",
"180 157 OFFCURVE",
"180 258 CURVE SMOOTH",
"180 444 LINE SMOOTH"
);
}
);
width = 648;
},
{
layerId = "CEFBB1E5-951F-4065-926E-8B9137F837F5";
paths = (
{
closed = 1;
nodes = (
"103 228 LINE",
"128 186 LINE",
"534 472 LINE",
"509 514 LINE"
);
},
{
closed = 1;
nodes = (
"64 271 LINE SMOOTH",
"64 83 OFFCURVE",
"162 -14 OFFCURVE",
"319 -14 CURVE SMOOTH",
"476 -14 OFFCURVE",
"574 83 OFFCURVE",
"574 271 CURVE SMOOTH",
"574 429 LINE SMOOTH",
"574 616 OFFCURVE",
"476 714 OFFCURVE",
"319 714 CURVE SMOOTH",
"162 714 OFFCURVE",
"64 616 OFFCURVE",
"64 429 CURVE SMOOTH"
);
},
{
closed = 1;
nodes = (
"126 573 OFFCURVE",
"194 658 OFFCURVE",
"319 658 CURVE SMOOTH",
"444 658 OFFCURVE",
"512 574 OFFCURVE",
"512 434 CURVE SMOOTH",
"512 267 LINE SMOOTH",
"512 127 OFFCURVE",
"445 42 OFFCURVE",
"319 42 CURVE SMOOTH",
"193 42 OFFCURVE",
"126 126 OFFCURVE",
"126 267 CURVE SMOOTH",
"126 434 LINE SMOOTH"
);
}
);
width = 638;
}
);
leftKerningGroup = zero;
leftMetricsKey = O;
note = zero;
rightKerningGroup = zero;
rightMetricsKey = O;
},
{
glyphname = zero.osf;
lastChange = "2020-05-15 12:35:45 +0000";
layers = (
{
layerId = "5117E3E8-E17C-4812-BAF5-9E7064564A59";
paths = (
{
closed = 1;
nodes = (
"46 90 OFFCURVE",
"158 -14 OFFCURVE",
"312 -14 CURVE SMOOTH",
"466 -14 OFFCURVE",
"578 90 OFFCURVE",
"578 248 CURVE SMOOTH",
"578 406 OFFCURVE",
"466 510 OFFCURVE",
"312 510 CURVE SMOOTH",
"158 510 OFFCURVE",
"46 406 OFFCURVE",
"46 248 CURVE SMOOTH"
);
},
{
closed = 1;
nodes = (
"172 334 OFFCURVE",
"228 398 OFFCURVE",
"312 398 CURVE SMOOTH",
"396 398 OFFCURVE",
"452 334 OFFCURVE",
"452 248 CURVE SMOOTH",
"452 162 OFFCURVE",
"396 98 OFFCURVE",
"312 98 CURVE SMOOTH",
"228 98 OFFCURVE",
"172 162 OFFCURVE",
"172 248 CURVE SMOOTH"
);
}
);
width = 624;
},
{
layerId = "CEFBB1E5-951F-4065-926E-8B9137F837F5";
paths = (
{
closed = 1;
nodes = (
"64 93 OFFCURVE",
"165 -14 OFFCURVE",
"317 -14 CURVE SMOOTH",
"470 -14 OFFCURVE",
"571 93 OFFCURVE",
"571 243 CURVE SMOOTH",
"571 393 OFFCURVE",
"470 500 OFFCURVE",
"317 500 CURVE SMOOTH",
"165 500 OFFCURVE",
"64 393 OFFCURVE",
"64 243 CURVE SMOOTH"
);
},
{
closed = 1;
nodes = (
"123 359 OFFCURVE",
"200 445 OFFCURVE",
"317 445 CURVE SMOOTH",
"434 445 OFFCURVE",
"512 363 OFFCURVE",
"512 243 CURVE SMOOTH",
"512 124 OFFCURVE",
"434 40 OFFCURVE",
"317 40 CURVE SMOOTH",
"200 40 OFFCURVE",
"123 120 OFFCURVE",
"123 243 CURVE SMOOTH"
);
}
);
width = 634;
}
);
leftKerningGroup = zero.osf;
leftMetricsKey = o;
note = zero.tosn;
rightKerningGroup = zero.osf;
rightMetricsKey = o;
},
{
glyphname = one.osf;
lastChange = "2020-05-15 12:35:45 +0000";
layers = (
{
layerId = "5117E3E8-E17C-4812-BAF5-9E7064564A59";
paths = (
{
closed = 1;
nodes = (
"18 274 LINE",
"146 274 LINE",
"197 406 LINE",
"215 406 LINE",
"215 0 LINE",
"341 0 LINE",
"341 496 LINE",
"114 496 LINE"
);
}
);
width = 411;
},
{
layerId = "CEFBB1E5-951F-4065-926E-8B9137F837F5";
paths = (
{
closed = 1;
nodes = (
"37 272 LINE",
"107 272 LINE",
"218 439 LINE",
"229 439 LINE",
"229 0 LINE",
"289 0 LINE",
"289 486 LINE",
"181 486 LINE"
);
}
);
width = 377;
}
);
leftKerningGroup = one.osf;
note = one.tosn;
rightKerningGroup = one.osf;
rightMetricsKey = u;
},
{
glyphname = two.osf;
lastChange = "2020-05-15 12:35:45 +0000";
layers = (
{
layerId = "5117E3E8-E17C-4812-BAF5-9E7064564A59";
paths = (
{
closed = 1;
nodes = (
"170 312 LINE",
"175 383 OFFCURVE",
"231 408 OFFCURVE",
"298 408 CURVE SMOOTH",
"365 408 OFFCURVE",
"410 383 OFFCURVE",
"410 337 CURVE SMOOTH",
"410 291 OFFCURVE",
"367 269 OFFCURVE",
"306 260 CURVE SMOOTH",
"248 251 LINE SMOOTH",
"126 232 OFFCURVE",
"46 170 OFFCURVE",
"46 64 CURVE SMOOTH",
"46 0 LINE",
"528 0 LINE",
"528 102 LINE",
"186 102 LINE",
"186 130 OFFCURVE",
"219 143 OFFCURVE",
"263 150 CURVE SMOOTH",
"335 161 LINE SMOOTH",
"449 178 OFFCURVE",
"534 222 OFFCURVE",
"534 337 CURVE SMOOTH",
"534 452 OFFCURVE",
"432 510 OFFCURVE",
"298 510 CURVE SMOOTH",
"166 510 OFFCURVE",
"62 451 OFFCURVE",
"48 332 CURVE"
);
}
);
width = 580;
},
{
layerId = "CEFBB1E5-951F-4065-926E-8B9137F837F5";
paths = (
{
closed = 1;
nodes = (
"124 319 LINE",
"138 410 OFFCURVE",
"209 447 OFFCURVE",
"300 447 CURVE SMOOTH",
"390 447 OFFCURVE",
"449 410 OFFCURVE",
"449 344 CURVE SMOOTH",
"449 278 OFFCURVE",
"395 250 OFFCURVE",
"313 235 CURVE SMOOTH",
"239 221 LINE SMOOTH",
"130 201 OFFCURVE",
"66 142 OFFCURVE",
"66 40 CURVE SMOOTH",
"66 0 LINE",
"508 0 LINE",
"508 53 LINE",
"129 53 LINE",
"129 119 OFFCURVE",
"179 155 OFFCURVE",
"248 168 CURVE SMOOTH",
"324 181 LINE SMOOTH",
"439 202 OFFCURVE",
"510 246 OFFCURVE",
"510 344 CURVE SMOOTH",
"510 442 OFFCURVE",
"423 500 OFFCURVE",
"300 500 CURVE SMOOTH",
"177 500 OFFCURVE",
"81 442 OFFCURVE",
"64 330 CURVE"
);
}
);
width = 570;
}
);
leftKerningGroup = two.osf;
note = two.tosn;
rightKerningGroup = two.osf;
},
{
glyphname = three.osf;
lastChange = "2020-05-15 12:35:45 +0000";
layers = (
{
layerId = "5117E3E8-E17C-4812-BAF5-9E7064564A59";
paths = (
{
closed = 1;
nodes = (
"26 -5 LINE",
"36 -122 OFFCURVE",
"138 -214 OFFCURVE",
"288 -214 CURVE SMOOTH",
"446 -214 OFFCURVE",
"541 -121 OFFCURVE",
"541 1 CURVE SMOOTH",
"541 13 LINE SMOOTH",
"541 139 OFFCURVE",
"443 202 OFFCURVE",
"343 202 CURVE SMOOTH",
"316 202 LINE",
"316 218 LINE",
"528 348 LINE",
"528 496 LINE",
"42 496 LINE",
"42 390 LINE",
"378 390 LINE",
"378 374 LINE",
"168 244 LINE",
"168 114 LINE",
"301 114 LINE SMOOTH",
"365 114 OFFCURVE",
"415 80 OFFCURVE",
"415 13 CURVE SMOOTH",
"415 5 LINE SMOOTH",
"415 -61 OFFCURVE",
"369 -106 OFFCURVE",
"288 -106 CURVE SMOOTH",
"210 -106 OFFCURVE",
"157 -62 OFFCURVE",
"151 13 CURVE"
);
}
);
width = 581;
},
{
layerId = "CEFBB1E5-951F-4065-926E-8B9137F837F5";
paths = (
{
closed = 1;
nodes = (
"49 -1 LINE",
"57 -138 OFFCURVE",
"156 -214 OFFCURVE",
"296 -214 CURVE SMOOTH",
"428 -214 OFFCURVE",
"525 -127 OFFCURVE",
"525 -3 CURVE SMOOTH",
"525 9 LINE SMOOTH",
"525 136 OFFCURVE",
"428 206 OFFCURVE",
"307 206 CURVE SMOOTH",
"264 206 LINE",
"264 215 LINE",
"525 407 LINE",
"525 486 LINE",
"64 486 LINE",
"64 432 LINE",
"457 432 LINE",
"457 423 LINE",
"196 232 LINE",
"196 156 LINE",
"292 156 LINE SMOOTH",
"385 156 OFFCURVE",
"466 109 OFFCURVE",
"466 9 CURVE SMOOTH",
"466 1 LINE SMOOTH",
"466 -89 OFFCURVE",
"399 -159 OFFCURVE",
"296 -159 CURVE SMOOTH",
"189 -159 OFFCURVE",
"116 -107 OFFCURVE",
"108 7 CURVE"
);
}
);
width = 590;
}
);
leftKerningGroup = three.osf;
note = three.tosn;
rightKerningGroup = three.osf;
},
{
glyphname = four.osf;
lastChange = "2020-05-15 12:35:45 +0000";
layers = (
{
layerId = "5117E3E8-E17C-4812-BAF5-9E7064564A59";
paths = (
{
closed = 1;
nodes = (
"32 98 LINE",
"32 0 LINE",
"364 0 LINE",
"364 -200 LINE",
"490 -200 LINE",
"490 0 LINE",
"604 0 LINE",
"604 106 LINE",
"490 106 LINE",
"490 496 LINE",
"264 496 LINE"
);
},
{
closed = 1;
nodes = (
"364 410 LINE",
"364 106 LINE",
"168 106 LINE",
"346 410 LINE"
);
}
);
width = 624;
},
{
layerId = "CEFBB1E5-951F-4065-926E-8B9137F837F5";
paths = (
{
closed = 1;
nodes = (
"32 51 LINE",
"32 0 LINE",
"403 0 LINE",
"403 -200 LINE",
"462 -200 LINE",
"462 0 LINE",
"587 0 LINE",
"587 54 LINE",
"462 54 LINE",
"462 486 LINE",
"354 486 LINE"
);
},
{
closed = 1;
nodes = (
"403 444 LINE",
"403 54 LINE",
"101 54 LINE",
"392 444 LINE"
);
}
);
width = 614;
}
);
leftKerningGroup = four.osf;
note = four.tosn;
rightKerningGroup = four.osf;
},
{
glyphname = five.osf;
lastChange = "2020-05-15 12:35:45 +0000";
layers = (
{
layerId = "5117E3E8-E17C-4812-BAF5-9E7064564A59";
paths = (
{
closed = 1;
nodes = (
"54 -8 LINE",
"69 -131 OFFCURVE",
"166 -214 OFFCURVE",
"309 -214 CURVE SMOOTH",
"466 -214 OFFCURVE",
"564 -120 OFFCURVE",
"564 24 CURVE SMOOTH",
"564 36 LINE SMOOTH",
"564 182 OFFCURVE",
"467 262 OFFCURVE",
"350 262 CURVE SMOOTH",
"277 262 OFFCURVE",
"236 234 OFFCURVE",
"219 210 CURVE",
"201 210 LINE",
"201 390 LINE",
"534 390 LINE",
"534 496 LINE",
"75 496 LINE",
"75 104 LINE",
"226 104 LINE",
"240 129 OFFCURVE",
"265 156 OFFCURVE",
"320 156 CURVE SMOOTH",
"387 156 OFFCURVE",
"438 108 OFFCURVE",
"438 33 CURVE SMOOTH",
"438 24 LINE SMOOTH",
"438 -57 OFFCURVE",
"389 -108 OFFCURVE",
"309 -108 CURVE SMOOTH",
"233 -108 OFFCURVE",
"186 -54 OFFCURVE",
"180 12 CURVE"
);
}
);
width = 606;
},
{
layerId = "CEFBB1E5-951F-4065-926E-8B9137F837F5";
paths = (
{
closed = 1;
nodes = (
"72 -1 LINE",
"80 -131 OFFCURVE",
"172 -214 OFFCURVE",
"309 -214 CURVE SMOOTH",
"455 -214 OFFCURVE",
"547 -116 OFFCURVE",
"547 21 CURVE SMOOTH",
"547 31 LINE SMOOTH",
"547 172 OFFCURVE",
"454 259 OFFCURVE",
"336 259 CURVE SMOOTH",
"234 259 OFFCURVE",
"186 207 OFFCURVE",
"167 166 CURVE",
"154 166 LINE",
"154 432 LINE",
"531 432 LINE",
"531 486 LINE",
"94 486 LINE",
"94 116 LINE",
"182 116 LINE",
"202 154 OFFCURVE",
"240 205 OFFCURVE",
"322 205 CURVE SMOOTH",
"420 205 OFFCURVE",
"487 139 OFFCURVE",
"487 30 CURVE SMOOTH",
"487 21 LINE SMOOTH",
"487 -93 OFFCURVE",
"418 -161 OFFCURVE",
"309 -161 CURVE SMOOTH",
"211 -161 OFFCURVE",
"140 -106 OFFCURVE",
"132 6 CURVE"
);
}
);
width = 606;
}
);
leftKerningGroup = five.osf;
note = five.tosn;
rightKerningGroup = five.osf;
},
{
glyphname = six.osf;
lastChange = "2020-05-15 12:35:45 +0000";
layers = (
{
layerId = "5117E3E8-E17C-4812-BAF5-9E7064564A59";
paths = (
{
closed = 1;
nodes = (
"239 352 OFFCURVE",
"184 303 OFFCURVE",
"184 227 CURVE SMOOTH",
"184 219 LINE SMOOTH",
"184 143 OFFCURVE",
"238 94 OFFCURVE",
"318 94 CURVE SMOOTH",
"398 94 OFFCURVE",
"452 143 OFFCURVE",
"452 219 CURVE SMOOTH",
"452 227 LINE SMOOTH",
"452 303 OFFCURVE",
"397 352 OFFCURVE",
"318 352 CURVE SMOOTH"
);
},
{
closed = 1;
nodes = (
"202 396 LINE",
"224 422 OFFCURVE",
"268 456 OFFCURVE",
"353 456 CURVE SMOOTH",
"472 456 OFFCURVE",
"578 370 OFFCURVE",
"578 231 CURVE SMOOTH",
"578 219 LINE SMOOTH",
"578 80 OFFCURVE",
"473 -14 OFFCURVE",
"316 -14 CURVE SMOOTH",
"159 -14 OFFCURVE",
"58 83 OFFCURVE",
"58 221 CURVE SMOOTH",
"58 460 LINE SMOOTH",
"58 630 OFFCURVE",
"166 714 OFFCURVE",
"320 714 CURVE SMOOTH",
"465 714 OFFCURVE",
"563 640 OFFCURVE",
"573 516 CURVE",
"445 505 LINE",
"440 563 OFFCURVE",
"401 608 OFFCURVE",
"320 608 CURVE SMOOTH",
"235 608 OFFCURVE",
"184 556 OFFCURVE",
"184 470 CURVE SMOOTH",
"184 396 LINE"
);
}
);
width = 626;
},
{
layerId = "CEFBB1E5-951F-4065-926E-8B9137F837F5";
paths = (
{
closed = 1;
nodes = (
"215 406 OFFCURVE",
"140 335 OFFCURVE",
"140 226 CURVE SMOOTH",
"140 218 LINE SMOOTH",
"140 109 OFFCURVE",
"214 42 OFFCURVE",
"319 42 CURVE SMOOTH",
"424 42 OFFCURVE",
"498 109 OFFCURVE",
"498 218 CURVE SMOOTH",
"498 226 LINE SMOOTH",
"498 335 OFFCURVE",
"423 406 OFFCURVE",
"319 406 CURVE SMOOTH"
);
},
{
closed = 1;
nodes = (
"153 369 LINE",
"177 412 OFFCURVE",
"233 460 OFFCURVE",
"334 460 CURVE SMOOTH",
"457 460 OFFCURVE",
"557 372 OFFCURVE",
"557 229 CURVE SMOOTH",
"557 217 LINE SMOOTH",
"557 74 OFFCURVE",
"453 -14 OFFCURVE",
"319 -14 CURVE SMOOTH",
"184 -14 OFFCURVE",
"81 73 OFFCURVE",
"81 222 CURVE SMOOTH",
"81 469 LINE SMOOTH",
"81 620 OFFCURVE",
"171 714 OFFCURVE",
"323 714 CURVE SMOOTH",
"462 714 OFFCURVE",
"540 632 OFFCURVE",
"550 523 CURVE",
"490 516 LINE",
"484 603 OFFCURVE",
"427 661 OFFCURVE",
"323 661 CURVE SMOOTH",
"209 661 OFFCURVE",
"140 591 OFFCURVE",
"140 476 CURVE SMOOTH",
"140 369 LINE"
);
}
);
width = 623;
}
);
leftKerningGroup = six.osf;
note = six.tosn;
rightKerningGroup = six.osf;
},
{
glyphname = seven.osf;
lastChange = "2020-05-15 12:35:45 +0000";
layers = (
{
layerId = "5117E3E8-E17C-4812-BAF5-9E7064564A59";
paths = (
{
closed = 1;
nodes = (
"38 390 LINE",
"405 390 LINE",
"405 374 LINE",
"169 -45 LINE SMOOTH",
"143 -92 OFFCURVE",
"136 -122 OFFCURVE",
"136 -174 CURVE SMOOTH",
"136 -200 LINE",
"260 -200 LINE",
"260 -180 LINE SMOOTH",
"260 -145 OFFCURVE",
"266 -126 OFFCURVE",
"283 -95 CURVE SMOOTH",
"537 356 LINE",
"537 496 LINE",
"38 496 LINE"
);
}
);
width = 577;
},
{
layerId = "CEFBB1E5-951F-4065-926E-8B9137F837F5";
paths = (
{
closed = 1;
nodes = (
"43 432 LINE",
"467 432 LINE",
"467 423 LINE",
"201 -70 LINE SMOOTH",
"177 -113 OFFCURVE",
"172 -136 OFFCURVE",
"172 -181 CURVE SMOOTH",
"172 -200 LINE",
"229 -200 LINE",
"229 -182 LINE SMOOTH",
"229 -147 OFFCURVE",
"234 -130 OFFCURVE",
"249 -102 CURVE SMOOTH",
"529 417 LINE",
"529 486 LINE",
"43 486 LINE"
);
}
);
width = 576;
}
);
leftKerningGroup = seven.osf;
note = seven.tosn;
rightKerningGroup = seven.osf;
},
{
glyphname = eight.osf;
lastChange = "2020-05-15 12:35:45 +0000";
layers = (
{
layerId = "5117E3E8-E17C-4812-BAF5-9E7064564A59";
paths = (
{
closed = 1;
nodes = (
"164 714 OFFCURVE",
"58 644 OFFCURVE",
"58 530 CURVE SMOOTH",
"58 521 LINE SMOOTH",
"58 432 OFFCURVE",
"111 388 OFFCURVE",
"157 371 CURVE",
"157 353 LINE",
"109 338 OFFCURVE",
"48 291 OFFCURVE",
"48 197 CURVE SMOOTH",
"48 187 LINE SMOOTH",
"48 56 OFFCURVE",
"162 -14 OFFCURVE",
"309 -14 CURVE SMOOTH",
"456 -14 OFFCURVE",
"570 56 OFFCURVE",
"570 187 CURVE SMOOTH",
"570 197 LINE SMOOTH",
"570 291 OFFCURVE",
"509 338 OFFCURVE",
"461 353 CURVE",
"461 371 LINE",
"507 388 OFFCURVE",
"560 432 OFFCURVE",
"560 521 CURVE SMOOTH",
"560 530 LINE SMOOTH",
"560 644 OFFCURVE",
"454 714 OFFCURVE",
"309 714 CURVE SMOOTH"
);
},
{
closed = 1;
nodes = (
"395 304 OFFCURVE",
"445 267 OFFCURVE",
"445 204 CURVE SMOOTH",
"445 197 LINE SMOOTH",
"445 134 OFFCURVE",
"393 92 OFFCURVE",
"309 92 CURVE SMOOTH",
"225 92 OFFCURVE",
"173 134 OFFCURVE",
"173 197 CURVE SMOOTH",
"173 204 LINE SMOOTH",
"173 267 OFFCURVE",
"223 304 OFFCURVE",
"309 304 CURVE SMOOTH"
);
},
{
closed = 1;
nodes = (
"385 608 OFFCURVE",
"435 573 OFFCURVE",
"435 512 CURVE SMOOTH",
"435 505 LINE SMOOTH",
"435 444 OFFCURVE",
"387 410 OFFCURVE",
"309 410 CURVE SMOOTH",
"231 410 OFFCURVE",
"183 444 OFFCURVE",
"183 505 CURVE SMOOTH",
"183 512 LINE SMOOTH",
"183 573 OFFCURVE",
"233 608 OFFCURVE",
"309 608 CURVE SMOOTH"
);
}
);
width = 618;
},
{
layerId = "CEFBB1E5-951F-4065-926E-8B9137F837F5";
paths = (
{
closed = 1;
nodes = (
"175 714 OFFCURVE",
"78 644 OFFCURVE",
"78 535 CURVE SMOOTH",
"78 527 LINE SMOOTH",
"78 433 OFFCURVE",
"147 385 OFFCURVE",
"196 370 CURVE",
"196 357 LINE",
"147 349 OFFCURVE",
"66 297 OFFCURVE",
"66 191 CURVE SMOOTH",
"66 181 LINE SMOOTH",
"66 56 OFFCURVE",
"168 -14 OFFCURVE",
"313 -14 CURVE SMOOTH",
"459 -14 OFFCURVE",
"561 56 OFFCURVE",
"561 181 CURVE SMOOTH",
"561 191 LINE SMOOTH",
"561 297 OFFCURVE",
"480 349 OFFCURVE",
"430 357 CURVE",
"430 370 LINE",
"480 385 OFFCURVE",
"549 433 OFFCURVE",
"549 527 CURVE SMOOTH",
"549 535 LINE SMOOTH",
"549 644 OFFCURVE",
"451 714 OFFCURVE",
"313 714 CURVE SMOOTH"
);
},
{
closed = 1;
nodes = (
"423 335 OFFCURVE",
"502 287 OFFCURVE",
"502 192 CURVE SMOOTH",
"502 184 LINE SMOOTH",
"502 90 OFFCURVE",
"421 40 OFFCURVE",
"313 40 CURVE SMOOTH",
"206 40 OFFCURVE",
"125 90 OFFCURVE",
"125 184 CURVE SMOOTH",
"125 192 LINE SMOOTH",
"125 287 OFFCURVE",
"205 335 OFFCURVE",
"313 335 CURVE SMOOTH"
);
},
{
closed = 1;
nodes = (
"412 661 OFFCURVE",
"489 612 OFFCURVE",
"489 528 CURVE SMOOTH",
"489 520 LINE SMOOTH",
"489 435 OFFCURVE",
"413 388 OFFCURVE",
"313 388 CURVE SMOOTH",
"214 388 OFFCURVE",
"138 435 OFFCURVE",
"138 520 CURVE SMOOTH",
"138 528 LINE SMOOTH",
"138 612 OFFCURVE",
"215 661 OFFCURVE",
"313 661 CURVE SMOOTH"
);
}
);
width = 627;
}
);
leftKerningGroup = eight.osf;
note = eight.tosn;
rightKerningGroup = eight.osf;
},
{
glyphname = nine.osf;
lastChange = "2020-05-15 12:35:45 +0000";
layers = (
{
layerId = "5117E3E8-E17C-4812-BAF5-9E7064564A59";
paths = (
{
closed = 1;
nodes = (
"387 144 OFFCURVE",
"442 193 OFFCURVE",
"442 269 CURVE SMOOTH",
"442 277 LINE SMOOTH",
"442 353 OFFCURVE",
"388 402 OFFCURVE",
"308 402 CURVE SMOOTH",
"228 402 OFFCURVE",
"174 353 OFFCURVE",
"174 277 CURVE SMOOTH",
"174 269 LINE SMOOTH",
"174 193 OFFCURVE",
"229 144 OFFCURVE",
"308 144 CURVE SMOOTH"
);
},
{
closed = 1;
nodes = (
"424 100 LINE",
"402 74 OFFCURVE",
"358 40 OFFCURVE",
"273 40 CURVE SMOOTH",
"154 40 OFFCURVE",
"48 126 OFFCURVE",
"48 265 CURVE SMOOTH",
"48 277 LINE SMOOTH",
"48 416 OFFCURVE",
"153 510 OFFCURVE",
"310 510 CURVE SMOOTH",
"467 510 OFFCURVE",
"568 413 OFFCURVE",
"568 275 CURVE SMOOTH",
"568 40 LINE SMOOTH",
"568 -130 OFFCURVE",
"460 -214 OFFCURVE",
"306 -214 CURVE SMOOTH",
"161 -214 OFFCURVE",
"65 -140 OFFCURVE",
"53 -20 CURVE",
"181 -9 LINE",
"187 -63 OFFCURVE",
"225 -108 OFFCURVE",
"306 -108 CURVE SMOOTH",
"391 -108 OFFCURVE",
"442 -56 OFFCURVE",
"442 30 CURVE SMOOTH",
"442 100 LINE"
);
}
);
width = 626;
},
{
layerId = "CEFBB1E5-951F-4065-926E-8B9137F837F5";
paths = (
{
closed = 1;
nodes = (
"408 79 OFFCURVE",
"482 150 OFFCURVE",
"482 259 CURVE SMOOTH",
"482 267 LINE SMOOTH",
"482 377 OFFCURVE",
"409 444 OFFCURVE",
"304 444 CURVE SMOOTH",
"198 444 OFFCURVE",
"125 377 OFFCURVE",
"125 267 CURVE SMOOTH",
"125 259 LINE SMOOTH",
"125 150 OFFCURVE",
"199 79 OFFCURVE",
"304 79 CURVE SMOOTH"
);
},
{
closed = 1;
nodes = (
"470 117 LINE",
"446 73 OFFCURVE",
"390 26 OFFCURVE",
"289 26 CURVE SMOOTH",
"164 26 OFFCURVE",
"66 114 OFFCURVE",
"66 256 CURVE SMOOTH",
"66 268 LINE SMOOTH",
"66 412 OFFCURVE",
"170 500 OFFCURVE",
"304 500 CURVE SMOOTH",
"439 500 OFFCURVE",
"542 412 OFFCURVE",
"542 264 CURVE SMOOTH",
"542 31 LINE SMOOTH",
"542 -120 OFFCURVE",
"454 -214 OFFCURVE",
"303 -214 CURVE SMOOTH",
"163 -214 OFFCURVE",
"83 -137 OFFCURVE",
"71 -34 CURVE",
"131 -27 LINE",
"139 -108 OFFCURVE",
"197 -161 OFFCURVE",
"303 -161 CURVE SMOOTH",
"416 -161 OFFCURVE",
"482 -91 OFFCURVE",
"482 24 CURVE SMOOTH",
"482 117 LINE"
);
}
);
width = 623;
}
);
leftKerningGroup = nine.osf;
note = nine.tosn;
rightKerningGroup = nine.osf;
},
{
glyphname = zero.osf.zero;
lastChange = "2020-05-15 12:35:45 +0000";
layers = (
{
layerId = "5117E3E8-E17C-4812-BAF5-9E7064564A59";
paths = (
{
closed = 1;
nodes = (
"46 90 OFFCURVE",
"158 -14 OFFCURVE",
"312 -14 CURVE SMOOTH",
"466 -14 OFFCURVE",
"578 90 OFFCURVE",
"578 248 CURVE SMOOTH",
"578 406 OFFCURVE",
"466 510 OFFCURVE",
"312 510 CURVE SMOOTH",
"158 510 OFFCURVE",
"46 406 OFFCURVE",
"46 248 CURVE SMOOTH"
);
},
{
closed = 1;
nodes = (
"168 335 OFFCURVE",
"226 402 OFFCURVE",
"312 402 CURVE SMOOTH",
"403 402 OFFCURVE",
"456 341 OFFCURVE",
"456 248 CURVE SMOOTH",
"456 161 OFFCURVE",
"398 94 OFFCURVE",
"312 94 CURVE SMOOTH",
"221 94 OFFCURVE",
"168 155 OFFCURVE",
"168 248 CURVE SMOOTH"
);
},
{
closed = 1;
nodes = (
"113 151 LINE",
"159 85 LINE",
"511 345 LINE",
"465 411 LINE"
);
}
);
width = 624;
},
{
layerId = "CEFBB1E5-951F-4065-926E-8B9137F837F5";
paths = (
{
closed = 1;
nodes = (
"64 93 OFFCURVE",
"165 -14 OFFCURVE",
"317 -14 CURVE SMOOTH",
"470 -14 OFFCURVE",
"571 93 OFFCURVE",
"571 243 CURVE SMOOTH",
"571 393 OFFCURVE",
"470 500 OFFCURVE",
"317 500 CURVE SMOOTH",
"165 500 OFFCURVE",
"64 393 OFFCURVE",
"64 243 CURVE SMOOTH"
);
},
{
closed = 1;
nodes = (
"123 359 OFFCURVE",
"200 446 OFFCURVE",
"317 446 CURVE SMOOTH",
"435 446 OFFCURVE",
"512 364 OFFCURVE",
"512 243 CURVE SMOOTH",
"512 124 OFFCURVE",
"434 40 OFFCURVE",
"317 40 CURVE SMOOTH",
"199 40 OFFCURVE",
"123 119 OFFCURVE",
"123 243 CURVE SMOOTH"
);
},
{
closed = 1;
nodes = (
"124 139 LINE",
"149 97 LINE",
"510 347 LINE",
"485 388 LINE"
);
}
);
width = 634;
}
);
leftKerningGroup = zero.osf;
leftMetricsKey = o;
note = zero.tosn;
rightKerningGroup = zero.osf;
rightMetricsKey = o;
},
{
glyphname = one.tf;
lastChange = "2020-05-15 12:35:45 +0000";
layers = (
{
layerId = "5117E3E8-E17C-4812-BAF5-9E7064564A59";
paths = (
{
closed = 1;
nodes = (
"68 120 LINE",
"68 0 LINE",
"572 0 LINE",
"572 120 LINE"
);
},
{
closed = 1;
nodes = (
"89 384 LINE",
"216 384 LINE",
"270 603 LINE",
"288 603 LINE",
"288 0 LINE",
"418 0 LINE",
"418 700 LINE",
"176 700 LINE"
);
}
);
width = 620;
},
{
layerId = "CEFBB1E5-951F-4065-926E-8B9137F837F5";
paths = (
{
closed = 1;
nodes = (
"63 57 LINE",
"63 0 LINE",
"584 0 LINE",
"584 57 LINE"
);
},
{
closed = 1;
nodes = (
"102 402 LINE",
"171 402 LINE",
"310 657 LINE",
"323 657 LINE",
"323 0 LINE",
"385 0 LINE",
"385 700 LINE",
"266 700 LINE"
);
}
);
width = 620;
}
);
note = one;
},
{
glyphname = four.tf;
lastChange = "2020-05-15 12:35:45 +0000";
layers = (
{
layerId = "5117E3E8-E17C-4812-BAF5-9E7064564A59";
paths = (
{
closed = 1;
nodes = (
"32 252 LINE",
"32 142 LINE",
"360 142 LINE",
"360 0 LINE",
"490 0 LINE",
"490 142 LINE",
"604 142 LINE",
"604 256 LINE",
"490 256 LINE",
"490 700 LINE",
"258 700 LINE"
);
},
{
closed = 1;
nodes = (
"360 614 LINE",
"360 256 LINE",
"162 256 LINE",
"342 614 LINE"
);
}
);
width = 620;
},
{
layerId = "CEFBB1E5-951F-4065-926E-8B9137F837F5";
paths = (
{
closed = 1;
nodes = (
"39 198 LINE",
"39 144 LINE",
"409 144 LINE",
"409 0 LINE",
"471 0 LINE",
"471 144 LINE",
"594 144 LINE",
"594 200 LINE",
"471 200 LINE",
"471 700 LINE",
"362 700 LINE"
);
},
{
closed = 1;
nodes = (
"409 644 LINE",
"409 200 LINE",
"108 200 LINE",
"396 644 LINE"
);
}
);
width = 620;
}
);
note = four;
},
{
glyphname = seven.tf;
lastChange = "2020-05-15 12:35:45 +0000";
layers = (
{
layerId = "5117E3E8-E17C-4812-BAF5-9E7064564A59";
paths = (
{
closed = 1;
nodes = (
"38 584 LINE",
"446 584 LINE",
"446 568 LINE",
"192 155 LINE SMOOTH",
"163 108 OFFCURVE",
"160 78 OFFCURVE",
"160 26 CURVE SMOOTH",
"160 0 LINE",
"291 0 LINE",
"291 20 LINE SMOOTH",
"291 55 OFFCURVE",
"295 74 OFFCURVE",
"314 105 CURVE SMOOTH",
"582 546 LINE",
"582 700 LINE",
"38 700 LINE"
);
}
);
width = 620;
},
{
layerId = "CEFBB1E5-951F-4065-926E-8B9137F837F5";
paths = (
{
closed = 1;
nodes = (
"44 644 LINE",
"506 644 LINE",
"506 635 LINE",
"213 135 LINE SMOOTH",
"188 93 OFFCURVE",
"185 69 OFFCURVE",
"185 24 CURVE SMOOTH",
"185 0 LINE",
"246 0 LINE",
"246 24 LINE SMOOTH",
"246 59 OFFCURVE",
"250 76 OFFCURVE",
"266 103 CURVE SMOOTH",
"572 627 LINE",
"572 700 LINE",
"44 700 LINE"
);
}
);
width = 620;
}
);
note = seven;
},
{
glyphname = one.tosf;
lastChange = "2020-05-15 12:35:45 +0000";
layers = (
{
layerId = "5117E3E8-E17C-4812-BAF5-9E7064564A59";
paths = (
{
closed = 1;
nodes = (
"46 106 LINE",
"46 0 LINE",
"576 0 LINE",
"576 106 LINE"
);
},
{
closed = 1;
nodes = (
"100 274 LINE",
"228 274 LINE",
"279 408 LINE",
"297 408 LINE",
"297 0 LINE",
"423 0 LINE",
"423 496 LINE",
"196 496 LINE"
);
}
);
width = 620;
},
{
layerId = "CEFBB1E5-951F-4065-926E-8B9137F837F5";
paths = (
{
closed = 1;
nodes = (
"58 54 LINE",
"58 0 LINE",
"585 0 LINE",
"585 54 LINE"
);
},
{
closed = 1;
nodes = (
"135 272 LINE",
"204 272 LINE",
"316 440 LINE",
"327 440 LINE",
"327 0 LINE",
"386 0 LINE",
"386 486 LINE",
"278 486 LINE"
);
}
);
width = 620;
}
);
note = one.tosn;
},
{
glyphname = seven.tosf;
lastChange = "2020-05-15 12:35:45 +0000";
layers = (
{
layerId = "5117E3E8-E17C-4812-BAF5-9E7064564A59";
paths = (
{
closed = 1;
nodes = (
"46 390 LINE",
"433 390 LINE",
"433 374 LINE",
"188 -45 LINE SMOOTH",
"161 -91 OFFCURVE",
"155 -122 OFFCURVE",
"155 -174 CURVE SMOOTH",
"155 -200 LINE",
"279 -200 LINE",
"279 -180 LINE SMOOTH",
"279 -145 OFFCURVE",
"284 -126 OFFCURVE",
"302 -95 CURVE SMOOTH",
"566 356 LINE",
"566 496 LINE",
"46 496 LINE"
);
}
);
width = 620;
},
{
layerId = "CEFBB1E5-951F-4065-926E-8B9137F837F5";
paths = (
{
closed = 1;
nodes = (
"53 432 LINE",
"500 432 LINE",
"500 423 LINE",
"222 -70 LINE SMOOTH",
"199 -113 OFFCURVE",
"194 -136 OFFCURVE",
"194 -181 CURVE SMOOTH",
"194 -200 LINE",
"251 -200 LINE",
"251 -182 LINE SMOOTH",
"251 -147 OFFCURVE",
"255 -130 OFFCURVE",
"271 -102 CURVE SMOOTH",
"563 417 LINE",
"563 486 LINE",
"53 486 LINE"
);
}
);
width = 620;
}
);
note = seven.tosn;
},
{
glyphname = zero.dnom;
lastChange = "2020-05-15 12:35:45 +0000";
layers = (
{
layerId = "5117E3E8-E17C-4812-BAF5-9E7064564A59";
paths = (
{
closed = 1;
nodes = (
"36 141 LINE SMOOTH",
"36 47 OFFCURVE",
"93 -10 OFFCURVE",
"194 -10 CURVE SMOOTH",
"295 -10 OFFCURVE",
"352 47 OFFCURVE",
"352 141 CURVE SMOOTH",
"352 208 LINE SMOOTH",
"352 302 OFFCURVE",
"295 360 OFFCURVE",
"194 360 CURVE SMOOTH",
"93 360 OFFCURVE",
"36 302 OFFCURVE",
"36 208 CURVE SMOOTH"
);
},
{
closed = 1;
nodes = (
"130 256 OFFCURVE",
"152 284 OFFCURVE",
"194 284 CURVE SMOOTH",
"236 284 OFFCURVE",
"258 256 OFFCURVE",
"258 215 CURVE SMOOTH",
"258 135 LINE SMOOTH",
"258 94 OFFCURVE",
"236 66 OFFCURVE",
"194 66 CURVE SMOOTH",
"152 66 OFFCURVE",
"130 94 OFFCURVE",
"130 135 CURVE SMOOTH",
"130 215 LINE SMOOTH"
);
}
);
width = 388;
},
{
layerId = "CEFBB1E5-951F-4065-926E-8B9137F837F5";
paths = (
{
closed = 1;
nodes = (
"43 148 LINE SMOOTH",
"43 51 OFFCURVE",
"103 -10 OFFCURVE",
"201 -10 CURVE SMOOTH",
"299 -10 OFFCURVE",
"359 51 OFFCURVE",
"359 148 CURVE SMOOTH",
"359 201 LINE SMOOTH",
"359 299 OFFCURVE",
"299 360 OFFCURVE",
"201 360 CURVE SMOOTH",
"103 360 OFFCURVE",
"43 299 OFFCURVE",
"43 201 CURVE SMOOTH"
);
},
{
closed = 1;
nodes = (
"93 272 OFFCURVE",
"134 316 OFFCURVE",
"201 316 CURVE SMOOTH",
"268 316 OFFCURVE",
"309 272 OFFCURVE",
"309 206 CURVE SMOOTH",
"309 144 LINE SMOOTH",
"309 78 OFFCURVE",
"268 35 OFFCURVE",
"201 35 CURVE SMOOTH",
"134 35 OFFCURVE",
"93 78 OFFCURVE",
"93 144 CURVE SMOOTH",
"93 206 LINE SMOOTH"
);
}
);
width = 402;
}
);
leftKerningGroup = zero.dnom;
rightKerningGroup = zero.dnom;
},
{
glyphname = one.dnom;
lastChange = "2020-05-15 12:35:45 +0000";
layers = (
{
layerId = "5117E3E8-E17C-4812-BAF5-9E7064564A59";
paths = (
{
closed = 1;
nodes = (
"18 194 LINE",
"103 194 LINE",
"118 272 LINE",
"132 272 LINE",
"132 0 LINE",
"226 0 LINE",
"226 350 LINE",
"56 350 LINE"
);
}
);
width = 270;
},
{
layerId = "CEFBB1E5-951F-4065-926E-8B9137F837F5";
paths = (
{
closed = 1;
nodes = (
"20 194 LINE",
"75 194 LINE",
"132 288 LINE",
"143 288 LINE",
"143 0 LINE",
"193 0 LINE",
"193 350 LINE",
"117 350 LINE"
);
}
);
width = 246;
}
);
leftKerningGroup = one.dnom;
rightKerningGroup = one.dnom;
},
{
glyphname = two.dnom;
lastChange = "2020-05-15 12:35:45 +0000";
layers = (
{
layerId = "5117E3E8-E17C-4812-BAF5-9E7064564A59";
paths = (
{
closed = 1;
nodes = (
"128 230 LINE",
"130 271 OFFCURVE",
"158 286 OFFCURVE",
"190 286 CURVE SMOOTH",
"222 286 OFFCURVE",
"246 271 OFFCURVE",
"246 244 CURVE SMOOTH",
"246 216 OFFCURVE",
"220 200 OFFCURVE",
"161 187 CURVE SMOOTH",
"71 167 OFFCURVE",
"30 124 OFFCURVE",
"30 44 CURVE SMOOTH",
"30 0 LINE",
"338 0 LINE",
"338 76 LINE",
"130 76 LINE",
"130 98 OFFCURVE",
"148 110 OFFCURVE",
"201 121 CURVE SMOOTH",
"286 139 OFFCURVE",
"340 171 OFFCURVE",
"340 243 CURVE SMOOTH",
"340 315 OFFCURVE",
"276 362 OFFCURVE",
"190 362 CURVE SMOOTH",
"103 362 OFFCURVE",
"41 318 OFFCURVE",
"34 237 CURVE"
);
}
);
width = 372;
},
{
layerId = "CEFBB1E5-951F-4065-926E-8B9137F837F5";
paths = (
{
closed = 1;
nodes = (
"80 232 LINE",
"85 292 OFFCURVE",
"127 319 OFFCURVE",
"188 319 CURVE SMOOTH",
"247 319 OFFCURVE",
"285 289 OFFCURVE",
"285 247 CURVE SMOOTH",
"285 201 OFFCURVE",
"248 179 OFFCURVE",
"169 161 CURVE SMOOTH",
"74 139 OFFCURVE",
"28 94 OFFCURVE",
"28 25 CURVE SMOOTH",
"28 0 LINE",
"333 0 LINE",
"333 45 LINE",
"81 45 LINE",
"87 88 OFFCURVE",
"124 105 OFFCURVE",
"204 124 CURVE SMOOTH",
"287 143 OFFCURVE",
"335 174 OFFCURVE",
"335 247 CURVE SMOOTH",
"335 319 OFFCURVE",
"276 364 OFFCURVE",
"188 364 CURVE SMOOTH",
"100 364 OFFCURVE",
"38 322 OFFCURVE",
"30 234 CURVE"
);
}
);
width = 367;
}
);
leftKerningGroup = two.dnom;
rightKerningGroup = two.dnom;
},
{
glyphname = three.dnom;
lastChange = "2020-05-15 12:35:45 +0000";
layers = (
{
layerId = "5117E3E8-E17C-4812-BAF5-9E7064564A59";
paths = (
{
closed = 1;
nodes = (
"26 110 LINE",
"32 33 OFFCURVE",
"99 -12 OFFCURVE",
"187 -12 CURVE SMOOTH",
"275 -12 OFFCURVE",
"343 39 OFFCURVE",
"343 111 CURVE SMOOTH",
"343 175 OFFCURVE",
"303 205 OFFCURVE",
"235 208 CURVE",
"235 222 LINE",
"341 272 LINE",
"341 350 LINE",
"33 350 LINE",
"33 276 LINE",
"204 276 LINE",
"204 262 LINE",
"119 226 LINE",
"119 160 LINE",
"185 160 LINE SMOOTH",
"226 160 OFFCURVE",
"249 144 OFFCURVE",
"249 115 CURVE SMOOTH",
"249 87 OFFCURVE",
"225 64 OFFCURVE",
"187 64 CURVE SMOOTH",
"152 64 OFFCURVE",
"123 86 OFFCURVE",
"119 120 CURVE"
);
}
);
width = 371;
},
{
layerId = "CEFBB1E5-951F-4065-926E-8B9137F837F5";
paths = (
{
closed = 1;
nodes = (
"31 113 LINE",
"36 30 OFFCURVE",
"105 -14 OFFCURVE",
"191 -14 CURVE SMOOTH",
"279 -14 OFFCURVE",
"346 33 OFFCURVE",
"346 105 CURVE SMOOTH",
"346 179 OFFCURVE",
"293 211 OFFCURVE",
"205 213 CURVE",
"205 222 LINE",
"344 293 LINE",
"344 350 LINE",
"39 350 LINE",
"39 306 LINE",
"267 306 LINE",
"267 297 LINE",
"130 226 LINE",
"130 176 LINE",
"189 176 LINE SMOOTH",
"257 176 OFFCURVE",
"295 155 OFFCURVE",
"295 105 CURVE SMOOTH",
"295 60 OFFCURVE",
"252 31 OFFCURVE",
"191 31 CURVE SMOOTH",
"132 31 OFFCURVE",
"85 59 OFFCURVE",
"81 117 CURVE"
);
}
);
width = 381;
}
);
leftKerningGroup = three.dnom;
rightKerningGroup = three.dnom;
},
{
glyphname = four.dnom;
lastChange = "2020-05-15 12:35:45 +0000";
layers = (
{
layerId = "5117E3E8-E17C-4812-BAF5-9E7064564A59";
paths = (
{
closed = 1;
nodes = (
"16 141 LINE",
"16 71 LINE",
"218 71 LINE",
"218 0 LINE",
"312 0 LINE",
"312 71 LINE",
"372 71 LINE",
"372 147 LINE",
"312 147 LINE",
"312 350 LINE",
"149 350 LINE"
);
},
{
closed = 1;
nodes = (
"218 286 LINE",
"218 147 LINE",
"117 147 LINE",
"204 286 LINE"
);
}
);
width = 390;
},
{
layerId = "CEFBB1E5-951F-4065-926E-8B9137F837F5";
paths = (
{
closed = 1;
nodes = (
"21 126 LINE",
"21 88 LINE",
"243 88 LINE",
"243 0 LINE",
"294 0 LINE",
"294 88 LINE",
"377 88 LINE",
"377 132 LINE",
"294 132 LINE",
"294 350 LINE",
"210 350 LINE"
);
},
{
closed = 1;
nodes = (
"243 307 LINE",
"243 132 LINE",
"86 132 LINE",
"233 307 LINE"
);
}
);
width = 394;
}
);
leftKerningGroup = four.dnom;
rightKerningGroup = four.dnom;
},
{
glyphname = five.dnom;
lastChange = "2020-05-15 12:35:45 +0000";
layers = (
{
layerId = "5117E3E8-E17C-4812-BAF5-9E7064564A59";
paths = (
{
closed = 1;
nodes = (
"28 103 LINE",
"36 38 OFFCURVE",
"92 -12 OFFCURVE",
"186 -12 CURVE SMOOTH",
"284 -12 OFFCURVE",
"340 42 OFFCURVE",
"340 117 CURVE SMOOTH",
"340 192 OFFCURVE",
"282 232 OFFCURVE",
"224 232 CURVE SMOOTH",
"180 232 OFFCURVE",
"159 218 OFFCURVE",
"146 206 CURVE",
"132 206 LINE",
"132 274 LINE",
"330 274 LINE",
"330 350 LINE",
"38 350 LINE",
"38 141 LINE",
"143 141 LINE",
"151 150 OFFCURVE",
"165 163 OFFCURVE",
"193 163 CURVE SMOOTH",
"222 163 OFFCURVE",
"246 147 OFFCURVE",
"246 116 CURVE SMOOTH",
"246 85 OFFCURVE",
"222 64 OFFCURVE",
"186 64 CURVE SMOOTH",
"151 64 OFFCURVE",
"127 84 OFFCURVE",
"122 110 CURVE"
);
}
);
width = 368;
},
{
layerId = "CEFBB1E5-951F-4065-926E-8B9137F837F5";
paths = (
{
closed = 1;
nodes = (
"37 101 LINE",
"46 35 OFFCURVE",
"103 -14 OFFCURVE",
"196 -14 CURVE SMOOTH",
"292 -14 OFFCURVE",
"348 39 OFFCURVE",
"348 116 CURVE SMOOTH",
"348 194 OFFCURVE",
"292 237 OFFCURVE",
"214 237 CURVE SMOOTH",
"152 237 OFFCURVE",
"122 211 OFFCURVE",
"108 200 CURVE",
"98 200 LINE",
"98 306 LINE",
"338 306 LINE",
"338 350 LINE",
"48 350 LINE",
"48 153 LINE",
"112 153 LINE",
"125 167 OFFCURVE",
"151 194 OFFCURVE",
"203 194 CURVE SMOOTH",
"257 194 OFFCURVE",
"298 165 OFFCURVE",
"298 115 CURVE SMOOTH",
"298 66 OFFCURVE",
"260 31 OFFCURVE",
"196 31 CURVE SMOOTH",
"134 31 OFFCURVE",
"94 64 OFFCURVE",
"88 107 CURVE"
);
}
);
width = 379;
}
);
leftKerningGroup = five.dnom;
rightKerningGroup = five.dnom;
},
{
glyphname = six.dnom;
lastChange = "2020-05-15 12:35:45 +0000";
layers = (
{
layerId = "5117E3E8-E17C-4812-BAF5-9E7064564A59";
paths = (
{
closed = 1;
nodes = (
"343 258 LINE",
"334 315 OFFCURVE",
"279 362 OFFCURVE",
"193 362 CURVE SMOOTH",
"103 362 OFFCURVE",
"36 310 OFFCURVE",
"36 226 CURVE SMOOTH",
"36 118 LINE SMOOTH",
"36 38 OFFCURVE",
"101 -12 OFFCURVE",
"193 -12 CURVE SMOOTH",
"285 -12 OFFCURVE",
"350 38 OFFCURVE",
"350 114 CURVE SMOOTH",
"350 190 OFFCURVE",
"289 227 OFFCURVE",
"219 227 CURVE SMOOTH",
"178 227 OFFCURVE",
"154 212 OFFCURVE",
"144 202 CURVE",
"130 202 LINE",
"130 228 LINE SMOOTH",
"130 262 OFFCURVE",
"155 286 OFFCURVE",
"193 286 CURVE SMOOTH",
"230 286 OFFCURVE",
"244 268 OFFCURVE",
"248 251 CURVE"
);
},
{
closed = 1;
nodes = (
"130 140 OFFCURVE",
"153 160 OFFCURVE",
"193 160 CURVE SMOOTH",
"233 160 OFFCURVE",
"256 140 OFFCURVE",
"256 112 CURVE SMOOTH",
"256 84 OFFCURVE",
"233 64 OFFCURVE",
"193 64 CURVE SMOOTH",
"153 64 OFFCURVE",
"130 84 OFFCURVE",
"130 112 CURVE SMOOTH"
);
}
);
width = 378;
},
{
layerId = "CEFBB1E5-951F-4065-926E-8B9137F837F5";
paths = (
{
closed = 1;
nodes = (
"350 262 LINE",
"343 321 OFFCURVE",
"288 364 OFFCURVE",
"199 364 CURVE SMOOTH",
"108 364 OFFCURVE",
"43 309 OFFCURVE",
"43 230 CURVE SMOOTH",
"43 112 LINE SMOOTH",
"43 36 OFFCURVE",
"108 -14 OFFCURVE",
"200 -14 CURVE SMOOTH",
"292 -14 OFFCURVE",
"357 36 OFFCURVE",
"357 113 CURVE SMOOTH",
"357 190 OFFCURVE",
"293 235 OFFCURVE",
"214 235 CURVE SMOOTH",
"145 235 OFFCURVE",
"116 209 OFFCURVE",
"104 199 CURVE",
"93 199 LINE",
"93 230 LINE SMOOTH",
"93 281 OFFCURVE",
"133 319 OFFCURVE",
"199 319 CURVE SMOOTH",
"264 319 OFFCURVE",
"295 290 OFFCURVE",
"301 257 CURVE"
);
},
{
closed = 1;
nodes = (
"93 158 OFFCURVE",
"134 192 OFFCURVE",
"200 192 CURVE SMOOTH",
"266 192 OFFCURVE",
"307 158 OFFCURVE",
"307 112 CURVE SMOOTH",
"307 67 OFFCURVE",
"266 31 OFFCURVE",
"200 31 CURVE SMOOTH",
"134 31 OFFCURVE",
"93 67 OFFCURVE",
"93 112 CURVE SMOOTH"
);
}
);
width = 394;
}
);
leftKerningGroup = six.dnom;
rightKerningGroup = six.dnom;
},
{
glyphname = seven.dnom;
lastChange = "2020-05-15 12:35:45 +0000";
layers = (
{
layerId = "5117E3E8-E17C-4812-BAF5-9E7064564A59";
paths = (
{
closed = 1;
nodes = (
"16 274 LINE",
"229 274 LINE",
"229 260 LINE",
"116 109 LINE SMOOTH",
"87 70 OFFCURVE",
"81 44 OFFCURVE",
"81 0 CURVE",
"173 0 LINE",
"173 29 OFFCURVE",
"176 41 OFFCURVE",
"194 66 CURVE SMOOTH",
"326 244 LINE",
"326 350 LINE",
"16 350 LINE"
);
}
);
width = 342;
},
{
layerId = "CEFBB1E5-951F-4065-926E-8B9137F837F5";
paths = (
{
closed = 1;
nodes = (
"20 306 LINE",
"266 306 LINE",
"266 297 LINE",
"132 102 LINE SMOOTH",
"107 67 OFFCURVE",
"101 42 OFFCURVE",
"101 0 CURVE",
"151 0 LINE",
"151 36 OFFCURVE",
"155 51 OFFCURVE",
"171 75 CURVE SMOOTH",
"319 290 LINE",
"319 350 LINE",
"20 350 LINE"
);
}
);
width = 340;
}
);
leftKerningGroup = seven.dnom;
rightKerningGroup = seven.dnom;
},
{
glyphname = eight.dnom;
lastChange = "2020-05-15 12:35:45 +0000";
layers = (
{
layerId = "5117E3E8-E17C-4812-BAF5-9E7064564A59";
paths = (
{
closed = 1;
nodes = (
"38 216 OFFCURVE",
"72 195 OFFCURVE",
"91 189 CURVE",
"91 175 LINE",
"69 169 OFFCURVE",
"32 148 OFFCURVE",
"32 93 CURVE SMOOTH",
"32 31 OFFCURVE",
"88 -12 OFFCURVE",
"190 -12 CURVE SMOOTH",
"292 -12 OFFCURVE",
"348 31 OFFCURVE",
"348 93 CURVE SMOOTH",
"348 148 OFFCURVE",
"311 169 OFFCURVE",
"289 175 CURVE",
"289 189 LINE",
"308 195 OFFCURVE",
"342 216 OFFCURVE",
"342 264 CURVE SMOOTH",
"342 323 OFFCURVE",
"283 362 OFFCURVE",
"190 362 CURVE SMOOTH",
"97 362 OFFCURVE",
"38 323 OFFCURVE",
"38 264 CURVE SMOOTH"
);
},
{
closed = 1;
nodes = (
"124 127 OFFCURVE",
"149 142 OFFCURVE",
"190 142 CURVE SMOOTH",
"231 142 OFFCURVE",
"256 127 OFFCURVE",
"256 103 CURVE SMOOTH",
"256 79 OFFCURVE",
"231 64 OFFCURVE",
"190 64 CURVE SMOOTH",
"149 64 OFFCURVE",
"124 79 OFFCURVE",
"124 103 CURVE SMOOTH"
);
},
{
closed = 1;
nodes = (
"130 273 OFFCURVE",
"152 286 OFFCURVE",
"190 286 CURVE SMOOTH",
"228 286 OFFCURVE",
"250 273 OFFCURVE",
"250 253 CURVE SMOOTH",
"250 233 OFFCURVE",
"228 218 OFFCURVE",
"190 218 CURVE SMOOTH",
"152 218 OFFCURVE",
"130 233 OFFCURVE",
"130 253 CURVE SMOOTH"
);
}
);
width = 380;
},
{
layerId = "CEFBB1E5-951F-4065-926E-8B9137F837F5";
paths = (
{
closed = 1;
nodes = (
"45 215 OFFCURVE",
"83 192 OFFCURVE",
"111 185 CURVE",
"111 174 LINE",
"80 167 OFFCURVE",
"39 145 OFFCURVE",
"39 90 CURVE SMOOTH",
"39 31 OFFCURVE",
"97 -14 OFFCURVE",
"197 -14 CURVE SMOOTH",
"297 -14 OFFCURVE",
"355 31 OFFCURVE",
"355 90 CURVE SMOOTH",
"355 145 OFFCURVE",
"314 167 OFFCURVE",
"284 174 CURVE",
"284 185 LINE",
"311 192 OFFCURVE",
"349 215 OFFCURVE",
"349 265 CURVE SMOOTH",
"349 324 OFFCURVE",
"288 364 OFFCURVE",
"197 364 CURVE SMOOTH",
"106 364 OFFCURVE",
"45 324 OFFCURVE",
"45 265 CURVE SMOOTH"
);
},
{
closed = 1;
nodes = (
"89 134 OFFCURVE",
"130 157 OFFCURVE",
"197 157 CURVE SMOOTH",
"264 157 OFFCURVE",
"305 134 OFFCURVE",
"305 94 CURVE SMOOTH",
"305 54 OFFCURVE",
"264 31 OFFCURVE",
"197 31 CURVE SMOOTH",
"130 31 OFFCURVE",
"89 54 OFFCURVE",
"89 94 CURVE SMOOTH"
);
},
{
closed = 1;
nodes = (
"95 296 OFFCURVE",
"134 319 OFFCURVE",
"197 319 CURVE SMOOTH",
"260 319 OFFCURVE",
"299 296 OFFCURVE",
"299 261 CURVE SMOOTH",
"299 227 OFFCURVE",
"260 201 OFFCURVE",
"197 201 CURVE SMOOTH",
"134 201 OFFCURVE",
"95 227 OFFCURVE",
"95 261 CURVE SMOOTH"
);
}
);
width = 394;
}
);
leftKerningGroup = eight.dnom;
rightKerningGroup = eight.dnom;
},
{
glyphname = nine.dnom;
lastChange = "2020-05-15 12:35:45 +0000";
layers = (
{
layerId = "5117E3E8-E17C-4812-BAF5-9E7064564A59";
paths = (
{
closed = 1;
nodes = (
"35 92 LINE",
"44 35 OFFCURVE",
"99 -12 OFFCURVE",
"185 -12 CURVE SMOOTH",
"275 -12 OFFCURVE",
"342 40 OFFCURVE",
"342 124 CURVE SMOOTH",
"342 232 LINE SMOOTH",
"342 312 OFFCURVE",
"277 362 OFFCURVE",
"185 362 CURVE SMOOTH",
"93 362 OFFCURVE",
"28 312 OFFCURVE",
"28 236 CURVE SMOOTH",
"28 160 OFFCURVE",
"89 123 OFFCURVE",
"159 123 CURVE SMOOTH",
"200 123 OFFCURVE",
"224 138 OFFCURVE",
"234 148 CURVE",
"248 148 LINE",
"248 122 LINE SMOOTH",
"248 88 OFFCURVE",
"223 64 OFFCURVE",
"185 64 CURVE SMOOTH",
"148 64 OFFCURVE",
"134 82 OFFCURVE",
"130 99 CURVE"
);
},
{
closed = 1;
nodes = (
"248 210 OFFCURVE",
"225 190 OFFCURVE",
"185 190 CURVE SMOOTH",
"145 190 OFFCURVE",
"122 210 OFFCURVE",
"122 238 CURVE SMOOTH",
"122 266 OFFCURVE",
"145 286 OFFCURVE",
"185 286 CURVE SMOOTH",
"225 286 OFFCURVE",
"248 266 OFFCURVE",
"248 238 CURVE SMOOTH"
);
}
);
width = 378;
},
{
layerId = "CEFBB1E5-951F-4065-926E-8B9137F837F5";
paths = (
{
closed = 1;
nodes = (
"44 89 LINE",
"51 29 OFFCURVE",
"106 -14 OFFCURVE",
"195 -14 CURVE SMOOTH",
"286 -14 OFFCURVE",
"351 41 OFFCURVE",
"351 121 CURVE SMOOTH",
"351 238 LINE SMOOTH",
"351 314 OFFCURVE",
"286 364 OFFCURVE",
"194 364 CURVE SMOOTH",
"102 364 OFFCURVE",
"37 314 OFFCURVE",
"37 237 CURVE SMOOTH",
"37 160 OFFCURVE",
"101 115 OFFCURVE",
"180 115 CURVE SMOOTH",
"249 115 OFFCURVE",
"278 142 OFFCURVE",
"290 152 CURVE",
"301 152 LINE",
"301 120 LINE SMOOTH",
"301 69 OFFCURVE",
"261 31 OFFCURVE",
"195 31 CURVE SMOOTH",
"130 31 OFFCURVE",
"99 60 OFFCURVE",
"93 93 CURVE"
);
},
{
closed = 1;
nodes = (
"301 193 OFFCURVE",
"260 159 OFFCURVE",
"194 159 CURVE SMOOTH",
"128 159 OFFCURVE",
"87 193 OFFCURVE",
"87 238 CURVE SMOOTH",
"87 284 OFFCURVE",
"128 319 OFFCURVE",
"194 319 CURVE SMOOTH",
"260 319 OFFCURVE",
"301 284 OFFCURVE",
"301 238 CURVE SMOOTH"
);
}
);
width = 394;
}
);
leftKerningGroup = nine.dnom;
rightKerningGroup = nine.dnom;
},
{
glyphname = fraction;
lastChange = "2020-05-15 12:35:45 +0000";
layers = (
{
layerId = "5117E3E8-E17C-4812-BAF5-9E7064564A59";
paths = (
{
closed = 1;
nodes = (
"83 -10 LINE",
"622 655 LINE",
"555 710 LINE",
"16 45 LINE"
);
}
);
width = 638;
},
{
layerId = "CEFBB1E5-951F-4065-926E-8B9137F837F5";
paths = (
{
closed = 1;
nodes = (
"66 -12 LINE",
"629 681 LINE",
"590 712 LINE",
"27 19 LINE"
);
}
);
width = 656;
}
);
unicode = 2044;
},
{
glyphname = zero.dnom.zero;
lastChange = "2020-05-15 12:35:45 +0000";
layers = (
{
layerId = "5117E3E8-E17C-4812-BAF5-9E7064564A59";
paths = (
{
closed = 1;
nodes = (
"72 131 LINE",
"104 87 LINE",
"316 223 LINE",
"284 267 LINE"
);
},
{
closed = 1;
nodes = (
"36 141 LINE SMOOTH",
"36 47 OFFCURVE",
"93 -10 OFFCURVE",
"194 -10 CURVE SMOOTH",
"295 -10 OFFCURVE",
"352 47 OFFCURVE",
"352 141 CURVE SMOOTH",
"352 208 LINE SMOOTH",
"352 302 OFFCURVE",
"292 360 OFFCURVE",
"194 360 CURVE SMOOTH",
"93 360 OFFCURVE",
"36 302 OFFCURVE",
"36 208 CURVE SMOOTH"
);
},
{
closed = 1;
nodes = (
"130 256 OFFCURVE",
"152 284 OFFCURVE",
"194 284 CURVE SMOOTH",
"236 284 OFFCURVE",
"258 256 OFFCURVE",
"258 215 CURVE SMOOTH",
"258 135 LINE SMOOTH",
"258 94 OFFCURVE",
"236 66 OFFCURVE",
"194 66 CURVE SMOOTH",
"152 66 OFFCURVE",
"130 94 OFFCURVE",
"130 135 CURVE SMOOTH",
"130 215 LINE SMOOTH"
);
}
);
width = 388;
},
{
layerId = "CEFBB1E5-951F-4065-926E-8B9137F837F5";
paths = (
{
closed = 1;
nodes = (
"67 114 LINE",
"92 80 LINE",
"335 241 LINE",
"310 274 LINE"
);
},
{
closed = 1;
nodes = (
"43 148 LINE SMOOTH",
"43 51 OFFCURVE",
"103 -10 OFFCURVE",
"201 -10 CURVE SMOOTH",
"299 -10 OFFCURVE",
"359 51 OFFCURVE",
"359 148 CURVE SMOOTH",
"359 201 LINE SMOOTH",
"359 299 OFFCURVE",
"296 360 OFFCURVE",
"201 360 CURVE SMOOTH",
"103 360 OFFCURVE",
"43 299 OFFCURVE",
"43 201 CURVE SMOOTH"
);
},
{
closed = 1;
nodes = (
"93 272 OFFCURVE",
"134 316 OFFCURVE",
"201 316 CURVE SMOOTH",
"268 316 OFFCURVE",
"309 272 OFFCURVE",
"309 206 CURVE SMOOTH",
"309 144 LINE SMOOTH",
"309 78 OFFCURVE",
"268 35 OFFCURVE",
"201 35 CURVE SMOOTH",
"134 35 OFFCURVE",
"93 78 OFFCURVE",
"93 144 CURVE SMOOTH",
"93 206 LINE SMOOTH"
);
}
);
width = 402;
}
);
leftKerningGroup = zero.dnom;
leftMetricsKey = zero.dnom;
rightKerningGroup = zero.dnom;
rightMetricsKey = zero.dnom;
},
{
glyphname = period;
lastChange = "2020-05-15 12:35:45 +0000";
layers = (
{
layerId = "5117E3E8-E17C-4812-BAF5-9E7064564A59";
paths = (
{
closed = 1;
nodes = (
"54 25 OFFCURVE",
"95 -14 OFFCURVE",
"149 -14 CURVE SMOOTH",
"203 -14 OFFCURVE",
"244 25 OFFCURVE",
"244 81 CURVE SMOOTH",
"244 137 OFFCURVE",
"203 176 OFFCURVE",
"149 176 CURVE SMOOTH",
"95 176 OFFCURVE",
"54 137 OFFCURVE",
"54 81 CURVE SMOOTH"
);
}
);
width = 298;
},
{
layerId = "CEFBB1E5-951F-4065-926E-8B9137F837F5";
paths = (
{
closed = 1;
nodes = (
"61 10 OFFCURVE",
"85 -14 OFFCURVE",
"118 -14 CURVE SMOOTH",
"150 -14 OFFCURVE",
"174 10 OFFCURVE",
"174 43 CURVE SMOOTH",
"174 75 OFFCURVE",
"150 99 OFFCURVE",
"118 99 CURVE SMOOTH",
"85 99 OFFCURVE",
"61 75 OFFCURVE",
"61 43 CURVE SMOOTH"
);
}
);
width = 235;
}
);
leftKerningGroup = period;
note = period;
rightKerningGroup = period;
unicode = 002E;
},
{
glyphname = comma;
lastChange = "2020-05-15 12:35:45 +0000";
layers = (
{
layerId = "5117E3E8-E17C-4812-BAF5-9E7064564A59";
paths = (
{
closed = 1;
nodes = (
"54 35 OFFCURVE",
"93 -1 OFFCURVE",
"147 -1 CURVE SMOOTH",
"164 -1 LINE",
"164 -33 LINE SMOOTH",
"164 -65 OFFCURVE",
"150 -79 OFFCURVE",
"118 -79 CURVE SMOOTH",
"79 -79 LINE",
"79 -147 LINE",
"128 -147 LINE SMOOTH",
"202 -147 OFFCURVE",
"240 -109 OFFCURVE",
"240 -35 CURVE SMOOTH",
"240 80 LINE SMOOTH",
"240 137 OFFCURVE",
"201 174 OFFCURVE",
"147 174 CURVE SMOOTH",
"93 174 OFFCURVE",
"54 137 OFFCURVE",
"54 84 CURVE SMOOTH"
);
}
);
width = 294;
},
{
layerId = "CEFBB1E5-951F-4065-926E-8B9137F837F5";
paths = (
{
closed = 1;
nodes = (
"61 12 OFFCURVE",
"86 -11 OFFCURVE",
"118 -11 CURVE SMOOTH",
"131 -11 LINE",
"131 -41 LINE SMOOTH",
"131 -63 OFFCURVE",
"121 -73 OFFCURVE",
"99 -73 CURVE SMOOTH",
"75 -73 LINE",
"75 -115 LINE",
"100 -115 LINE SMOOTH",
"151 -115 OFFCURVE",
"175 -91 OFFCURVE",
"175 -39 CURVE SMOOTH",
"175 41 LINE SMOOTH",
"175 74 OFFCURVE",
"150 97 OFFCURVE",
"118 97 CURVE SMOOTH",
"86 97 OFFCURVE",
"61 74 OFFCURVE",
"61 43 CURVE SMOOTH"
);
}
);
width = 236;
}
);
leftKerningGroup = period;
leftMetricsKey = period;
note = comma;
rightKerningGroup = period;
rightMetricsKey = period;
unicode = 002C;
},
{
glyphname = exclam;
lastChange = "2020-05-15 12:35:45 +0000";
layers = (
{
components = (
{
name = period;
}
);
layerId = "5117E3E8-E17C-4812-BAF5-9E7064564A59";
paths = (
{
closed = 1;
nodes = (
"85 224 LINE",
"213 224 LINE",
"213 700 LINE",
"85 700 LINE"
);
}
);
width = 298;
},
{
components = (
{
alignment = -1;
name = period;
}
);
layerId = "CEFBB1E5-951F-4065-926E-8B9137F837F5";
paths = (
{
closed = 1;
nodes = (
"87 177 LINE",
"148 177 LINE",
"148 700 LINE",
"87 700 LINE"
);
}
);
width = 235;
}
);
leftMetricsKey = period;
note = exclam;
rightMetricsKey = period;
unicode = 0021;
},
{
glyphname = exclamdown;
lastChange = "2020-05-15 12:35:45 +0000";
layers = (
{
components = (
{
name = period;
transform = "{-1, 0, 0, -1, 298, 496}";
}
);
layerId = "5117E3E8-E17C-4812-BAF5-9E7064564A59";
paths = (
{
closed = 1;
nodes = (
"213 272 LINE",
"85 272 LINE",
"85 -200 LINE",
"213 -200 LINE"
);
}
);
width = 298;
},
{
components = (
{
alignment = -1;
name = period;
transform = "{-1, 0, 0, -1, 235, 486}";
}
);
layerId = "CEFBB1E5-951F-4065-926E-8B9137F837F5";
paths = (
{
closed = 1;
nodes = (
"148 311 LINE",
"87 311 LINE",
"87 -200 LINE",
"148 -200 LINE"
);
}
);
width = 235;
}
);
leftMetricsKey = period;
note = exclamdown;
rightMetricsKey = period;
unicode = 00A1;
},
{
glyphname = question;
lastChange = "2020-05-15 12:35:45 +0000";
layers = (
{
components = (
{
name = period;
transform = "{1, 0, 0, 1, 130, 0}";
}
);
layerId = "5117E3E8-E17C-4812-BAF5-9E7064564A59";
paths = (
{
closed = 1;
nodes = (
"34 472 LINE",
"164 472 LINE",
"164 494 LINE SMOOTH",
"164 566 OFFCURVE",
"218 602 OFFCURVE",
"290 602 CURVE SMOOTH",
"360 602 OFFCURVE",
"406 568 OFFCURVE",
"406 510 CURVE SMOOTH",
"406 456 OFFCURVE",
"373 429 OFFCURVE",
"313 401 CURVE SMOOTH",
"296 393 LINE SMOOTH",
"234 364 OFFCURVE",
"209 322 OFFCURVE",
"209 254 CURVE SMOOTH",
"209 224 LINE",
"341 224 LINE",
"341 248 LINE SMOOTH",
"341 277 OFFCURVE",
"349 290 OFFCURVE",
"373 301 CURVE SMOOTH",
"390 309 LINE SMOOTH",
"460 342 OFFCURVE",
"536 390 OFFCURVE",
"536 510 CURVE SMOOTH",
"536 630 OFFCURVE",
"432 714 OFFCURVE",
"290 714 CURVE SMOOTH",
"146 714 OFFCURVE",
"34 630 OFFCURVE",
"34 492 CURVE SMOOTH"
);
}
);
width = 578;
},
{
components = (
{
alignment = -1;
name = period;
transform = "{1, 0, 0, 1, 164, 0}";
}
);
layerId = "CEFBB1E5-951F-4065-926E-8B9137F837F5";
paths = (
{
closed = 1;
nodes = (
"46 463 LINE",
"108 463 LINE",
"108 504 LINE SMOOTH",
"108 609 OFFCURVE",
"196 660 OFFCURVE",
"294 660 CURVE SMOOTH",
"391 660 OFFCURVE",
"471 609 OFFCURVE",
"471 518 CURVE SMOOTH",
"471 436 OFFCURVE",
"426 398 OFFCURVE",
"354 369 CURVE SMOOTH",
"322 355 LINE SMOOTH",
"265 331 OFFCURVE",
"249 304 OFFCURVE",
"249 245 CURVE SMOOTH",
"249 177 LINE",
"311 177 LINE",
"311 246 LINE SMOOTH",
"311 280 OFFCURVE",
"321 295 OFFCURVE",
"347 306 CURVE SMOOTH",
"379 320 LINE SMOOTH",
"464 355 OFFCURVE",
"533 408 OFFCURVE",
"533 518 CURVE SMOOTH",
"533 631 OFFCURVE",
"436 714 OFFCURVE",
"294 714 CURVE SMOOTH",
"150 714 OFFCURVE",
"46 640 OFFCURVE",
"46 505 CURVE SMOOTH"
);
}
);
width = 582;
}
);
note = question;
unicode = 003F;
},
{
glyphname = questiondown;
lastChange = "2020-05-15 12:35:45 +0000";
layers = (
{
components = (
{
name = period;
transform = "{-1, 0, 0, -1, 448, 496}";
}
);
layerId = "5117E3E8-E17C-4812-BAF5-9E7064564A59";
paths = (
{
closed = 1;
nodes = (
"544 28 LINE",
"414 28 LINE",
"414 6 LINE SMOOTH",
"414 -66 OFFCURVE",
"360 -102 OFFCURVE",
"288 -102 CURVE SMOOTH",
"218 -102 OFFCURVE",
"172 -68 OFFCURVE",
"172 -10 CURVE SMOOTH",
"172 44 OFFCURVE",
"205 71 OFFCURVE",
"265 99 CURVE SMOOTH",
"282 107 LINE SMOOTH",
"344 136 OFFCURVE",
"369 178 OFFCURVE",
"369 246 CURVE SMOOTH",
"369 272 LINE",
"237 272 LINE",
"237 252 LINE SMOOTH",
"237 223 OFFCURVE",
"229 210 OFFCURVE",
"205 199 CURVE SMOOTH",
"188 191 LINE SMOOTH",
"118 158 OFFCURVE",
"42 110 OFFCURVE",
"42 -10 CURVE SMOOTH",
"42 -130 OFFCURVE",
"146 -214 OFFCURVE",
"288 -214 CURVE SMOOTH",
"432 -214 OFFCURVE",
"544 -130 OFFCURVE",
"544 8 CURVE SMOOTH"
);
}
);
width = 578;
},
{
components = (
{
alignment = -1;
name = period;
transform = "{-1, 0, 0, -1, 417, 487}";
}
);
layerId = "CEFBB1E5-951F-4065-926E-8B9137F837F5";
paths = (
{
closed = 1;
nodes = (
"535 35 LINE",
"474 35 LINE",
"474 -5 LINE SMOOTH",
"474 -111 OFFCURVE",
"385 -162 OFFCURVE",
"287 -162 CURVE SMOOTH",
"191 -162 OFFCURVE",
"111 -111 OFFCURVE",
"111 -20 CURVE SMOOTH",
"111 62 OFFCURVE",
"156 100 OFFCURVE",
"227 130 CURVE SMOOTH",
"259 143 LINE SMOOTH",
"317 168 OFFCURVE",
"332 195 OFFCURVE",
"332 253 CURVE SMOOTH",
"332 311 LINE",
"270 311 LINE",
"270 252 LINE SMOOTH",
"270 219 OFFCURVE",
"261 203 OFFCURVE",
"235 192 CURVE SMOOTH",
"203 179 LINE SMOOTH",
"118 143 OFFCURVE",
"49 90 OFFCURVE",
"49 -20 CURVE SMOOTH",
"49 -133 OFFCURVE",
"145 -216 OFFCURVE",
"287 -216 CURVE SMOOTH",
"431 -216 OFFCURVE",
"535 -141 OFFCURVE",
"535 -7 CURVE SMOOTH"
);
}
);
width = 582;
}
);
unicode = 00BF;
},
{
glyphname = bullet;
lastChange = "2020-05-15 12:35:45 +0000";
layers = (
{
layerId = "5117E3E8-E17C-4812-BAF5-9E7064564A59";
paths = (
{
closed = 1;
nodes = (
"46 272 OFFCURVE",
"113 206 OFFCURVE",
"190 206 CURVE SMOOTH",
"265 206 OFFCURVE",
"334 268 OFFCURVE",
"334 350 CURVE SMOOTH",
"334 430 OFFCURVE",
"270 494 OFFCURVE",
"190 494 CURVE SMOOTH",
"110 494 OFFCURVE",
"46 428 OFFCURVE",
"46 350 CURVE SMOOTH"
);
}
);
width = 380;
},
{
layerId = "CEFBB1E5-951F-4065-926E-8B9137F837F5";
paths = (
{
closed = 1;
nodes = (
"51 291 OFFCURVE",
"101 242 OFFCURVE",
"159 242 CURVE SMOOTH",
"220 242 OFFCURVE",
"268 293 OFFCURVE",
"268 350 CURVE SMOOTH",
"268 408 OFFCURVE",
"218 458 OFFCURVE",
"159 458 CURVE SMOOTH",
"101 458 OFFCURVE",
"51 409 OFFCURVE",
"51 350 CURVE SMOOTH"
);
}
);
width = 319;
}
);
note = bullet;
unicode = 2022;
},
